<?xml version="1.0" encoding="utf-8"?>
<!-- Generator: Adobe Illustrator 18.1.1, SVG Export Plug-In . SVG Version: 6.00 Build 0)  -->
<svg version="1.1" id="Layer_1" xmlns="http://www.w3.org/2000/svg" xmlns:xlink="http://www.w3.org/1999/xlink" x="0px" y="0px"
	 viewBox="870 -439.5 2040.5 1178.5" enable-background="new 870 -439.5 2040.5 1178.5" xml:space="preserve">
<g opacity="0.4">
	<path id="Dobong-gu" fill="#C8C8C8" d="M2384.5-339.2c-0.9,5.6-0.2,11.2-1.2,17c-1.3,7-5.6,13.6-7.1,20.7c-0.5,2.5-0.6,5.7-0.9,8.6
		c-0.3,2.9-1.2,6.3-0.9,8.6c0.5,4,3.6,8.7,5.2,13c1.4,3.6,4.6,9.8,4.9,13.3c0.3,3-0.6,7.2-0.9,10.8c-0.3,3.6-0.9,7.3-1.2,10.8
		c-0.7,7.6-0.5,15.7-1.9,22.2c-1,4.7-3.4,8.9-4.3,13.3c-1.1,5.3-0.8,11.4-1.9,17c-4.2,0-8.3,0.2-12,0.6
		c-9.1-11.8-19.6-24.4-29.9-35.8c-3-3.3-6.9-9.9-10.8-11.4c-4.3-1.7-10.9,0-13.6-4.3c-2.8-3-5.6-5.9-8.6-8.6
		c-0.1-0.6-0.8-0.6-0.9-1.2c-2.4-2.7-5-5.3-7.7-7.7c-1.5-6,1.5-10,2.2-14.8c0.7-1,0.1-3.4,0.3-4.9c0-2.6,0-5.1,0-7.7
		c-1.2-8.3,1.8-15.7,1.5-22.8c-0.3-7.6-3.2-14.7-3.7-22.5c7.3-0.8,4.7-13.1,5.6-21.9c0.5-5.1,3.4-8.6,4-12c6.2-2.8,13.9-4,23.5-3.4
		c1.3-0.2,3.5,0.4,4.3-0.3c2.1,0.4,4.9-0.5,6.5,0c5.7,1.8,2.2,12.9,6.2,15.4c2.7,1.7,8.7,0.8,12.7,0.9c4.6,0.2,8.8,0.4,13,0.6
		C2372.1-343.3,2375.1-338,2384.5-339.2z"/>
	<path id="Dongdaemun-gu" fill="#C8C8C8" d="M2371.5-93.9c10.7-7.9,28.3-8.9,42.6-13.3c2.9,31.3,6.3,62.2,9.6,93.2
		c-4,9.2-7.6,18.9-11.7,28.1c-14.1-5.9-29.1-10.8-44.1-15.7c-1.2-4.8-2.6-9.5-4.3-13.9c-0.6-0.9-2.5-0.6-4-0.6
		c-0.4-0.7-2.1-0.1-3.1-0.3c-3,0.2-6.1-0.2-9.3-0.3c-3.2-0.1-7-1-9.3-0.3c-3.1,1-2.8,5.3-5.6,6.8c-0.9,0-1.9,0-2.8,0
		c-0.4-0.7-2.1-0.1-3.1-0.3c-4.3-0.4-5.6-3.7-8.3-5.6c0-1.2,0-2.5,0-3.7c0.7-0.7,0.1-2.8,0.3-4c0-2.1,0-4.1,0-6.2
		c-1.1-5.4,4.1-7.5,5.9-11.1c2-4.1,1.5-8,3.4-12.3c8.1-6,15.9-12.3,26.5-15.7c3.7-5.8,6.1-12.9,10.5-17.9
		C2367.1-89.2,2369.4-91.5,2371.5-93.9z"/>
	<path id="Dongjak-gu" fill="#C8C8C8" d="M2128.6,123.4c7.9,1.1,16.1,1.5,25,0.9c3.5-0.2,7.8,0.4,10.8-0.3c1.2,0,2-0.3,2.8-0.6
		c4,4.3,8,8.8,12,13.6c3.8,4.5,8,10,13.3,12.7c4.7,2.4,10.8,1.9,17.3,3.4c1,4,1.6,8.5,3.1,12c4.2,1,9.8,0.5,14.2,1.2
		c2.6,4.8,4.8,10.1,7.1,15.1c-2.6,7-4.7,15.7-5.9,25.3c-1.3,10.8-1.2,19.7,1.2,27.8c-4.8,2.2-8.5,5.5-16.7,4.3c-1.9,0-3.7,0-5.6,0
		c-2.6-1.9-5-4-7.7-6.2c-2.2-1.8-6-3.9-7.4-6.5c-2.2-4.1-2.5-10-3.7-14.8c-1.2-4.9-2.7-9.7-4-14.5c-7.7-2.8-14.5-6.4-22.8-8.6
		c-4.8,0-9.7,0-14.5,0c-3,0.2-6.8-0.4-9.3,0.3c-4.1,0-8.2,0-12.3,0c-3.4,0.2-7.6-0.4-10.5,0.3c-2.9,2.5-3.1,7.8-5.2,11.1
		c-5.1,3.8-12.1,1.8-18.2,3.7c-5.8,1.8-10.3,8.5-16.4,8.3c0.8-4.6,1.3-9.4,2.2-13.9c3-1.9,4.7-5.5,8.3-7.1
		c5.4-2.4,12.5-2.4,18.8-4.3c1.6-5.5,5-10.1,6.2-15.7c1.1-5.3-0.1-10.5,0.9-16.4c0.4-2.1,2.1-4.5,3.1-6.8
		C2118.8,138.6,2123.7,130.1,2128.6,123.4z"/>
	<path id="Eunpyeong-gu" fill="#C8C8C8" d="M2144.7-236.7c4.7,0.6,5.7-1.5,8-4c4.5-4.8,8.3-10.6,11.1-15.7
		c9.1,7.5,19,16.2,28.4,24.4c2.4,2.1,8.5,5.8,9.3,8.3c0.5,1.8-0.4,4.2,0,5.6c0,3,0,6,0,8.9c0.2,1.4-0.4,3.7,0.3,4.6
		c1.2,8.9-3.8,11.7-5.9,17.3c0.4,0.1,0.6,0.4,0.6,0.9c-3.2,5.9-6.3,10.8-10.5,15.4c-1.9,2.1-4.7,3.9-5.6,6.2
		c-1.7,4.4-1.2,9.3-2.8,14.8c-0.7,0.8-0.1,3-0.3,4.3c0,2.3,0,4.5,0,6.8c0,2.1,0,4.1,0,6.2c-0.7,0.8-0.1,3-0.3,4.3c0,2.3,0,4.5,0,6.8
		c0,2.6,0,5.1,0,7.7c-6.1-1.6-8.9,0.2-12.7,2.5c-1.8,1.1-4.1,2.2-5.2,3.4c-4.2,4.3-5.8,11.7-7.4,17.3c-5.9,2.4-11.7,4.9-18.2,6.8
		c-1.8,5.2-4,10-7.1,13.9c-0.7,0.6-2.3,0.2-3.4,0.3c-2,0.2-4.7-0.4-6.2,0.3c-2.9,0-5.8,0-8.6,0c-3.3,0.2-7.4-0.4-10.2,0.3
		c-2-0.2-2.7,0.8-3.4,1.9c-1.3,1-2.4,2.1-3.4,3.4c-1.2,0.9-2.2,1.9-3.1,3.1c0,0.1,0,0.2,0,0.3c-1.3,1-2.4,2.1-3.4,3.4
		c-1.2,3.9-1.4,8.6-2.2,13c-4.5-2.8-8.5-6.5-13-9.9c-4.3-3.3-9.8-6-13.3-9.9c-2-2.2-2.6-5.2-4.9-7.1c-6.1,0-7.2-4.9-9.9-8.3
		c6.6,3.1,15.7,3.8,25.6,3.7c3.5-4.2,8.9-8.9,12.3-13.9c3.4-4.9,5.8-10.4,4.9-19.1c0-2,0-3.9,0-5.9c0-4.4,0-8.8,0-13.3
		c-0.2-3.2,0.4-7.2-0.3-9.9c0-6.4,0-12.8,0-19.1c1.4-2.2,5-3.3,5.9-5.9c0.7-2.1,0.4-5.6,0.6-8.3c1.6-19.1,3.1-40.4,4.9-58.3
		c7.1,0.3,15,0.3,21.3,0.6c2.3,0.1,4.9,0.9,7.1,0c4.5-1.8,3.9-10.9,11.7-8.3c0.4,0.7,2.1,0.1,3.1,0.3
		C2140.8-236.7,2142.7-236.7,2144.7-236.7z"/>
	<path id="Gangbuk-gu" fill="#C8C8C8" d="M2288.8-324.7c0.6,7.7,3.9,14.9,4,22.5c0.1,5.4-2.5,10.6-1.9,16.7c-0.7,1-0.1,3.4-0.3,4.9
		c0,2.6,0,5.1,0,7.7c1.1,8.9-3.9,12.4-2.2,21c0.8,1,1.7,2,2.5,3.1c2.5,2.8,5.2,5.5,8,8c2.8,3,5.6,5.9,8.6,8.6
		c2.6,3.1,9.1,2.2,13.6,3.4c18.3,20,36.3,40.2,50.3,64.5c-5.7,9.9-11,20-16.4,30.2c-3,1.6-5.6,3.7-8.6,5.2c-1.9,0.2-4.5-0.4-5.9,0.3
		c-1.9,0-3.7,0-5.6,0c-2.2,0-4.3,0-6.5,0c-1.3,0.2-3.5-0.4-4.3,0.3c-1.9,0-3.7,0-5.6,0c-2.2,0-4.3,0-6.5,0c-1.5,0-3.1,0-4.6,0
		c-2-1.2-4.4-2-5.9-3.7c-2.6-9.6-4.7-19.8-7.4-29.3c-7.9-6.6-16.4-12.6-24.4-18.8c-2.7-2.1-5.2-4.9-8-6.5c-4.2-2.3-9.3-2.6-13.9-4.9
		c-2.5-3-4.6-6.3-7.1-9.3c0.8-1.8,2.3-2.9,2.8-4.9c0.7-1.2,0.1-3.8,0.3-5.6c-0.2-1.5,0.4-3.9-0.3-4.9c0-3.2,0-6.4,0-9.6
		c0-3.1,0-6.2,0-9.3c-0.2-1.4,0.4-3.7-0.3-4.6c0-3.2,0-6.4,0-9.6c0-3.1,0-6.2,0-9.3c0-1.4,0-2.9,0-4.3c3.9-7.1,8.8-14.3,13-21.3
		c1.4-2.4,3.5-5.2,4.3-7.4c2.8-7.9,2.3-16.3,5.2-25C2273.5-319.2,2281.1-322,2288.8-324.7z"/>
	<path id="Gangdong-gu" fill="#C8C8C8" d="M2511,16.6c3.5-4.2,8.3-6.2,13.6-9.6c5.5-3.4,8.7-8,16.4-8c6.6-0.2,14,0.4,20.1-0.3
		c11.4-2.7,18.1-10.1,27.2-15.4c5.4-3.2,12.3-5.5,17.6-8.6c0,1,0,2.1,0,3.1c0.2,1.5-0.4,3.9,0.3,4.9c-0.2,6.8,6.8,6.6,10.5,9.6
		c0.9,0.7,3.2,0.1,4.6,0.3c0.7,4.4,0.9,9.2,2.8,12.3c-1.2,6.4-6.7,12.2-5.9,19.8c0.3,2.3,3.1,5.1,3.7,8.3c0.7,4-0.4,8.5,0.3,12
		c0.5,2.2,2.7,4,3.1,5.9c-1.7,3-3.1,6.2-4.9,8.9c-8.7,2.4-16.7,5.3-26.8,8.6c-4.2,1.4-8.6,2.8-13.3,4.3c-3.8,1.2-11.5,2.5-13.3,4.6
		c-1.4,1.7-1.1,6.2-1.2,9.9c-0.2,3.4-0.1,7.2-0.3,9.9c-0.3,3.4-2.6,6.2-4.3,9c-4.5,7.3-8.1,13-12.7,20.4c-3.3-1.1-5.6-0.3-8.3-1.5
		c-2.9-1.3-4.1-4.7-6.8-5.6c-3.7-1.2-8-0.2-13-1.2c-2.9-5-3.4-11-6.5-15.4c-2.5-3.6-7.3-4.9-9.6-8.6c3.2-9,10.2-21.7,4.3-31.5
		c-2.4-0.4-4.9-0.7-7.7-0.6c-2-1.8-3.4-4.2-5.2-6.2c2.5-13,2.8-28.2,11.4-35.2C2508.5,19.4,2509.8,18.1,2511,16.6z"/>
	<path id="Gangnam-gu" fill="#C8C8C8" d="M2289.1,105.5c2.1-2.2,4.4-3.8,6.8-5.9c2.2-1.9,4.2-4.9,6.8-5.9c1.9-0.7,5.2-0.8,7.7-1.2
		c6.2-1.1,10.9-1.3,17.9-0.9c9.9,0.6,16.1,2,22.8,4.9c16.3,7.2,29.4,20.2,48.5,22.2c0.7,1.6,0.1,4.4,0.3,6.5c0,2.1,0,4.1,0,6.2
		c0.2,1.2-0.4,3.3,0.3,4c0,1.7,0,3.5,0,5.2c0,2.1,0,4.1,0,6.2c0.2,1.1-0.4,3.1,0.3,3.7c-0.7,6,1.6,8.1,3.4,11.7
		c1.2,2.4,2,5.3,3.1,6.8c1.3,1.8,4.5,3.7,6.8,5.6c2.4,1.9,4.6,4.1,7.1,5.6c2.5,1.4,5.7,2.5,8.6,4c2.9,1.4,5.7,3.6,8.3,4.3
		c7.5,2.2,17.1,2.1,24.4,4.3c1.6,2,3.7,3.5,5.2,5.6c0.9,2.6,1.4,5.6,2.5,8c5.9,4.4,12.8,7.8,18.5,12.3c0.5,3.9,1.3,7.6,1.9,11.1
		c0.6,3.7,0.6,7.8,1.9,11.1c0.7,1.8,2.7,4.2,4,6.2c5.9,8.8,11.8,17.2,15.4,27.5c-3.4,1.2-8.8-0.4-12.3,1.2c-3.1,1.4-3.7,6.8-6.2,9.9
		c-1.3,1.6-4.6,4.3-6.8,4.9c-3.5,1.1-7.7,0.1-11.1,0.9c-2.6,0.6-4.4,2.9-6.8,3.4c-2.7,0.5-5.6-0.6-9.3-0.3c-3.1-2.7-4.3-6.4-7.7-9.3
		c-2.7-2.3-6.5-3.3-8.9-5.6c-1.6-1.5-5.6-7.1-6.5-9.6c0-1.6,0-3.3,0-4.9c-0.2-0.9,0.4-2.7-0.3-3.1c0.2-2.7-0.5-4.5-0.3-7.1
		c-2.7-1.8-4.7-4.6-8-5.9c-9.2-3.4-20.8,0.3-28.4,3.7c-2.8,4.5-5.3,9.3-8.6,13.3c-10.1,0.2-17.5,3.1-25,5.9
		c-7.9-10.8-9.3-28.1-13-43.2c-3.1-3.3-6.3-6.5-9.6-9.6c-4.2-2-9.2-3.1-12.3-6.2c-1.4-1.7-3-3.2-4.6-4.6c-0.1-0.4-0.5-0.5-0.6-0.9
		c-1.3-1.6-2.8-3-4.3-4.3c-4.5-4.7-4.2-14.3-4.9-23.8c-0.4-4.8,0-10.4-1.2-14.2c-1.4-4.1-8-6.8-9.6-11.1c-1.2-3.4-1.2-8.1-1.9-12
		c-0.7-4.2-1.1-9.2-2.2-12.7c-1.3-4.2-4.3-8-6.2-11.7C2292.9,113.6,2291,109.6,2289.1,105.5z"/>
	<path id="Gangseo-gu" fill="#C8C8C8" d="M1872.8-113.3c8.8,4.9,17.8,10.8,25.6,16.7c2.6,2,5.8,3.7,8,5.9c2.6,2.5,4.7,6.3,7.1,9.3
		c2.4,3.1,4.6,6.5,7.1,9.3c4,4.4,9.3,7.5,13.3,11.7c5,5.3,8,12.5,13.3,17.9c3.9,4,10.7,6.2,16,9.3c2.1,1.2,4.3,2.8,6.5,4
		c2.4,1.3,5.3,2.2,7.1,3.7c2.2,1.7,3.9,5.1,6.2,7.7c2.2,2.7,5.1,5,6.5,7.4c2.2,3.7,3.1,8,5.2,11.4c3.5,5.4,9.5,9.4,14.2,13.6
		c5,4.4,10.3,8.4,15.1,13c1.4,3.1,1.6,7.5,1.9,11.7c0,0.2,0,0.4,0,0.6c-3.7,0-7.4,0-11.1,0c-3.7-1.1-6.8-2.7-11.4-2.8
		c-2.4,2.9-4,6.5-6.2,9.6c-0.1,6.5-0.9,12.2-0.9,18.8c-3.4,5-6.4,10.5-9.3,16c-5.3,1.1-10.1,5.6-15.4,5.9c-2.1,0.1-6-1.1-8.3-1.5
		c-6.6-1.3-12.5-3.1-15.4-7.4c-1.2-1.8-2-4.9-3.1-7.4c-2.3-5.4-4.4-10.1-6.5-15.1c-1.1-2.7-1.8-5.9-3.1-7.7
		c-1.2-1.7-4.9-4.7-6.5-4.9c-3.7-0.6-8.9,1.8-12.3,1.2c-2,3.2-3.7,6.8-5.6,10.2c-5.3-0.4-10.2-0.6-15.4-0.9
		c-4.2-0.3-11.8-1.8-15.7-0.9c-3.1,0.7-6.5,6.3-8.6,8.6c-2.9,3.2-5.6,6-8.6,8.6c-1.7-3.2-3.2-6.2-4.6-9.9c-1.1-3-2.2-8.1-4.3-10.2
		c-1.6-1.5-5.7-2.4-8.3-3.4c-9-3.5-17.7-6.9-25.9-10.2c-0.3-8.4-3.5-14-6.2-20.1c2.5-3.3,7.3-2.7,9.6-6.2c1-1.6,1-4.9,1.5-7.4
		c1.6-7.4,3.7-15.6,5.6-21.9c3.4-1.6,6.8-3,10.8-4.6c2.9-1.2,8.5-2.5,10.2-5.2c1.9-3.1,1.6-8.5,2.2-13c0.6-4.5,1.1-9.1,1.5-13.6
		c2.4-2.2,4.8-4.6,8-7.4c4-3.5,9.7-5.8,8-14.2c0.7-1,0.1-3.4,0.3-4.9c1.2-8.2-5.5-15.5-3.7-23.1
		C1867.7-108.5,1871.5-109.9,1872.8-113.3z"/>
	<path id="Geumcheon-gu" fill="#C8C8C8" d="M2042.2,215.1c6.2-0.6,8.7-4.9,13.6-6.8c5.4,2.4,11,11.5,17.9,7.1c1.2,2.9,3,5.2,4.3,8
		c2.7,1.2,5.5,2.3,8,3.7c-0.1,2.3-0.5,4.2-0.3,6.8c-0.5,0.4-0.5,3,0,3.4c0.8,12.2,2.6,26.1,4,38c0.5,4.4,0.4,9.4,1.5,12.7
		c1.2,3.6,5.5,6.4,6.5,9.9c2.9,0.8,5.4,2,8.3,2.8c0.7,3.9,2.1,7.2,3.1,10.8c-0.4,1.6-1.9,2-2.8,3.1c-10.1,2.1-12.7,11.8-15.4,21.3
		c-5,0.4-9.1,5.4-14.2,6.2c-6.2,0.9-12.2-1.6-19.4-0.9c-4.3-16.6-10-36.5-14.8-54.3c-1.2-4.5-2.4-15.3-5.6-17.6
		c-1.9-1.3-5.8-1.1-8.3-1.2c-1.8-21.1-10.5-35.1-16.4-52.2c1.5,0,3.1,0,4.6,0c1.9,0.5,5.9,0.5,7.7,0c1.7,0,3.5,0,5.2,0
		c1.1-0.2,3.1,0.4,3.7-0.3c1.6,0,3.3,0,4.9,0C2039.7,215.2,2041.6,215.8,2042.2,215.1z"/>
	<path id="Guro-gu" fill="#C8C8C8" d="M2054.3,201.2c0.2,1-0.4,2.9,0.3,3.4c0,0.6,0,1.2,0,1.9c-4.3,2-6.9,5.9-12.7,6.5
		c-1.1,0.2-3.1-0.4-3.7,0.3c-1.6,0-3.3,0-4.9,0c-1.1,0.2-3.1-0.4-3.7,0.3c-1.7,0-3.5,0-5.2,0c-2.4,0-4.7,0-7.1,0
		c-1.9-0.2-4.5,0.4-5.9-0.3c-1.2-5.2,0.9-11-1.2-15.1c-0.9-1.6-4.7-3.4-6.2-4.3c-2.3-1.4-5.1-3.6-7.1-3.7c-1.7-0.1-4.6,1.7-6.2,2.5
		c-1.8,0.9-4.4,2-5.9,3.1c-1.5,1.1-4.9,5.6-5.6,7.4c-1.4,4,0.3,10.3-3.1,11.7c-1.7,1.4-3.2,3-4.6,4.6c-2.2,1.9-4.2,4-6.2,6.2
		c-0.7,1.1-1.4,2.1-2.5,2.8c-1.7,1.4-3.2,3-4.6,4.6c-2.2,1.9-4.2,4-6.2,6.2c-1.6,1.7-2.5,4-4.6,4.6c-3.8,1-10,0.5-13.6,0
		c-3.6-0.5-6.4-3-9.6-3.1c-6.4-0.2-12.2,3.4-17.9,3.7c-3.2,0.2-6-0.7-9.6-0.9c3.7-7.5,7.3-16.1,11.1-24.1c1.3-2.8,3.7-5.8,3.7-8.3
		c0-3.4-3.3-8-5.2-12.3c-1.3-2.8-5.3-9.9-5.2-12.3c0-1.3,1.8-4.1,2.8-6.2c5.4-11.3,11.5-22,13.3-35.2c-0.2-2-2.1-2.2-2.8-3.7
		c4.7,0.5,9,1.3,13.3,2.2c1.4,3.3,2.1,7.4,4.3,9.9c0.3,0.5,2.8,0.5,3.1,0c2.2,0,4.3,0,6.5,0c2.5-0.2,5.8,0.4,7.7-0.3
		c3.5-1.4,6.6-5.2,10.2-8.3c1.4-1.2,3.2-2.4,4.9-4c2.7-2.5,3.9-5.2,8.3-4.3c0.5,0.7,2.4,0.1,3.4,0.3c2.6,0,5.1,0,7.7,0
		c1.3,4.6,3.1,8.8,4.3,13.6c3.1,0.8,5.8,3.6,9.6,4c4.8,0.5,10-1.2,15.7-0.6c0.9-0.2,2.7,0.4,3.1-0.3c2.3-1.4,4-5.7,5.6-9
		c1.5-3.2,2.4-6.7,4.3-8.9c2.9,1.3,5.3,3.2,8.3,4.9c2.3,1.3,6.9,2.6,8.3,4.9c0.9,1.3,1.3,4.3,1.9,6.5c1.8,6.9,3.2,14.1,4,21.9
		c2.1,2.9,5.6,4.4,4.6,10.5c0.2,1-0.4,2.9,0.3,3.4c0,1.7,0,3.5,0,5.2c0.2,1-0.4,2.9,0.3,3.4C2054.3,197.9,2054.3,199.5,2054.3,201.2
		z"/>
	<path id="Gwanak-gu" fill="#AE1932" d="M2217.8,306.4c-2.8,2.8-5.9,5.8-9.3,8.9c-3,2.8-6,6.6-9.6,8.9c-3.4,2.3-7.8,4.2-12.3,6.8
		c-4.1,2.3-8.4,6.3-12.3,7.1c-2.8,0.6-6.2,0.2-9.3,0.3c-3.1,0.1-6.3,0.2-9.6,0.3c-5.2,0.2-14.4,1.4-19.1,0.6
		c-3.7-0.6-6.4-4.5-10.2-5.9c-2.6-3.9-2.2-12.5-5.2-15.4c-2.8-2.7-7.8-1.3-12-3.1c5.1-3.4-0.6-10.6-1.2-15.7
		c-2.4-1.4-5.3-2.3-8.3-3.1c-1.1-3.2-5.2-6.1-6.2-9.6c-1-3.3-1-8.2-1.5-12.7c-0.5-4.1-1-8.5-1.5-12.7c-1.6-13-2.4-24.6-2.5-35.8
		c-2.5-1.4-5.3-2.5-8-3.7c-1.3-2.5-3-4.6-4-7.4c6.9-0.8,11.7-7.4,17-8.9c6.9-2,14,0.1,19.1-4.3c1.4-3.3,2.5-6.9,4-10.2
		c3.7,0,7.4,0,11.1,0c2.9-0.2,6.6,0.4,8.9-0.3c4.1,0,8.2,0,12.3,0c5,0,10.1,0,15.1,0c6.7,2.6,13.5,5,19.8,8c2.5,9.6,5.1,19.2,7.4,29
		c5.5,4.4,10.7,9,16.4,13.3c1.7,0.7,4.6,0.1,6.8,0.3c1.1-0.2,3.1,0.4,3.7-0.3c6.1,0.9,8.7-3.4,12.3-4c-1,8.4,1.1,12.8,3.7,17.9
		c4.6,9.2,9.5,19.9,14.8,26.8c-2.3,0.6-5,0.7-7.1,1.5C2233.1,290.9,2225.4,298.6,2217.8,306.4z"/>
	<path id="Gwangjin-gu" fill="#C8C8C8" d="M2387.3,96.9c1.4-9,4.4-16.3,4.6-26.5c5.4-7.3,11.3-13.5,14.8-22.8
		c3.6-9.5,3.9-20.8,6.8-31.5c1.3-4.9,4.2-9.7,6.2-14.5c2.1-5.1,3.6-10.3,6.2-14.5c8.1-1.5,16.4,0.4,23.5-1.5
		c6.4-1.8,11.9-8.4,21.3-6.5c2.2-0.5,0.8,2.7,1.2,4c-1.1,5.3-7.6,9.4-8,14.8c-0.3,3.3,2.6,7.3,3.4,10.8c1.3,5.3-0.2,11.4,3.4,14.8
		c1.3,0,2.7,0,4,0c1,0.7,3.4,0.1,4.9,0.3c1.7,0,3.5,0,5.2,0c-1.6,4-2.7,7.8-3.4,12.3c-0.7,4.3-0.8,9.5-2.2,13.9
		c-1.3,4.1-4.6,9.4-7.1,14.2c-2.4,4.7-6.1,8.7-8.9,12.3c-2.9,3.7-6.2,7.5-9.6,11.7c-2.9,3.6-6.4,10.1-9.6,11.7
		c-4.3,2.1-9.9,2.2-15.4,2.5c-1.4,0-2.9,0-4.3,0c-2.1,0-4.1,0-6.2,0c-0.9,0.2-2.7-0.4-3.1,0.3
		C2403.6,102.9,2394.5,100.9,2387.3,96.9z"/>
	<path id="Jongno-gu" fill="#C8C8C8" d="M2233.9-19.8c-8.4,5.4-18.2,9.4-29.3,12c-4-3.6-8.2-6.8-11.7-10.8c-1-1.3-2.1-2.4-3.4-3.4
		c-2.8-2.9-5.6-7.9-5.6-12.3c0-2.4,1.5-5.8,2.5-9c1.9-6.2,3.8-11.7,5.6-17.6c0.9-3.1,2.4-6.5,2.5-9.3c0.2-4.1-1.3-8.4-2.2-12
		c-0.9-3.6-2-7.1-3.1-11.1c-3.4-1.7-7.3-2.8-10.2-4.9c0-0.4,0-0.8,0-1.2c0.7-0.8,0.1-3,0.3-4.3c0-2.3,0-4.5,0-6.8c0-2.1,0-4.1,0-6.2
		c0.7-0.8,0.1-3,0.3-4.3c0-2.3,0-4.5,0-6.8c0-2.1,0-4.1,0-6.2c0.7-0.8,0.1-3,0.3-4.3c0-2.3,0-4.5,0-6.8c0.6-7.8,0.4-14,2.8-19.1
		c2-4.4,7.3-7.2,10.2-11.4c2.1-3,2.8-6,4.9-8.9c7.5-0.7,13.8-2.7,21.3-3.4c2.6,2.9,6.2,4.9,9.6,7.1c4.3,10.3,5.3,21.2,8.3,32.1
		c3.1,11,10.3,20.7,10.5,34.3c-1.8,3.6-3.3,7.4-4.9,11.1c-3.3,1.2-6.5,2.4-9.6,3.7c-0.5,4.2-1.8,9.1-1.2,13.3
		c6.1,5.5,16.9,4.2,26.2,6.8c4.7,1.3,8.3,3.9,12.3,4.9c6.9,13.7,12,29.2,21.6,40.1c8.1,0.6,16.5,1,24.4,1.9c0,0.7,0,1.4,0,2.2
		c-0.7,1.4-0.1,4.2-0.3,6.2c0,2.7,0,5.3,0,8c-2.7,0-5.4,0-8,0c-1.1,0.2-3.1-0.4-3.7,0.3c-2,0-3.9,0-5.9,0c-1.1,0.2-3.1-0.4-3.7,0.3
		c-1.9,0-3.7,0-5.6,0c-1.2,0.2-3.3-0.4-4,0.3c-7.9,0.6-14.3,2.6-21.9,3.4c-5.1,0-10.3,0-15.4,0c-3.1-2.4-5.1-5.8-8.6-7.7
		C2238.1-20.3,2234.9-20.3,2233.9-19.8z"/>
	<path id="Jung-gu" fill="#C8C8C8" d="M2315.4,5.2c-2.4,4.6-4.4,9.6-8.3,12.7c-1.8,1.5-3.4,3.2-4.9,4.9c-0.2,0.1-0.3,0.3-0.6,0.3
		c-1.4,1.4-3.1,2.4-4,4.3c-2.5,7.1-5.9,13.2-8.9,19.8c-4.9-1.9-8.1-5.5-13.3-7.1c-0.6-0.7-2.6-0.1-3.7-0.3c-1.9,0-3.7,0-5.6,0
		c-0.6-0.7-2.6-0.1-3.7-0.3c-11,1.6-12.3-6.4-18.2-9.9c-1.4-0.7-4.2-0.1-6.2-0.3c-1.4,0.2-3.7-0.4-4.6,0.3c-2.1,0-4.1,0-6.2,0
		c-1.7,0.2-4.1-0.4-5.2,0.3c-8.3,0.7-16.9,1.3-25,2.2c-1.9-8.2-4.5-15.7-7.4-22.8c5.7-4.5,12-8.3,15.4-15.1c7.9-2,15.2-3.9,21.9-7.4
		c4.1-2.1,5.6-5.1,12-4.3c2.4,2.7,5,5.3,7.7,7.7c14.9,2,26.1-2.5,39.2-3.4c1.1-0.2,3.1,0.4,3.7-0.3c1.9,0,3.7,0,5.6,0
		c1.2-0.2,3.3,0.4,4-0.3c1.9,0,3.7,0,5.6,0c1.2-0.2,3.3,0.4,4-0.3c1.9,0,3.7,0,5.6,0c0.5,0,1,0,1.5,0c0,1.7,0,3.5,0,5.2
		c0,1.9,0,3.7,0,5.6c-0.7,0.6-0.1,2.6-0.3,3.7C2315.4,1.9,2315.4,3.6,2315.4,5.2z"/>
	<path id="Jungnang-gu" fill="#C8C8C8" d="M2480.8-148.2c2.9,4.8,11.3,4.1,16.7,6.5c-1.4,7.4,7,9.8,8,15.1c1.1,5.6-2.9,9.2-3.4,14.8
		c-2.7,2.6-5.9,4.6-8,7.7c0,0.2,0,0.4,0,0.6c-0.5,2.4-0.5,6.9,0,9.3c0.4,2.4,2.1,3.6,2.8,5.9c0,2.1,0,4.1,0,6.2
		c-6.5,4.6-1.9,12.5-4,20.1c-1.1,3.9-9.7,9.1-11.7,12.7c-1,1.7-0.8,3.9-1.5,5.2c-2.1,4-9.6,6.4-10.2,10.8c-0.3,2.2,1.6,3.8,2.5,5.6
		c0,1.4,0,2.9,0,4.3c-0.4,0.2-1.6-0.4-1.5,0.3c-10.1-1.8-14.8,5.1-22.2,6.8c-7.3,1.7-14-0.2-22.5,1.5c-2.9-38.9-10-73.5-9.6-115.7
		c7.3-3.2,14.2-7.1,21.6-10.8c3.7-1.9,6.5-3.7,12-3.4c1-0.2,2.9,0.4,3.4-0.3c1.6,0,3.3,0,4.9,0c1-0.2,2.9,0.4,3.4-0.3
		c1.6,0,3.3,0,4.9,0c1-0.2,2.9,0.4,3.4-0.3C2474.7-145.2,2477.4-147,2480.8-148.2z"/>
	<path id="Mapo-gu" fill="#C8C8C8" d="M2038.2-80.6c4.1,3.7,4.1,11.6,12.3,11.1c3.7,8.3,10.9,11.9,17.9,17.3
		c4.5,3.5,9.5,6.6,13.6,10.2c7.8,6.8,13.7,16,20.7,22.2c3.4,3.1,7.7,5.5,11.1,8.9c1.4,1.7,3,3.2,4.6,4.6c0.3,0,0.4,0.2,0.6,0.3
		c1.5,1.8,3.2,3.4,4.9,4.9c1.4,1.7,3,3.2,4.6,4.6c0.3,0,0.4,0.2,0.6,0.3c1.4,1.7,3,3.2,4.6,4.6c1.4,1.4,2.4,3.1,4.3,4
		c8.1,1,20.5,2.1,29.6,3.1c3.5,0.4,7.4,1.5,9.9,0.9c4-0.9,5.7-5.9,9.9-6.5c1,3.7,3.1,7,4.3,10.8c1,3,3.2,9.5,3.1,12.3
		c-0.1,2.8-3.1,11.9-4,14.2c-3.1,7.7-8.2,13.4-13,19.1c-6.4,7.7-14.1,15.1-21,21c-1.8-1.5-3.1-3.5-4.9-4.9c-1.9-1.5-3.7-2.9-5.6-4.3
		c-3.6-2.8-7.2-6-11.1-8.3c-12.3-7.2-25.6-12-38.9-17c-6.2-2.3-12.7-5.8-19.1-9c-6.3-3.1-13.3-5.7-18.8-9.3
		c-4.1-2.7-8.2-7.2-12.3-10.8c-10.5-9.1-20.7-17.6-30.9-26.8c-2-1.8-4.9-3.8-6.2-5.6c-2.4-3.2-3-7.7-4.9-11.1
		c-1.7-3.1-4.8-6.3-7.4-9.3c-4.2-4.9-7.6-10-13.3-12.7c0-0.1,0-0.2,0-0.3c5.1-1.7,10.2-9.4,15.4-10.5c5.6-1.2,11.5,0.5,18.2-0.6
		c2.1-2,4.6-4.4,7.1-7.1c1.9-2.1,5.8-5.4,6.5-7.7c0.4-1.4-0.1-3,0.3-4.3C2032.3-75.8,2036.1-77.2,2038.2-80.6z"/>
	<path id="Nowon-gu" fill="#C8C8C8" d="M2458.3-252.2c-0.3,2.8-2.3,3.5-2.8,6.2c-0.5,2.5,0.2,11.4,0.9,14.2c0.5,2,4.2,9,5.6,9.9
		c3.7,2.3,9.9,0.9,14.5,1.9c5,1.1,9.2,3.4,13.6,4.6c1.7,6.9,0.1,12.8,1.9,18.8c1.3,4.7,6,7.8,4.3,14.8c-2,2.8-3.3,6.2-5.6,8.6
		c-2.8,1-5.4,0.3-7.7,1.5c-1.9,1-4.9,5.8-5.2,8.6c-0.5,4.1,1.4,7.8,3.7,10.2c-0.4,0.8-1,1.5-0.9,2.8c-3.6,0.9-6.3,2.8-11.4,2.2
		c-1,0.2-2.9-0.4-3.4,0.3c-1.6,0-3.3,0-4.9,0c-1,0.2-2.9-0.4-3.4,0.3c-1.6,0-3.3,0-4.9,0c-1,0.2-2.9-0.4-3.4,0.3
		c-7.5,0.1-13.5,4.6-19.1,7.4c-5.3,2.6-10.2,4.6-14.8,7.4c-7.1-1.8-14.6-3.3-21.6-5.2c-10.6-13.9-21.5-29.1-29.9-44.1
		c4.1-0.3,8.7-0.1,12.3-0.9c1.9-5.8,1-12.6,2.2-18.2c0.9-4.2,3.7-8.6,4.6-13.3c1.4-6.7,1.1-15.1,1.9-22.8c0.3-3.5,0.9-7.4,1.2-11.1
		c0.3-3.6,1.1-7.9,0.6-10.8c-0.6-4.2-3.3-8.6-4.9-13c-1.6-4.1-4.5-9-4.9-13c-0.3-2.3,0.6-5.2,0.9-8c0.3-2.6,0.1-5.6,0.6-8
		c1.3-6.4,5.6-13.2,7.1-20.4c1.3-6.2,0.3-13.4,1.9-18.8c3.6-5.7,9.7-5.3,16.4-8.9c2.2-1.2,5.5-3.8,7.4-5.6c1.9-1.8,3.5-5.2,5.2-5.9
		c2-0.8,6.4-1.1,8.6-0.6c1.9,0.4,4,3,6.2,4.6c4.9,3.8,8.1,6,12.7,9.6c2.1,1.6,4.2,4.1,6.2,4.9c5.2,2.2,9.6,1,15.7,3.4
		c2.7,9.5-1.2,12.1-4.9,17.6c-2,3-5.2,6.6-5.2,9.6c0,2.7,3.4,8.3,4.6,10.2c2.1,3,7.6,7,8.6,10.5c1.4,4.9-0.3,9.3,0.9,16
		c-2,2.9-9.7,4.2-11.1,7.4c-1.1,2.5,0.2,5.8-0.3,9.9C2458.1-255.6,2457.5-253.2,2458.3-252.2z"/>
	<path id="Seocho-gu" fill="#C8C8C8" d="M2287.3,107.4c3,7.6,9.5,14.6,12,23.1c1.1,3.7,1.5,8.3,2.2,12.3c0.7,4.2,0.4,9.2,1.9,12.7
		c1.8,4.2,8.3,6.8,9.6,10.8c1.3,4,0.5,9.8,0.9,14.8c0.8,10.3,1.3,20.1,6.8,25.3c1.3,1.6,2.8,3,4.3,4.3c1.4,1.7,3,3.2,4.6,4.6
		c3.2,2.7,8.1,3.6,11.7,5.9c3,3.2,6,6.3,9.3,9.3c3.8,15.4,5.3,33.2,13.9,43.8c7.8-2.3,17-5.8,27.5-6.5c1.5-2,3-3.9,4.6-6.5
		c1.3-2,2.1-5.3,4.3-6.8c4.9-3.4,18.8-6.4,26.2-3.4c2.3,0.9,3.5,3.5,5.6,4.3c0.7,0.5,0.7,1.8,0.6,3.1c0.2,0.9-0.4,2.7,0.3,3.1
		c0,1.3,0,2.7,0,4c0.2,1.5-0.4,3.9,0.3,4.9c0,0.4,0,0.8,0,1.2c2.2,3.4,5,6.1,7.1,9.6c6.7,3.3,12.1,8.1,16,14.2
		c-3.4,2.1-10.9,1.7-13,4.9c-1.6,2.4,0.2,5.4-0.3,8.6c-0.5,3.4-3.6,6.5-3.4,9.6c-3.9,1.1-9.8,0.1-12,2.8c-1.8,5.1-2,10-6.5,12.3
		c-2.8,1.5-8.8,2.2-12.7,3.1c-3.7,0.8-10.6,1.4-12.3,3.4c-2.1,2.4-1.8,8.2-2.5,11.7c-0.8,4.4-1.7,7.9-2.8,11.4c-4.1,0-8.2,0-12.3,0
		c-5.1-0.4-9.2-1.8-14.2-2.2c-6.2-3.9-13.4-9-20.1-13.3c-2.4-1.5-7.7-3-6.8-6.5c0.5-1.1,0.5-4.4,0-5.6c-1.6-10.2-4.7-19-7.1-28.4
		c0-1.1,0-2.3,0-3.4c0-1,0-2.1,0-3.1c0-3.6,0-7.2,0-10.8c0.7-1.1,0.1-3.6,0.3-5.2c-0.2-2.3,0.4-5.3-0.3-7.1c0.4-5.5-5.1-4.7-9.3-5.6
		c-3.7-0.7-6.4-2.3-9.6-1.9c-2.9,0.4-7.1,4.2-10.2,6.2c-3.3,2.1-7.6,3.9-10.2,6.2c-4.4,3.9-7,9.9-10.5,12.7c-2.9,0.5-7.9,0.5-10.8,0
		c-3.5-3.2-0.7-9-1.5-13.6c-0.5-2.5-4.5-6.8-6.2-7.4c-1.4-0.5-5.4-1-8,0c-2.6,1-2.6,4.1-4.9,5.9c-7.6-9.5-12-22.2-17.9-33.3
		c-0.2-4.1,0.4-9.1-0.3-12.7c-2.9-9.4-2.5-18.2-0.9-29.3c0.9-6,1.6-12,2.8-16.7c0.7-2.5,2.6-5,2.5-7.4c-0.1-3-2.6-5.9-3.7-8.3
		c-1.4-3-2.3-5.6-3.7-8.3c-4.4-0.7-9.2-0.9-14.2-0.9c-1-3.4-1.8-6.8-2.5-10.5c12.3-0.3,22.2,0.8,30.9-2.8c4-1.7,8.2-6.7,11.7-9.9
		C2266.2,129.7,2277.5,118.5,2287.3,107.4z"/>
	<path id="Seodaemun-gu" fill="#C8C8C8" d="M2191.9-16.4c3.3,3.7,7.6,6.4,10.8,10.2c-5.6,10-17.3,13.8-25.6,21
		c-8.4-0.9-18.6-2.1-28.1-3.1c-5.5-0.6-10.4-0.1-12.7-3.7c-1.5-1.8-3.2-3.4-4.9-4.9c-1.4-1.7-3-3.2-4.6-4.6
		c-0.2-0.1-0.3-0.3-0.6-0.3c-1.5-1.8-3.2-3.4-4.9-4.9c-1.4-1.7-3-3.2-4.6-4.6c-8.1-5.4-15.7-13.5-22.5-21c-2.5-2.8-9-7.3-9.6-10.5
		c-0.3-1.6,1-10.3,1.9-12.3c0.6-1.4,1.8-2.3,2.8-3.1c1.2-0.9,2.2-1.9,3.1-3.1c0-0.1,0-0.2,0-0.3c1.3-1,2.4-2.1,3.4-3.4
		c0.8-1,1.3-2.2,3.4-1.9c3.4,0,6.8,0,10.2,0c2-0.2,4.7,0.4,6.2-0.3c4,0.1,7.8,0,11.4-0.3c3.9-3.8,6.4-9,8.3-14.8
		c6.7-1.6,12.2-4.5,18.2-6.8c1.5-6.6,4-12.3,7.1-17.3c5.1-2.4,8.3-7.3,16.7-5.6c0,0.3,0,0.6,0,0.9c-0.7,1.6-0.1,4.6-0.3,6.8
		c0,2.4,0,4.7,0,7.1c2.7,2.7,7.2,3.7,10.8,5.6c1.8,6.9,3.6,13.9,4.9,21.3c-2.7,8.2-5.3,17.9-8,27.2c-0.9,3.2-2.7,6.4-2.8,9
		c-0.1,3.9,2.7,7.2,3.4,11.1c1,1.3,2.1,2.4,3.4,3.4C2189.5-18.5,2190.7-17.4,2191.9-16.4z"/>
	<path id="Seongbuk-gu" fill="#C8C8C8" d="M2239.7-198.8c2.9,2.1,4.1,7.1,7.1,9.3c4,2.8,9.7,2.5,14.2,4.9c2.7,1.5,5.4,4.1,8,6.2
		c8.1,6.2,16.2,12.7,23.8,18.8c2.3,9.8,4.8,19.5,7.1,29.3c3.8,2,6.3,5.4,13,4.6c2.2,0,4.3,0,6.5,0c1.2-0.2,3.3,0.4,4-0.3
		c2,0,3.9,0,5.9,0c2.2,0,4.3,0,6.5,0c1.2-0.2,3.3,0.4,4-0.3c8.9,1.2,11.6-3.8,17-6.2c5.2-10.2,10.6-20.1,16-29.9
		c3.2,4,6.1,8.7,9.6,13.6c2.3,3.2,6.8,11.5,10.2,13.3c6,3.2,14.5,2.2,21.3,5.6c0,1.4,0,2.9,0,4.3c-0.7,4.8-0.1,11-0.3,16.4
		c-14.9,4.9-33.9,5.6-44.4,14.8c-2.4,2.1-4.7,4.4-6.8,6.8c-3.5,5.3-6.2,11.5-9.6,17c-8.8,3-14.1,6.6-20.7,11.7
		c-2.1,1.6-5.1,2.8-6.2,4.6c-1.9,3.1-1.6,8.6-3.4,12.3c-0.7,1.5-4.9,6.8-6.2,7.1c-3.1,0.8-7.7-0.7-11.4-0.9
		c-3.8-0.3-7.6-0.5-11.7-0.6c-9.8-10.9-14.2-27.1-21.9-40.1c-4.4-0.9-7.9-4-13-5.2c-8.9-2.2-19.1-1.2-24.7-5.9
		c0.2-3.8,0.8-7.3,1.2-10.8c3.3-0.9,6.2-2.3,9.3-3.4c1.2-4.7,4.7-7.9,5.2-12.7c1-9-3.1-16.1-5.6-22.5c-1.5-3.9-3.4-7.9-4.6-12
		c-3.4-11.5-4.7-23.4-8.6-33c-3-2.2-6.7-3.6-9-6.5c4-1.1,8.1,0.6,11.1-0.6C2236.5-190.8,2236.7-196.6,2239.7-198.8z"/>
	<path id="Seongdong-gu" fill="#C8C8C8" d="M2329.2-8.1c1.3,0,2.7,0,4,0c3.3-2,2.6-7.9,9-6.8c0.4,0.7,2.1,0.1,3.1,0.3
		c5.8-0.1,11.1,0.4,16.7,0.6c1.6,4.5,2.9,9.2,4.3,13.9c15.2,5.3,31,10,45.1,16.4c-2.8,16.9-5.2,30.6-12.7,42.3
		c-2.5,4-7.3,7-8.6,11.1c-1,3.2-0.4,6.8-0.9,9.9c-0.9,5.6-2.9,10.4-4,16c-13-6.6-26.1-16.5-42.9-20.4c-3.5-0.8-8.4-0.7-12.7-0.9
		c-12.6-0.7-21.5,0.6-32.4,3.1c-2.4-9.6-4.8-19.2-7.4-28.7c3.9-6.4,6.5-14.1,10.2-20.7c1.7-1.4,3.2-3,4.6-4.6
		c1.8-1.5,3.4-3.2,4.9-4.9c3.7-3.2,5.4-8.4,8-12.7c0.7-1,0.1-3.4,0.3-4.9c0-1.7,0-3.5,0-5.2c0.7-0.7,0.1-2.8,0.3-4
		c0-1.5,0-3.1,0-4.6c3,1.2,3.7,4.7,8,4.6C2326.6-7.7,2328.3-8.3,2329.2-8.1z"/>
	<path id="Songpa-gu" fill="#C8C8C8" d="M2494.4,58c2,1.6,3.4,3.8,4.9,5.9c2.4,0.3,4.9,0.4,7.7,0.3c3.9,6.4,0.4,16.3-2.2,23.1
		c-0.9,2.4-3,5.7-2.8,7.4c0.5,3.6,8.4,6.1,9.9,9.3c2.7,5,4.2,11.2,7.4,15.7c3.7,1.2,8.8,1,13.3,1.5c3.6,3.6,7.7,6.7,14.5,7.1
		c-1.7,3.9-4,6.8-6.5,10.8c-1.4,2.3-6.3,8.6-5.9,11.7c0.4,2.6,4.4,3.1,5.2,6.2c0.9,3.5-0.6,5.1,0,9.6c6.2,9,20.9,9.5,31.8,13.9
		c1.3,0.7,4,0.1,5.9,0.3c0.7,2.2,0.1,5.7,0.3,8.3c-7.3,2.2-11,5.3-13,12.7c-1.4,5.2-0.7,12-2.5,17c-1.4,3.9-4.5,5.9-6.2,9
		c-3.6,1.7-7.7,0.9-10.2,3.1c-1.3,1.2-3.4,7.6-4.3,10.8c-0.7,2.4,0.7,5.4,0.3,7.4c-0.5,2.3-3.1,3.5-4.3,4.9
		c-1.5,0.2-3.9-0.4-4.9,0.3c-4.6,0.5-8.3-0.9-11.1,0.6c-2.3,1.2-3.4,6-4.6,8.6c-1.6,3.5-2.9,6.6-4.3,8.9c-3.7-9-8.4-17.4-13.6-25
		c-1.8-2.6-4.4-5.1-5.2-7.7c-2.3-6.9-1.4-14.9-4-22.5c-5.8-4.4-12.7-7.9-18.5-12.3c-0.9-2.7-1.6-5.6-2.5-8.3c-1.7-2-3.6-3.8-5.6-5.6
		c-8.1-2.5-18.1-2.1-25.6-4.6c-2.5-0.9-5.3-3-8-4.3c-6.2-3.1-10-5.1-14.8-8.9c-2.1-1.7-4.9-3.6-6.2-5.2c-2.6-3.4-3.4-7.9-5.9-12
		c-0.2-1.3,0.4-3.5-0.3-4.3c0-1.7,0-3.5,0-5.2c0-2.1,0-4.1,0-6.2c-0.2-1.1,0.4-3.1-0.3-3.7c0-1.9,0-3.7,0-5.6c0-2.1,0-4.1,0-6.2
		c-0.2-1.1,0.4-3.1-0.3-3.7c0-0.5,0-1,0-1.5c2.4,0.4,4.5,1.1,7.4,0.9c1.4,0,2.9,0,4.3,0c2.1,0,4.1,0,6.2,0c0.9-0.2,2.7,0.4,3.1-0.3
		c2.8,0,5.6,0,8.3,0c1-0.2,2.9,0.4,3.4-0.3c5.3-1.3,11.4-1.6,16.7-3.7c4.7-1.9,6.9-5.5,9.9-9.3c5.1-6.6,10.1-13,15.1-19.4
		c3.4-4.4,7.4-8.5,9.9-13C2489.4,68.8,2491.6,62.8,2494.4,58z"/>
	<path id="Yangcheon-gu" fill="#C8C8C8" d="M1912.6,55.5c1.7-3.1,3-6.7,5.2-9.3c4.1,0.4,7.4-1.6,10.5-0.9c1.4,0.3,4.5,3.1,5.2,4.3
		c1.2,1.9,1.9,4.9,3.1,7.7c3,7.1,7.3,16.4,9.6,22.8c4.1,4.1,9.3,5.9,16.7,7.4c3.2,0.7,6.6,1.8,9.3,1.5c6.2-0.6,11.6-5.1,16.7-6.5
		c1.3-5.8,7.8-11.4,9.3-16.7c1.7-6.1-0.3-13.4,1.2-18.8c1-3.4,3.5-5.2,5.2-8c3.9,0.3,6.7,1.8,9.9,2.8c3.4,0.9,8.9-0.3,12.3,0.6
		c4.1,7.5,6.2,16.1,10.2,23.5c1.1,2,3.3,3.6,4,5.9c1.1,3.6-0.1,7.1,0.9,10.8c-5.4,5.2-11.7,9.5-17,14.8c0,3.1,0,6.2,0,9.3
		c-0.7,2.6-0.1,6.5-0.3,9.6c0,5.1,0,10.3,0,15.4c-1.4,7.7-5.5,12.6-8,19.1c-0.5,0.8-2.7-0.2-3.1,0.6c-8.8,0.3-18.4,1.8-23.5-2.8
		c-1.6-4.4-3-9.1-4.6-13.6c-2.7-0.5-5.7-0.7-8.9-0.6c-0.5-0.7-2.4-0.1-3.4-0.3c-1.5,0-3.1,0-4.6,0c-6.7,5.4-12.2,12-19.8,16.7
		c-2.6,0-5.1,0-7.7,0c-1.4,0.2-3.7-0.4-4.6,0.3c-1.2,0-2.5,0-3.7,0c-1.1-3.3-2.2-6.6-3.7-9.6c-5.9-1.1-11.9-2.1-17.9-3.1
		c1.2-4.7,7-11.7,7.7-16.7c1.1-7.3,0-17.2,0-26.5c0-9.4,1.3-19.6,0-26.8C1917.8,63.1,1913.4,59.2,1912.6,55.5z"/>
	<path id="Yeongdeungpo-gu" fill="#C8C8C8" d="M2027.4,97.8c2.4-2,5.1-4.4,8.3-7.1c2.2-1.8,7.3-4.7,8-7.4c1-3.6-1.2-7.2-0.6-12
		c-4.4-5.4-6.5-11.6-9.6-18.8c-3.1-7.1-6.8-12.5-6.5-22.2c7.8,5.4,13.5,13.4,21.6,18.8c3.9,2.6,8.8,4.3,13.3,6.5
		c13,6.5,26.3,13.9,41,18.2c2.6,12.4,3,25,7.7,34.6c3.3,6.8,9.9,9.7,15.7,13.9c0,0.1,0,0.2,0,0.3c-6.1,9.6-12,19.4-16.7,30.6
		c0.1,13-2.5,23.4-6.8,32.1c-5.7,1.6-13.9,1.6-18.8,4c-1.8,0.9-8.3,6.7-8.9,8.3c-1.9,4.5-0.3,10.6-2.5,16c-1.6,0.1-2.4,0.9-3.7,1.2
		c-4.3-2.6-8.3-5.5-12.3-8.3c0-0.7,0-1.4,0-2.2c-0.2-1,0.4-2.9-0.3-3.4c0-1.6,0-3.3,0-4.9c-0.2-1,0.4-2.9-0.3-3.4c0-1.7,0-3.5,0-5.2
		c-0.2-1,0.4-2.9-0.3-3.4c1.6-6.8-3.6-7.7-4.9-11.7c-1.5-4.3-1.2-9.6-2.5-14.5c-1.2-4.8-2.3-9.4-3.4-13.9c-5.8-3.6-12-6.9-17.9-10.5
		c0-5.2,0-10.5,0-15.7c0-4.5,0-9.1,0-13.6C2027.8,102.5,2027.2,99.8,2027.4,97.8z M2158.3,114.8c-12.9-14.6-26.1-28.8-45.7-36.7
		c1.3,9.5,2.8,18.8,5.9,26.5c3.5,3.2,8,9.1,13,10.5c6.3,1.8,13.1,0.4,21,0.6C2153.5,114.6,2158.7,116.3,2158.3,114.8z"/>
	<path id="Yongsan-gu" fill="#C8C8C8" d="M2244.4,32.7c5.3,3.6,7.2,10.6,17.6,9c0.6,0.7,2.6,0.1,3.7,0.3c1.9,0,3.7,0,5.6,0
		c0.6,0.7,2.6,0.1,3.7,0.3c5,2,9.1,4.9,13.3,7.7c1.8,9.7,5.3,19.3,6.8,28.4c-10.9,6.7-20.5,17.4-29.9,27.8
		c-7.2,7.9-14.3,14.1-21.9,21.3c-4.6,4.3-6.7,7.4-13.6,8c-8,0.8-22.5,1-28.4-1.2c-3.6-1.4-6.7-5.9-9.3-8.9c-3-3.5-5.8-6.6-8.3-9.9
		c-1.3-2.1-3.2-3.6-4.9-5.2c-1.3-0.4-1.9-1.6-2.8-2.5c-1.2-1.5-2.5-2.8-4-4c-1.1-1.4-2.3-2.6-3.7-3.7c-3.4-3.3-6.4-7-9.6-10.5
		c16-15.4,33.1-29.7,38.6-55.6c8.5-0.4,16.4-1.5,25-1.9c1.7,0,3.5,0,5.2,0c1.4-0.2,3.7,0.4,4.6-0.3c2.1,0,4.1,0,6.2,0
		C2240.4,31.9,2243.5,31.2,2244.4,32.7z"/>
</g>
<g display="none">
	
		<text transform="matrix(1 0 0 1 1463.0767 332.0918)" display="inline" fill="#939598" font-family="'HelveticaNeue-Bold'" font-size="5.1197">Kleifarvatn</text>
	
		<text transform="matrix(1 0 0 1 1376.8916 354.1055)" display="inline" fill="#939598" font-family="'HelveticaNeue-Bold'" font-size="5.1197">Seltún Geothermal Area</text>
	<circle display="inline" fill="#A8AAAD" cx="1458.4" cy="333.7" r="3"/>
	<circle display="inline" fill="#A8AAAD" cx="1441.3" cy="350.5" r="3"/>
</g>
<g id="trail-path" display="none">
	<path display="inline" fill="none" stroke="#010101" stroke-width="5" stroke-miterlimit="10" d="M1445.6,141.4
		c-1.1,65.8-39.5,124.5-76.6,178.9c-6.9,10.1-13.8,20.2-21.5,29.7c-5.5,6.8-11.4,13.2-16.7,20.1c-26.2,34-37.1,77.1-47.4,118.8
		c-10,40.6-20,81.1-29.9,121.7c-1.1,4.6-2.2,9.6-0.4,13.9c1.8,4.4,6.1,7.2,10.2,9.7c10,6.1,20,12.2,30,18.3
		c5.2,3.2,10.7,6.4,16.8,6.5c5.8,0,11-2.9,16.3-5.4c38.1-18,82.9-13.8,123.5-25.1c34.2-9.5,64.3-29.5,93.8-49.2
		c71.8-48,143.6-96,215.4-144"/>
</g>
<g id="camera-path" display="none">
	<path display="inline" fill="none" stroke="#EC2227" stroke-width="3" stroke-miterlimit="10" d="M1414.6,140.8
		c-14,40.3-28,80.6-41.9,120.9c-12.6,36.2-25.2,72.5-34.5,109.7c-11.2,44.6-17.7,90.5-19.3,136.4c-0.1,2.7-0.5,5.9-2.9,7.1
		c-2.4,1.2-5.3-3.2-2.8-4c-6.1,53.1,4.4,108,29.5,155.1c2.2,4.2,4.7,8.4,8.6,11.1c5.2,3.5,12,3.4,18.3,2.9c18-1.4,35.8-5.1,53.5-8.9
		c7.3-1.5,14.5-3.1,21.8-4.6c23.2-4.9,46.9-10,67.2-22.3c13.4-8.1,24.8-19.2,36.1-30.1c13.5-13.1,27-26.2,40.5-39.3
		c22.8-22.1,45.8-44.4,62-71.7c16.2-27.2,25.1-60.3,17.2-91"/>
</g>
<g id="points" display="none">
	<circle id="도봉구" display="inline" fill="#405B54" cx="1443.3" cy="164.9" r="3.9"/>
	<circle id="Seongbuk-gu" display="inline" fill="#405B54" cx="1371.6" cy="321.7" r="3.9"/>
	<circle id="Dongjak-gu" display="inline" fill="#405B54" cx="1272.6" cy="539.4" r="3.9"/>
	<circle id="Seocho-gu" display="inline" fill="#405B54" cx="1404.2" cy="637.5" r="3.9"/>
	<circle id="Songpa-gu" display="inline" fill="#405B54" cx="1542.2" cy="584.7" r="3.9"/>
	<circle id="Gangdong-gu" display="inline" fill="#405B54" cx="1717.6" cy="464.5" r="3.9"/>
</g>
</svg>
