<?xml version="1.0" encoding="utf-8"?>
<!-- Generator: Adobe Illustrator 18.1.1, SVG Export Plug-In . SVG Version: 6.00 Build 0)  -->
<svg version="1.1" id="Layer_1" xmlns="http://www.w3.org/2000/svg" xmlns:xlink="http://www.w3.org/1999/xlink" x="0px" y="0px"
	 viewBox="0 0 1984 1209" enable-background="new 0 0 1984 1209" xml:space="preserve">
<g opacity="0.4">
	<path id="Dobong-gu" fill="#C8C8C8" stroke="#000000" stroke-miterlimit="10" d="M1623.8,48.8c-1.2,8-0.2,16-1.7,24.3
		c-1.9,10-8,19.4-10.2,29.6c-0.7,3.6-1,8.3-1.2,12.4c-0.5,4.1-1.7,9-1.2,12.4c0.7,5.8,5.1,12.4,7.5,18.5c1.9,5.1,6.6,14.1,7,18.9
		c0.5,4.4-1,10.2-1.2,15.5c-0.5,5.1-1.2,10.4-1.7,15.5c-1,10.9-0.7,22.3-2.7,31.8c-1.5,6.8-4.9,12.6-6.1,18.9
		c-1.5,7.5-1.2,16.3-2.7,24.3c-6.1,0-11.9,0.2-17.2,1c-13.1-16.8-27.9-34.7-42.7-51.2c-4.4-4.6-10-14.1-15.5-16.3
		c-6.1-2.4-15.5,0-19.4-6.1c-3.9-4.4-8-8.5-12.4-12.4c-0.2-1-1.2-1-1.2-1.7c-3.4-3.9-7-7.5-10.9-10.9c-2.2-8.5,2.2-14.3,3.2-21.1
		c1-1.5,0.2-4.9,0.5-7c0-3.6,0-7.3,0-10.9c-1.7-11.9,2.7-22.3,2.2-32.5c-0.5-10.9-4.6-20.9-5.3-32.1c10.4-1.2,6.8-18.7,8-31.3
		c0.7-7.3,4.9-12.4,5.8-17.2c8.7-3.9,19.9-5.8,33.5-4.9c1.9-0.2,5.1,0.5,6.1-0.5c2.9,0.5,7-0.7,9.2,0c8.3,2.7,3.2,18.5,8.7,22.1
		c3.9,2.4,12.4,1.2,18.2,1.2c6.6,0.2,12.6,0.5,18.5,1C1606,43,1610.4,50.5,1623.8,48.8z"/>
	<path id="Dongdaemun-gu" fill="#C8C8C8" stroke="#000000" stroke-miterlimit="10" d="M1605.3,399.3c15.3-11.2,40.3-12.6,61-18.9
		c4.1,44.7,9,88.9,13.6,133.1c-5.8,13.1-10.9,27-16.8,40.1c-20.2-8.5-41.5-15.5-62.9-22.3c-1.7-6.8-3.6-13.6-6.1-19.9
		c-1-1.2-3.6-1-5.8-1c-0.5-1-2.9-0.2-4.4-0.5c-4.4,0.2-8.7-0.2-13.4-0.5c-4.6-0.2-10-1.5-13.4-0.5c-4.4,1.5-3.9,7.5-8,9.7
		c-1.2,0-2.7,0-3.9,0c-0.5-1-2.9-0.2-4.4-0.5c-6.1-0.5-8-5.3-11.9-8c0-1.7,0-3.6,0-5.3c1-1,0.2-3.9,0.5-5.8c0-2.9,0-5.8,0-8.7
		c-1.5-7.8,5.8-10.7,8.5-15.8c2.9-5.8,2.2-11.4,4.9-17.5c11.7-8.5,22.8-17.5,37.9-22.3c5.3-8.3,8.7-18.5,15.1-25.5
		C1599,406.1,1602.2,402.7,1605.3,399.3z"/>
	<path id="Dongjak-gu" fill="#C8C8C8" stroke="#000000" stroke-miterlimit="10" d="M1258.3,709.7c11.2,1.5,23.1,2.2,35.7,1.2
		c5.1-0.2,11.2,0.5,15.5-0.5c1.7,0,2.9-0.5,3.9-1c5.8,6.1,11.4,12.6,17.2,19.4c5.3,6.3,11.4,14.3,18.9,18.2
		c6.8,3.4,15.5,2.7,24.8,4.9c1.5,5.8,2.2,12.1,4.4,17.2c6.1,1.5,14.1,0.7,20.4,1.7c3.6,6.8,6.8,14.3,10.2,21.6
		c-3.6,10-6.8,22.3-8.5,36.2c-1.9,15.5-1.7,28.2,1.7,39.6c-6.8,3.2-12.1,7.8-23.8,6.1c-2.7,0-5.3,0-8,0c-3.6-2.7-7-5.8-10.9-8.7
		c-3.2-2.7-8.5-5.6-10.7-9.2c-3.2-5.8-3.6-14.3-5.3-21.1c-1.7-7-3.9-13.8-5.8-20.6c-10.9-3.9-20.6-9.2-32.5-12.4
		c-6.8,0-13.8,0-20.6,0c-4.4,0.2-9.7-0.5-13.4,0.5c-5.8,0-11.7,0-17.5,0c-4.9,0.2-10.9-0.5-15.1,0.5c-4.1,3.6-4.4,11.2-7.5,15.8
		c-7.3,5.3-17.2,2.7-26,5.3c-8.3,2.7-14.8,12.1-23.3,11.9c1.2-6.6,1.9-13.4,3.2-19.9c4.4-2.7,6.8-7.8,11.9-10.2
		c7.8-3.4,18-3.4,27-6.1c2.2-7.8,7-14.3,8.7-22.3c1.5-7.5-0.2-15.1,1.2-23.3c0.5-2.9,2.9-6.3,4.4-9.7
		C1244.2,731.3,1251.2,719.1,1258.3,709.7z"/>
	<path id="Eunpyeong-gu" fill="#C8C8C8" stroke="#000000" stroke-miterlimit="10" d="M1281.3,195.3c6.8,1,8.3-2.2,11.4-5.8
		c6.3-6.8,11.9-15.1,15.8-22.3c13.1,10.7,27.2,23.1,40.6,34.7c3.4,2.9,12.1,8.3,13.4,11.9c0.7,2.7-0.5,6.1,0,8c0,4.4,0,8.5,0,12.6
		c0.2,1.9-0.5,5.3,0.5,6.6c1.7,12.6-5.3,16.8-8.5,24.8c0.5,0.2,1,0.5,1,1.2c-4.6,8.5-9,15.5-15.1,22.1c-2.7,2.9-6.8,5.6-8,8.7
		c-2.4,6.3-1.7,13.4-3.9,21.1c-1,1.2-0.2,4.4-0.5,6.1c0,3.4,0,6.3,0,9.7c0,2.9,0,5.8,0,8.7c-1,1.2-0.2,4.4-0.5,6.1
		c0,3.4,0,6.3,0,9.7c0,3.6,0,7.3,0,10.9c-8.7-2.2-12.6,0.2-18.2,3.6c-2.7,1.5-5.8,3.2-7.5,4.9c-6.1,6.1-8.3,16.8-10.7,24.8
		c-8.5,3.4-16.8,7-26,9.7c-2.7,7.5-5.8,14.3-10.2,19.9c-1,1-3.4,0.2-4.9,0.5c-2.9,0.2-6.8-0.5-8.7,0.5c-4.1,0-8.3,0-12.4,0
		c-4.6,0.2-10.7-0.5-14.6,0.5c-2.9-0.2-3.9,1.2-4.9,2.7c-1.9,1.5-3.4,2.9-4.9,4.9c-1.7,1.2-3.2,2.7-4.4,4.4c0,0.2,0,0.2,0,0.5
		c-1.9,1.5-3.4,2.9-4.9,4.9c-1.7,5.6-1.9,12.4-3.2,18.5c-6.3-3.9-12.1-9.2-18.5-14.1c-6.1-4.6-14.1-8.5-18.9-14.1
		c-2.9-3.2-3.6-7.5-7-10.2c-8.7,0-10.2-7-14.1-11.9c9.5,4.4,22.3,5.3,36.7,5.3c5.1-6.1,12.6-12.6,17.5-19.9c4.9-7,8.3-14.8,7-27.2
		c0-2.9,0-5.6,0-8.5c0-6.3,0-12.6,0-18.9c-0.2-4.6,0.5-10.2-0.5-14.1c0-9.2,0-18.2,0-27.2c1.9-3.2,7-4.6,8.5-8.5c1-2.9,0.5-8,1-11.9
		c2.2-27.2,4.4-57.8,7-83.3c10.2,0.5,21.4,0.5,30.4,1c3.4,0.2,7,1.2,10.2,0c6.3-2.7,5.6-15.5,16.8-11.9c0.5,1,2.9,0.2,4.4,0.5
		C1275.7,195.3,1278.4,195.3,1281.3,195.3z"/>
	<path id="Gangbuk-gu" fill="#C8C8C8" stroke="#000000" stroke-miterlimit="10" d="M1487,69.7c1,10.9,5.6,21.4,5.8,32.1
		c0.2,7.8-3.6,15.1-2.7,23.8c-1,1.5-0.2,4.9-0.5,7c0,3.6,0,7.3,0,10.9c1.5,12.6-5.6,17.7-3.2,29.9c1.2,1.5,2.4,2.9,3.6,4.4
		c3.6,3.9,7.5,7.8,11.4,11.4c3.9,4.4,8,8.5,12.4,12.4c3.6,4.4,13.1,3.2,19.4,4.9c26.2,28.7,51.7,57.3,71.9,92
		c-8.3,14.1-15.8,28.7-23.3,43.2c-4.4,2.2-8,5.3-12.4,7.5c-2.7,0.2-6.3-0.5-8.5,0.5c-2.7,0-5.3,0-8,0c-3.2,0-6.1,0-9.2,0
		c-1.9,0.2-5.1-0.5-6.1,0.5c-2.7,0-5.3,0-8,0c-3.2,0-6.1,0-9.2,0c-2.2,0-4.4,0-6.6,0c-2.9-1.7-6.3-2.9-8.5-5.3
		c-3.6-13.6-6.8-28.2-10.7-41.8c-11.2-9.5-23.3-18-34.7-27c-3.9-2.9-7.5-7-11.4-9.2c-6.1-3.4-13.4-3.6-19.9-7
		c-3.6-4.4-6.6-9-10.2-13.4c1.2-2.7,3.4-4.1,3.9-7c1-1.7,0.2-5.3,0.5-8c-0.2-2.2,0.5-5.6-0.5-7c0-4.6,0-9.2,0-13.6
		c0-4.4,0-8.7,0-13.4c-0.2-1.9,0.5-5.3-0.5-6.6c0-4.6,0-9.2,0-13.6c0-4.4,0-8.7,0-13.4c0-1.9,0-4.1,0-6.1
		c5.6-10.2,12.6-20.4,18.5-30.4c1.9-3.4,5.1-7.5,6.1-10.7c3.9-11.2,3.4-23.3,7.5-35.7C1465.2,77.5,1476.1,73.6,1487,69.7z"/>
	<path id="Gangdong-gu" fill="#C8C8C8" stroke="#000000" stroke-miterlimit="10" d="M1804.5,557.1c5.1-6.1,11.9-8.7,19.4-13.6
		c7.8-4.9,12.4-11.4,23.3-11.4c9.5-0.2,19.9,0.5,28.7-0.5c16.3-3.9,25.7-14.3,38.9-22.1c7.8-4.6,17.5-7.8,25.3-12.4
		c0,1.5,0,2.9,0,4.4c0.2,2.2-0.5,5.6,0.5,7c-0.2,9.7,9.7,9.5,15.1,13.6c1.2,1,4.6,0.2,6.6,0.5c1,6.3,1.2,13.1,3.9,17.5
		c-1.7,9.2-9.5,17.5-8.5,28.2c0.5,3.4,4.4,7.3,5.3,11.9c1,5.8-0.5,12.1,0.5,17.2c0.7,3.2,3.9,5.8,4.4,8.5c-2.4,4.4-4.4,8.7-7,12.6
		c-12.4,3.4-23.8,7.5-38.4,12.4c-6.1,1.9-12.4,3.9-18.9,6.1c-5.3,1.7-16.5,3.6-18.9,6.6c-1.9,2.4-1.5,8.7-1.7,14.1
		c-0.2,4.9-0.2,10.2-0.5,14.1c-0.5,4.9-3.6,8.7-6.1,12.9c-6.3,10.4-11.7,18.5-18.2,29.1c-4.6-1.5-8-0.5-11.9-2.2
		c-4.1-1.9-5.8-6.8-9.7-8c-5.3-1.7-11.4-0.2-18.5-1.7c-4.1-7-4.9-15.8-9.2-22.1c-3.6-5.1-10.4-7-13.6-12.4
		c4.6-12.9,14.6-31.1,6.1-44.9c-3.4-0.5-7-1-10.9-1c-2.9-2.7-4.9-6.1-7.5-8.7c3.6-18.5,3.9-40.3,16.3-50.3
		C1800.8,561,1802.8,559.3,1804.5,557.1z"/>
	<path id="Gangnam-gu" fill="#C8C8C8" stroke="#000000" stroke-miterlimit="10" d="M1487.5,684.2c2.9-3.2,6.3-5.3,9.7-8.5
		c3.2-2.7,6.1-7,9.7-8.5c2.7-1,7.5-1.2,10.9-1.7c8.7-1.5,15.5-1.9,25.5-1.2c14.1,1,23.1,2.9,32.5,7c23.3,10.2,42,28.9,69.2,31.8
		c1,2.2,0.2,6.3,0.5,9.2c0,2.9,0,5.8,0,8.7c0.2,1.7-0.5,4.6,0.5,5.8c0,2.4,0,5.1,0,7.5c0,2.9,0,5.8,0,8.7c0.2,1.5-0.5,4.4,0.5,5.3
		c-1,8.5,2.2,11.7,4.9,16.8c1.7,3.4,2.9,7.5,4.4,9.7c1.9,2.7,6.3,5.3,9.7,8s6.6,5.8,10.2,8c3.6,1.9,8.3,3.6,12.4,5.8
		c4.1,1.9,8.3,5.1,11.9,6.1c10.7,3.2,24.5,2.9,34.7,6.1c2.2,2.9,5.3,5.1,7.5,8c1.2,3.6,1.9,8,3.6,11.4c8.5,6.3,18.2,11.2,26.5,17.5
		c0.7,5.6,1.9,10.9,2.7,15.8c1,5.3,1,11.2,2.7,15.8c1,2.7,3.9,6.1,5.8,8.7c8.5,12.6,16.8,24.5,22.1,39.3c-4.9,1.7-12.6-0.5-17.5,1.7
		c-4.4,1.9-5.3,9.7-8.7,14.1c-1.9,2.2-6.6,6.1-9.7,7c-5.1,1.5-10.9,0.2-15.8,1.2c-3.6,1-6.3,4.1-9.7,4.9c-3.9,0.7-8-1-13.4-0.5
		c-4.4-3.9-6.1-9.2-10.9-13.4c-3.9-3.4-9.2-4.6-12.6-8c-2.2-2.2-8-10.2-9.2-13.6c0-2.2,0-4.6,0-7c-0.2-1.2,0.5-3.9-0.5-4.4
		c0.2-3.9-0.7-6.3-0.5-10.2c-3.9-2.7-6.8-6.6-11.4-8.5c-13.1-4.9-29.6,0.5-40.6,5.3c-3.9,6.3-7.5,13.4-12.4,18.9
		c-14.3,0.2-25,4.4-35.7,8.5c-11.2-15.5-13.4-40.1-18.5-61.7c-4.4-4.6-9-9.2-13.6-13.6c-6.1-2.9-13.1-4.4-17.5-8.7
		c-1.9-2.4-4.4-4.6-6.6-6.6c-0.2-0.5-0.7-0.7-1-1.2c-1.9-2.2-3.9-4.4-6.1-6.1c-6.3-6.8-6.1-20.4-7-34c-0.5-6.8,0-14.8-1.7-20.4
		c-1.9-5.8-11.4-9.7-13.6-15.8c-1.7-4.9-1.7-11.7-2.7-17.2c-1-6.1-1.5-13.1-3.2-18.2c-1.9-6.1-6.1-11.4-8.7-16.8
		C1492.9,695.6,1490.2,690,1487.5,684.2z"/>
	<path id="Gangseo-gu" fill="#C8C8C8" stroke="#000000" stroke-miterlimit="10" d="M893,371.6c12.6,7,25.5,15.5,36.7,23.8
		c3.6,2.9,8.3,5.3,11.4,8.5c3.6,3.6,6.8,9,10.2,13.4c3.4,4.4,6.6,9.2,10.2,13.4c5.8,6.3,13.4,10.7,18.9,16.8
		c7,7.5,11.4,18,18.9,25.5c5.6,5.8,15.3,8.7,22.8,13.4c2.9,1.7,6.1,3.9,9.2,5.8c3.4,1.9,7.5,3.2,10.2,5.3c3.2,2.4,5.6,7.3,8.7,10.9
		c3.2,3.9,7.3,7,9.2,10.7c3.2,5.3,4.4,11.4,7.5,16.3c5.1,7.8,13.6,13.4,20.4,19.4c7,6.3,14.8,11.9,21.6,18.5
		c1.9,4.4,2.2,10.7,2.7,16.8c0,0.2,0,0.5,0,1c-5.3,0-10.7,0-15.8,0c-5.3-1.5-9.7-3.9-16.3-3.9c-3.4,4.1-5.8,9.2-8.7,13.6
		c-0.2,9.2-1.2,17.5-1.2,27c-4.9,7-9.2,15.1-13.4,22.8c-7.5,1.5-14.3,8-22.1,8.5c-2.9,0.2-8.5-1.5-11.9-2.2
		c-9.5-1.9-18-4.4-22.1-10.7c-1.7-2.7-2.9-7-4.4-10.7c-3.4-7.8-6.3-14.3-9.2-21.6c-1.5-3.9-2.7-8.5-4.4-10.9c-1.7-2.4-7-6.8-9.2-7
		c-5.3-1-12.6,2.7-17.5,1.7c-2.9,4.6-5.3,9.7-8,14.6c-7.5-0.5-14.6-1-22.1-1.2c-6.1-0.5-16.8-2.7-22.3-1.2c-4.4,1-9.2,9-12.4,12.4
		c-4.1,4.6-8,8.5-12.4,12.4c-2.4-4.6-4.6-8.7-6.6-14.1c-1.5-4.4-3.2-11.7-6.1-14.6c-2.2-2.2-8.3-3.4-11.9-4.9
		c-12.9-5.1-25.3-10-36.9-14.6c-0.5-11.9-5.1-19.9-8.7-28.7c3.6-4.6,10.4-3.9,13.6-8.7c1.5-2.2,1.5-7,2.2-10.7
		c2.2-10.7,5.3-22.3,8-31.3c4.9-2.2,9.7-4.4,15.5-6.6c4.1-1.7,12.1-3.6,14.6-7.5c2.7-4.4,2.2-12.1,3.2-18.5c1-6.3,1.5-13.1,2.2-19.4
		c3.4-3.2,6.8-6.6,11.4-10.7c5.8-5.1,13.8-8.3,11.4-20.4c1-1.5,0.2-4.9,0.5-7c1.7-11.7-7.8-22.1-5.3-33
		C885.7,378.4,891,376.4,893,371.6z"/>
	<path id="Geumcheon-gu" fill="#C8C8C8" stroke="#000000" stroke-miterlimit="10" d="M1134.9,840.6c8.7-1,12.4-7,19.4-9.7
		c7.8,3.4,15.8,16.5,25.5,10.2c1.7,4.1,4.4,7.5,6.1,11.4c3.9,1.7,7.8,3.4,11.4,5.3c-0.2,3.4-0.7,6.1-0.5,9.7c-0.7,0.5-0.7,4.4,0,4.9
		c1.2,17.5,3.6,37.2,5.8,54.2c0.7,6.3,0.5,13.4,2.2,18.2c1.7,5.1,7.8,9.2,9.2,14.1c4.1,1.2,7.8,2.9,11.9,3.9
		c1,5.6,2.9,10.2,4.4,15.5c-0.5,2.2-2.7,2.9-3.9,4.4c-14.3,2.9-18.2,16.8-22.1,30.4c-7,0.5-13.1,7.8-20.4,8.7
		c-8.7,1.2-17.5-2.2-27.7-1.2c-6.1-23.8-14.3-52.2-21.1-77.5c-1.7-6.3-3.4-21.9-8-25.3c-2.7-1.9-8.3-1.5-11.9-1.7
		c-2.7-30.1-15.1-50-23.3-74.6c2.2,0,4.4,0,6.6,0c2.7,0.7,8.5,0.7,10.9,0c2.4,0,5.1,0,7.5,0c1.5-0.2,4.4,0.5,5.3-0.5
		c2.2,0,4.6,0,7,0C1131.2,840.8,1133.9,841.5,1134.9,840.6z"/>
	<path id="Guro-gu" fill="#C8C8C8" stroke="#000000" stroke-miterlimit="10" d="M1152.1,820.6c0.2,1.5-0.5,4.1,0.5,4.9
		c0,1,0,1.7,0,2.7c-6.1,2.9-10,8.5-18.2,9.2c-1.5,0.2-4.4-0.5-5.3,0.5c-2.2,0-4.6,0-7,0c-1.5,0.2-4.4-0.5-5.3,0.5
		c-2.4,0-5.1,0-7.5,0c-3.4,0-6.8,0-10.2,0c-2.7-0.2-6.3,0.5-8.5-0.5c-1.7-7.5,1.2-15.8-1.7-21.6c-1.2-2.2-6.8-4.9-8.7-6.1
		c-3.4-1.9-7.3-5.1-10.2-5.3c-2.4-0.2-6.6,2.4-8.7,3.6c-2.7,1.2-6.3,2.9-8.5,4.4c-2.2,1.5-7,8-8,10.7c-1.9,5.8,0.5,14.8-4.4,16.8
		c-2.4,1.9-4.6,4.4-6.6,6.6c-3.2,2.7-6.1,5.8-8.7,8.7c-1,1.5-1.9,2.9-3.6,3.9c-2.4,1.9-4.6,4.4-6.6,6.6c-3.2,2.7-6.1,5.8-8.7,8.7
		c-2.2,2.4-3.6,5.8-6.6,6.6c-5.3,1.5-14.3,0.7-19.4,0c-5.1-0.7-9.2-4.4-13.6-4.4c-9.2-0.2-17.5,4.9-25.5,5.3
		c-4.6,0.2-8.5-1-13.6-1.2c5.3-10.7,10.4-23.1,15.8-34.5c1.9-3.9,5.3-8.3,5.3-11.9c0-4.9-4.6-11.4-7.5-17.5
		c-1.9-3.9-7.5-14.1-7.5-17.5c0-1.9,2.7-5.8,3.9-8.7c7.8-16,16.5-31.3,18.9-50.3c-0.2-2.9-2.9-3.2-3.9-5.3
		c6.8,0.7,12.9,1.9,18.9,3.2c1.9,4.6,2.9,10.7,6.1,14.1c0.5,0.7,3.9,0.7,4.4,0c3.2,0,6.1,0,9.2,0c3.6-0.2,8.3,0.5,10.9-0.5
		c5.1-1.9,9.5-7.5,14.6-11.9c1.9-1.7,4.6-3.4,7-5.8c3.9-3.6,5.6-7.5,11.9-6.1c0.7,1,3.4,0.2,4.9,0.5c3.6,0,7.3,0,10.9,0
		c1.9,6.6,4.4,12.6,6.1,19.4c4.4,1.2,8.3,5.1,13.6,5.8c6.8,0.7,14.3-1.7,22.3-1c1.2-0.2,3.9,0.5,4.4-0.5c3.4-1.9,5.8-8.3,8-12.9
		c2.2-4.6,3.4-9.5,6.1-12.6c4.1,1.9,7.5,4.6,11.9,7c3.4,1.9,10,3.6,11.9,7c1.2,1.9,1.9,6.1,2.7,9.2c2.7,10,4.6,20.2,5.8,31.3
		c2.9,4.1,8,6.3,6.6,15.1c0.2,1.5-0.5,4.1,0.5,4.9c0,2.4,0,5.1,0,7.5c0.2,1.5-0.5,4.1,0.5,4.9C1152.1,816,1152.1,818.2,1152.1,820.6
		z"/>
	<path id="Gwanak-gu" fill="#C8C8C8" stroke="#000000" stroke-miterlimit="10" d="M1385.8,971c-3.9,3.9-8.5,8.3-13.4,12.6
		c-4.4,3.9-8.5,9.5-13.6,12.6c-4.9,3.4-11.2,6.1-17.5,9.7c-5.8,3.4-11.9,9-17.5,10.2c-3.9,1-8.7,0.2-13.4,0.5
		c-4.4,0.2-9,0.2-13.6,0.5c-7.5,0.2-20.6,1.9-27.2,1c-5.3-1-9.2-6.3-14.6-8.5c-3.6-5.6-3.2-18-7.5-22.1c-3.9-3.9-11.2-1.9-17.2-4.4
		c7.3-4.9-1-15.1-1.7-22.3c-3.4-1.9-7.5-3.4-11.9-4.4c-1.5-4.6-7.5-8.7-8.7-13.6c-1.5-4.6-1.5-11.7-2.2-18.2
		c-0.7-5.8-1.5-12.1-2.2-18.2c-2.2-18.5-3.4-35.2-3.6-51.2c-3.6-1.9-7.5-3.6-11.4-5.3c-1.9-3.6-4.4-6.6-5.8-10.7
		c10-1.2,16.8-10.7,24.3-12.6c10-2.9,19.9,0.2,27.2-6.1c1.9-4.6,3.6-10,5.8-14.6c5.3,0,10.7,0,15.8,0c4.1-0.2,9.5,0.5,12.6-0.5
		c5.8,0,11.7,0,17.5,0c7,0,14.3,0,21.6,0c9.5,3.6,19.2,7,28.2,11.4c3.6,13.6,7.3,27.4,10.7,41.5c7.8,6.3,15.3,12.9,23.3,18.9
		c2.4,1,6.6,0.2,9.7,0.5c1.5-0.2,4.4,0.5,5.3-0.5c8.7,1.2,12.4-4.9,17.5-5.8c-1.5,11.9,1.5,18.2,5.3,25.5
		c6.6,13.1,13.6,28.4,21.1,38.4c-3.4,1-7,1-10.2,2.2C1407.6,948.9,1396.5,959.8,1385.8,971z"/>
	<path id="Gwangjin-gu" fill="#C8C8C8" stroke="#000000" stroke-miterlimit="10" d="M1627.7,671.8c1.9-12.9,6.3-23.3,6.6-37.9
		c7.8-10.4,16-19.2,21.1-32.5c5.1-13.6,5.6-29.6,9.7-44.9c1.9-7,6.1-13.8,8.7-20.6c2.9-7.3,5.1-14.8,8.7-20.6
		c11.7-2.2,23.3,0.5,33.5-2.2c9.2-2.7,17-11.9,30.4-9.2c3.2-0.7,1.2,3.9,1.7,5.8c-1.5,7.5-10.9,13.4-11.4,21.1
		c-0.5,4.6,3.6,10.4,4.9,15.5c1.9,7.5-0.2,16.3,4.9,21.1c1.9,0,3.9,0,5.8,0c1.5,1,4.9,0.2,7,0.5c2.4,0,5.1,0,7.5,0
		c-2.2,5.8-3.9,11.2-4.9,17.5c-1,6.1-1.2,13.6-3.2,19.9c-1.9,5.8-6.6,13.4-10.2,20.4c-3.4,6.8-8.7,12.4-12.6,17.5
		c-4.1,5.3-8.7,10.7-13.6,16.8c-4.1,5.1-9.2,14.3-13.6,16.8c-6.1,2.9-14.1,3.2-22.1,3.6c-1.9,0-4.1,0-6.1,0c-2.9,0-5.8,0-8.7,0
		c-1.2,0.2-3.9-0.5-4.4,0.5C1651,680.3,1638.1,677.6,1627.7,671.8z"/>
	<path id="Jongno-gu" fill="#C8C8C8" stroke="#000000" stroke-miterlimit="10" d="M1408.6,505.2c-11.9,7.8-26,13.4-41.8,17.2
		c-5.8-5.1-11.7-9.7-16.8-15.5c-1.5-1.9-2.9-3.4-4.9-4.9c-3.9-4.1-8-11.2-8-17.5c0-3.4,2.2-8.3,3.6-12.9c2.7-8.7,5.3-16.8,8-25.3
		c1.2-4.4,3.4-9.2,3.6-13.4c0.2-5.8-1.9-11.9-3.2-17.2s-2.9-10.2-4.4-15.8c-4.9-2.4-10.4-3.9-14.6-7c0-0.5,0-1.2,0-1.7
		c1-1.2,0.2-4.4,0.5-6.1c0-3.4,0-6.3,0-9.7c0-2.9,0-5.8,0-8.7c1-1.2,0.2-4.4,0.5-6.1c0-3.4,0-6.3,0-9.7c0-2.9,0-5.8,0-8.7
		c1-1.2,0.2-4.4,0.5-6.1c0-3.4,0-6.3,0-9.7c1-11.2,0.5-19.9,3.9-27.2c2.9-6.3,10.4-10.2,14.6-16.3c2.9-4.4,3.9-8.5,7-12.6
		c10.7-1,19.7-3.9,30.4-4.9c3.6,4.1,8.7,7,13.6,10.2c6.1,14.8,7.5,30.4,11.9,45.9c4.4,15.8,14.8,29.6,15.1,49.1
		c-2.7,5.1-4.6,10.7-7,15.8c-4.6,1.7-9.2,3.4-13.6,5.3c-0.7,6.1-2.7,13.1-1.7,18.9c8.7,7.8,24,6.1,37.4,9.7c6.8,1.9,11.9,5.6,17.5,7
		c10,19.7,17.2,41.8,30.8,57.3c11.7,1,23.6,1.5,34.7,2.7c0,1,0,1.9,0,3.2c-1,1.9-0.2,6.1-0.5,8.7c0,3.9,0,7.5,0,11.4
		c-3.9,0-7.8,0-11.4,0c-1.5,0.2-4.4-0.5-5.3,0.5c-2.9,0-5.6,0-8.5,0c-1.5,0.2-4.4-0.5-5.3,0.5c-2.7,0-5.3,0-8,0
		c-1.7,0.2-4.6-0.5-5.8,0.5c-11.2,1-20.4,3.6-31.3,4.9c-7.3,0-14.8,0-22.1,0c-4.4-3.4-7.3-8.3-12.4-10.9
		C1414.7,504.4,1410.1,504.4,1408.6,505.2z"/>
	<path id="Jung-gu" fill="#C8C8C8" stroke="#000000" stroke-miterlimit="10" d="M1525.2,540.9c-3.4,6.6-6.3,13.6-11.9,18.2
		c-2.7,2.2-4.9,4.6-7,7c-0.2,0.2-0.5,0.5-1,0.5c-1.9,1.9-4.4,3.4-5.8,6.1c-3.6,10.2-8.5,18.9-12.6,28.2c-7-2.7-11.7-7.8-18.9-10.2
		c-1-1-3.6-0.2-5.3-0.5c-2.7,0-5.3,0-8,0c-1-1-3.6-0.2-5.3-0.5c-15.8,2.2-17.5-9.2-26-14.1c-1.9-1-6.1-0.2-8.7-0.5
		c-1.9,0.2-5.3-0.5-6.6,0.5c-2.9,0-5.8,0-8.7,0c-2.4,0.2-5.8-0.5-7.5,0.5c-11.9,1-24,1.9-35.7,3.2c-2.7-11.7-6.3-22.3-10.7-32.5
		c8.3-6.3,17.2-11.9,22.1-21.6c11.2-2.9,21.6-5.6,31.3-10.7c5.8-2.9,8-7.3,17.2-6.1c3.4,3.9,7,7.5,10.9,10.9
		c21.4,2.9,37.2-3.6,56.1-4.9c1.5-0.2,4.4,0.5,5.3-0.5c2.7,0,5.3,0,8,0c1.7-0.2,4.6,0.5,5.8-0.5c2.7,0,5.3,0,8,0
		c1.7-0.2,4.6,0.5,5.8-0.5c2.7,0,5.3,0,8,0c0.7,0,1.5,0,2.2,0c0,2.4,0,5.1,0,7.5c0,2.7,0,5.3,0,8c-1,1-0.2,3.6-0.5,5.3
		C1525.2,536,1525.2,538.4,1525.2,540.9z"/>
	<path id="Jungnang-gu" fill="#C8C8C8" stroke="#000000" stroke-miterlimit="10" d="M1761.2,321.8c4.1,6.8,16,5.8,23.8,9.2
		c-1.9,10.7,10,14.1,11.4,21.6c1.5,8-4.1,13.1-4.9,21.1c-3.9,3.6-8.5,6.6-11.4,10.9c0,0.2,0,0.5,0,1c-0.7,3.4-0.7,10,0,13.4
		c0.5,3.4,2.9,5.1,3.9,8.5c0,2.9,0,5.8,0,8.7c-9.2,6.6-2.7,18-5.8,28.7c-1.5,5.6-13.8,13.1-16.8,18.2c-1.5,2.4-1.2,5.6-2.2,7.5
		c-2.9,5.8-13.6,9.2-14.6,15.5c-0.5,3.2,2.2,5.3,3.6,8c0,1.9,0,4.1,0,6.1c-0.5,0.2-2.2-0.5-2.2,0.5c-14.3-2.7-21.1,7.3-31.8,9.7
		c-10.4,2.4-19.9-0.2-32.1,2.2c-4.1-55.6-14.3-104.9-13.6-165.2c10.4-4.6,20.4-10.2,30.8-15.5c5.3-2.7,9.2-5.3,17.2-4.9
		c1.5-0.2,4.1,0.5,4.9-0.5c2.2,0,4.6,0,7,0c1.5-0.2,4.1,0.5,4.9-0.5c2.2,0,4.6,0,7,0c1.5-0.2,4.1,0.5,4.9-0.5
		C1752.5,325.9,1756.4,323.5,1761.2,321.8z"/>
	<path id="Mapo-gu" fill="#C8C8C8" stroke="#000000" stroke-miterlimit="10" d="M1129.1,418.2c5.8,5.3,5.8,16.5,17.5,15.8
		c5.3,11.9,15.5,17,25.5,24.8c6.3,5.1,13.6,9.5,19.4,14.6c11.2,9.7,19.7,22.8,29.6,31.8c4.9,4.4,10.9,7.8,15.8,12.6
		c1.9,2.4,4.4,4.6,6.6,6.6c0.5,0,0.5,0.2,1,0.5c2.2,2.7,4.6,4.9,7,7c1.9,2.4,4.4,4.6,6.6,6.6c0.5,0,0.5,0.2,1,0.5
		c1.9,2.4,4.4,4.6,6.6,6.6c1.9,1.9,3.4,4.4,6.1,5.8c11.7,1.5,29.4,2.9,42.3,4.4c5.1,0.5,10.7,2.2,14.1,1.2c5.8-1.2,8.3-8.5,14.1-9.2
		c1.5,5.3,4.4,10,6.1,15.5c1.5,4.4,4.6,13.6,4.4,17.5c-0.2,3.9-4.4,17-5.8,20.4c-4.4,10.9-11.7,19.2-18.5,27.2
		c-9.2,10.9-20.2,21.6-29.9,29.9c-2.7-2.2-4.4-5.1-7-7c-2.7-2.2-5.3-4.1-8-6.1c-5.1-3.9-10.2-8.5-15.8-11.9
		c-17.5-10.2-36.7-17.2-55.6-24.3c-8.7-3.4-18.2-8.3-27.2-12.9c-9-4.4-18.9-8.3-27-13.4c-5.8-3.9-11.7-10.2-17.5-15.5
		c-15.1-13.1-29.6-25.3-44.2-38.4c-2.9-2.7-7-5.3-8.7-8c-3.4-4.6-4.4-10.9-7-15.8c-2.4-4.4-6.8-9-10.7-13.4
		c-6.1-7-10.9-14.3-18.9-18.2c0-0.2,0-0.2,0-0.5c7.3-2.4,14.6-13.4,22.1-15.1c8-1.7,16.5,0.7,26-1c2.9-2.9,6.6-6.3,10.2-10.2
		c2.7-2.9,8.3-7.8,9.2-10.9c0.5-1.9-0.2-4.4,0.5-6.1C1120.8,425,1126.1,423.1,1129.1,418.2z"/>
	<path id="Nowon-gu" fill="#C8C8C8" stroke="#000000" stroke-miterlimit="10" d="M1729.2,173.2c-0.5,3.9-3.4,5.1-3.9,8.7
		c-0.7,3.6,0.2,16.3,1.2,20.4c0.7,2.9,6.1,12.9,8,14.1c5.3,3.4,14.1,1.2,20.6,2.7c7,1.5,13.1,4.9,19.4,6.6c2.4,10,0.2,18.2,2.7,27
		c1.9,6.8,8.5,11.2,6.1,21.1c-2.9,3.9-4.6,8.7-8,12.4c-3.9,1.5-7.8,0.5-10.9,2.2c-2.7,1.5-7,8.3-7.5,12.4
		c-0.7,5.8,1.9,11.2,5.3,14.6c-0.5,1.2-1.5,2.2-1.2,3.9c-5.1,1.2-9,3.9-16.3,3.2c-1.5,0.2-4.1-0.5-4.9,0.5c-2.2,0-4.6,0-7,0
		c-1.5,0.2-4.1-0.5-4.9,0.5c-2.2,0-4.6,0-7,0c-1.5,0.2-4.1-0.5-4.9,0.5c-10.7,0.2-19.2,6.6-27.2,10.7c-7.5,3.6-14.6,6.6-21.1,10.7
		c-10.2-2.7-20.9-4.6-30.8-7.5c-15.1-19.9-30.6-41.5-42.7-62.9c5.8-0.5,12.4-0.2,17.5-1.2c2.7-8.3,1.5-18,3.2-26
		c1.2-6.1,5.3-12.4,6.6-18.9c1.9-9.5,1.5-21.6,2.7-32.5c0.5-5.1,1.2-10.7,1.7-15.8c0.5-5.1,1.5-11.2,1-15.5c-1-6.1-4.6-12.4-7-18.5
		c-2.2-5.8-6.3-12.9-7-18.5c-0.5-3.4,1-7.5,1.2-11.4c0.5-3.6,0.2-8,1-11.4c1.9-9.2,8-18.9,10.2-29.1c1.9-8.7,0.5-19.2,2.7-27
		c5.1-8.3,13.8-7.5,23.3-12.6c3.2-1.7,7.8-5.3,10.7-8c2.7-2.7,5.1-7.5,7.5-8.5c2.9-1.2,9.2-1.5,12.4-1c2.7,0.5,5.8,4.4,8.7,6.6
		c7,5.3,11.7,8.5,18.2,13.6c2.9,2.2,6.1,5.8,8.7,7c7.5,3.2,13.6,1.5,22.3,4.9c3.9,13.6-1.7,17.2-7,25.3c-2.9,4.4-7.5,9.5-7.5,13.6
		c0,3.9,4.9,11.9,6.6,14.6c2.9,4.4,10.9,10,12.4,15.1c1.9,7-0.5,13.4,1.2,22.8c-2.9,4.1-13.8,6.1-15.8,10.7
		c-1.5,3.6,0.2,8.3-0.5,14.1C1728.9,168.3,1728,171.7,1729.2,173.2z"/>
	<path id="Seocho-gu" fill="#C8C8C8" stroke="#000000" stroke-miterlimit="10" d="M1484.9,686.8c4.4,10.9,13.6,20.9,17.2,33
		c1.5,5.3,2.2,11.9,3.2,17.5c1,6.1,0.5,13.1,2.7,18.2c2.7,6.1,11.9,9.7,13.6,15.5c1.9,5.8,0.7,14.1,1.2,21.1
		c1.2,14.8,1.9,28.7,9.7,36.2c1.9,2.2,3.9,4.4,6.1,6.1c1.9,2.4,4.4,4.6,6.6,6.6c4.6,3.9,11.7,5.1,16.8,8.5c4.4,4.6,8.5,9,13.4,13.4
		c5.3,22.1,7.5,47.4,19.9,62.7c11.2-3.4,24.3-8.3,39.3-9.2c2.2-2.9,4.4-5.6,6.6-9.2c1.9-2.9,2.9-7.5,6.1-9.7c7-4.9,27-9.2,37.4-4.9
		c3.4,1.2,5.1,5.1,8,6.1c1,0.7,1,2.7,1,4.4c0.2,1.2-0.5,3.9,0.5,4.4c0,1.9,0,3.9,0,5.8c0.2,2.2-0.5,5.6,0.5,7c0,0.5,0,1.2,0,1.7
		c3.2,4.9,7,8.7,10.2,13.6c9.5,4.6,17.2,11.7,22.8,20.4c-4.9,2.9-15.5,2.4-18.5,7c-2.2,3.4,0.2,7.8-0.5,12.4
		c-0.7,4.9-5.1,9.2-4.9,13.6c-5.6,1.5-14.1,0.2-17.2,3.9c-2.7,7.3-2.9,14.3-9.2,17.5c-3.9,2.2-12.6,3.2-18.2,4.4
		c-5.3,1.2-15.1,1.9-17.5,4.9c-2.9,3.4-2.7,11.7-3.6,16.8c-1.2,6.3-2.4,11.2-3.9,16.3c-5.8,0-11.7,0-17.5,0
		c-7.3-0.5-13.1-2.7-20.4-3.2c-8.7-5.6-19.2-12.9-28.7-18.9c-3.4-2.2-10.9-4.4-9.7-9.2c0.7-1.5,0.7-6.3,0-8
		c-2.2-14.6-6.8-27.2-10.2-40.6c0-1.5,0-3.4,0-4.9s0-2.9,0-4.4c0-5.1,0-10.2,0-15.5c1-1.5,0.2-5.1,0.5-7.5
		c-0.2-3.4,0.5-7.5-0.5-10.2c0.5-7.8-7.3-6.8-13.4-8c-5.3-1-9.2-3.4-13.6-2.7c-4.1,0.5-10.2,6.1-14.6,8.7
		c-4.6,2.9-10.9,5.6-14.6,8.7c-6.3,5.6-10,14.1-15.1,18.2c-4.1,0.7-11.2,0.7-15.5,0c-5.1-4.6-1-12.9-2.2-19.4
		c-0.7-3.6-6.3-9.7-8.7-10.7c-1.9-0.7-7.8-1.5-11.4,0c-3.6,1.5-3.6,5.8-7,8.5c-10.9-13.6-17.2-31.8-25.5-47.6
		c-0.2-5.8,0.5-13.1-0.5-18.2c-4.1-13.4-3.6-26-1.2-41.8c1.2-8.5,2.2-17.2,3.9-23.8c1-3.6,3.6-7,3.6-10.7c-0.2-4.4-3.6-8.5-5.3-11.9
		c-1.9-4.4-3.4-8-5.3-11.9c-6.3-1-13.1-1.2-20.4-1.2c-1.5-4.9-2.7-9.7-3.6-15.1c17.5-0.5,31.8,1.2,44.2-3.9
		c5.8-2.4,11.7-9.5,16.8-14.1C1454.7,718.6,1471,702.6,1484.9,686.8z"/>
	<path id="Seodaemun-gu" fill="#C8C8C8" stroke="#000000" stroke-miterlimit="10" d="M1348.6,510c4.6,5.3,10.9,9.2,15.5,14.6
		c-8,14.3-24.8,19.7-36.7,29.9c-11.9-1.2-26.5-2.9-40.1-4.4c-7.8-1-14.8-0.2-18.2-5.3c-2.2-2.7-4.6-4.9-7-7
		c-1.9-2.4-4.4-4.6-6.6-6.6c-0.2-0.2-0.5-0.5-1-0.5c-2.2-2.7-4.6-4.9-7-7c-1.9-2.4-4.4-4.6-6.6-6.6c-11.7-7.8-22.3-19.2-32.1-29.9
		c-3.6-3.9-12.9-10.4-13.6-15.1c-0.5-2.2,1.5-14.8,2.7-17.5c1-1.9,2.7-3.4,3.9-4.4c1.7-1.2,3.2-2.7,4.4-4.4c0-0.2,0-0.2,0-0.5
		c1.9-1.5,3.4-2.9,4.9-4.9c1.2-1.5,1.9-3.2,4.9-2.7c4.9,0,9.7,0,14.6,0c2.9-0.2,6.8,0.5,8.7-0.5c5.8,0.2,11.2,0,16.3-0.5
		c5.6-5.3,9.2-12.9,11.9-21.1c9.5-2.2,17.5-6.3,26-9.7c2.2-9.5,5.8-17.5,10.2-24.8c7.3-3.4,11.9-10.4,23.8-8c0,0.5,0,1,0,1.2
		c-1,2.2-0.2,6.6-0.5,9.7c0,3.4,0,6.8,0,10.2c3.9,3.9,10.2,5.3,15.5,8c2.7,10,5.1,19.9,7,30.4c-3.9,11.7-7.5,25.5-11.4,38.9
		c-1.2,4.6-3.9,9.2-3.9,12.9c-0.2,5.6,3.9,10.2,4.9,15.8c1.5,1.9,2.9,3.4,4.9,4.9C1345.2,506.9,1346.9,508.6,1348.6,510z"/>
	<path id="Seongbuk-gu" fill="#C8C8C8" stroke="#000000" stroke-miterlimit="10" d="M1416.9,249.4c4.1,2.9,5.8,10.2,10.2,13.4
		c5.8,3.9,13.8,3.6,20.4,7c3.9,2.2,7.8,5.8,11.4,8.7c11.7,8.7,23.1,18.2,34,27c3.4,14.1,6.8,27.9,10.2,41.8c5.3,2.9,9,7.8,18.5,6.6
		c3.2,0,6.1,0,9.2,0c1.7-0.2,4.6,0.5,5.8-0.5c2.9,0,5.6,0,8.5,0c3.2,0,6.1,0,9.2,0c1.7-0.2,4.6,0.5,5.8-0.5
		c12.6,1.7,16.5-5.3,24.3-8.7c7.5-14.6,15.1-28.7,22.8-42.7c4.6,5.8,8.7,12.4,13.6,19.4c3.4,4.6,9.7,16.5,14.6,18.9
		c8.5,4.6,20.6,3.2,30.4,8c0,1.9,0,4.1,0,6.1c-1,6.8-0.2,15.8-0.5,23.3c-21.4,7-48.3,8-63.4,21.1c-3.4,2.9-6.8,6.3-9.7,9.7
		c-5.1,7.5-8.7,16.5-13.6,24.3c-12.6,4.4-20.2,9.5-29.6,16.8c-2.9,2.2-7.3,3.9-8.7,6.6c-2.7,4.4-2.2,12.4-4.9,17.5
		c-1,2.2-7,9.7-8.7,10.2c-4.4,1.2-10.9-1-16.3-1.2c-5.3-0.5-10.9-0.7-16.8-1c-14.1-15.5-20.4-38.6-31.3-57.3
		c-6.3-1.2-11.2-5.8-18.5-7.5c-12.6-3.2-27.2-1.7-35.2-8.5c0.2-5.3,1.2-10.4,1.7-15.5c4.6-1.2,8.7-3.4,13.4-4.9
		c1.7-6.8,6.8-11.2,7.5-18.2c1.5-12.9-4.4-23.1-8-32.1c-2.2-5.6-4.9-11.2-6.6-17.2c-4.9-16.5-6.8-33.5-12.4-47.1
		c-4.4-3.2-9.5-5.1-12.9-9.2c5.8-1.5,11.7,1,15.8-1C1412.5,260.8,1412.7,252.6,1416.9,249.4z"/>
	<path id="Seongdong-gu" fill="#C8C8C8" stroke="#000000" stroke-miterlimit="10" d="M1544.8,521.9c1.9,0,3.9,0,5.8,0
		c4.6-2.9,3.6-11.2,12.9-9.7c0.5,1,2.9,0.2,4.4,0.5c8.3-0.2,15.8,0.5,23.8,1c2.2,6.3,4.1,13.1,6.1,19.9
		c21.6,7.5,44.2,14.3,64.4,23.3c-3.9,24-7.5,43.7-18.2,60.5c-3.6,5.8-10.4,10-12.4,15.8c-1.5,4.6-0.5,9.7-1.2,14.1
		c-1.2,8-4.1,14.8-5.8,22.8c-18.5-9.5-37.2-23.6-61.2-29.1c-5.1-1.2-11.9-1-18.2-1.2c-18-1-30.6,1-46.4,4.4
		c-3.4-13.6-6.8-27.4-10.7-41c5.6-9.2,9.2-20.2,14.6-29.6c2.4-1.9,4.6-4.4,6.6-6.6c2.7-2.2,4.9-4.6,7-7c5.3-4.6,7.8-11.9,11.4-18.2
		c1-1.5,0.2-4.9,0.5-7c0-2.4,0-5.1,0-7.5c1-1,0.2-3.9,0.5-5.8c0-2.2,0-4.4,0-6.6c4.4,1.7,5.3,6.8,11.4,6.6
		C1541.2,522.4,1543.6,521.4,1544.8,521.9z"/>
	<path id="Songpa-gu" fill="#C8C8C8" stroke="#000000" stroke-miterlimit="10" d="M1780.7,616.1c2.9,2.2,4.9,5.3,7,8.5
		c3.4,0.5,7,0.5,10.9,0.5c5.6,9.2,0.5,23.3-3.2,33c-1.2,3.4-4.4,8.3-3.9,10.7c0.7,5.1,11.9,8.7,14.1,13.4c3.9,7,6.1,16,10.7,22.3
		c5.3,1.7,12.6,1.5,18.9,2.2c5.1,5.1,10.9,9.5,20.6,10.2c-2.4,5.6-5.8,9.7-9.2,15.5c-1.9,3.4-9,12.4-8.5,16.8
		c0.5,3.6,6.3,4.4,7.5,8.7c1.2,5.1-1,7.3,0,13.6c8.7,12.9,29.9,13.6,45.4,19.9c1.9,1,5.8,0.2,8.5,0.5c1,3.2,0.2,8.3,0.5,11.9
		c-10.4,3.2-15.8,7.5-18.5,18.2c-1.9,7.5-1,17.2-3.6,24.3c-1.9,5.6-6.3,8.5-8.7,12.9c-5.1,2.4-10.9,1.2-14.6,4.4
		c-1.9,1.7-4.9,10.9-6.1,15.5c-1,3.4,1,7.8,0.5,10.7c-0.7,3.4-4.4,5.1-6.1,7c-2.2,0.2-5.6-0.5-7,0.5c-6.6,0.7-11.9-1.2-15.8,1
		c-3.4,1.7-4.9,8.5-6.6,12.4c-2.2,5.1-4.1,9.5-6.1,12.6c-5.3-12.9-11.9-24.8-19.4-35.7c-2.7-3.6-6.3-7.3-7.5-10.9
		c-3.4-10-1.9-21.4-5.8-32.1c-8.3-6.3-18.2-11.2-26.5-17.5c-1.2-3.9-2.2-8-3.6-11.9c-2.4-2.9-5.1-5.3-8-8
		c-11.7-3.6-25.7-2.9-36.7-6.6c-3.6-1.2-7.5-4.4-11.4-6.1c-8.7-4.4-14.3-7.3-21.1-12.6c-2.9-2.4-7-5.1-8.7-7.5
		c-3.6-4.9-4.9-11.2-8.5-17.2c-0.2-1.9,0.5-5.1-0.5-6.1c0-2.4,0-5.1,0-7.5c0-2.9,0-5.8,0-8.7c-0.2-1.5,0.5-4.4-0.5-5.3
		c0-2.7,0-5.3,0-8c0-2.9,0-5.8,0-8.7c-0.2-1.5,0.5-4.4-0.5-5.3c0-0.7,0-1.5,0-2.2c3.4,0.5,6.3,1.5,10.7,1.2c1.9,0,4.1,0,6.1,0
		c2.9,0,5.8,0,8.7,0c1.2-0.2,3.9,0.5,4.4-0.5c3.9,0,8,0,11.9,0c1.5-0.2,4.1,0.5,4.9-0.5c7.5-1.9,16.3-2.2,23.8-5.3
		c6.8-2.7,10-7.8,14.1-13.4c7.3-9.5,14.3-18.5,21.6-27.7c4.9-6.3,10.7-12.1,14.1-18.5C1773.6,631.7,1776.8,623.2,1780.7,616.1z"/>
	<path id="Yangcheon-gu" fill="#C8C8C8" stroke="#000000" stroke-miterlimit="10" d="M949.8,612.7c2.4-4.4,4.4-9.5,7.5-13.4
		c5.8,0.5,10.7-2.2,15.1-1.2c1.9,0.5,6.3,4.4,7.5,6.1c1.7,2.7,2.7,7,4.4,10.9c4.4,10.2,10.4,23.3,13.6,32.5
		c5.8,5.8,13.4,8.5,23.8,10.7c4.6,1,9.5,2.7,13.4,2.2c8.7-1,16.5-7.3,23.8-9.2c1.9-8.3,11.2-16.3,13.4-23.8c2.4-8.7-0.5-19.2,1.7-27
		c1.5-4.9,5.1-7.5,7.5-11.4c5.6,0.5,9.5,2.7,14.1,3.9c4.9,1.2,12.6-0.5,17.5,1c5.8,10.7,8.7,23.1,14.6,33.5c1.5,2.9,4.6,5.1,5.8,8.5
		c1.5,5.1-0.2,10.2,1.2,15.5c-7.8,7.5-16.8,13.6-24.3,21.1c0,4.4,0,8.7,0,13.4c-1,3.6-0.2,9.2-0.5,13.6c0,7.3,0,14.8,0,22.1
		c-1.9,10.9-7.8,18-11.4,27.2c-0.7,1.2-3.9-0.2-4.4,1c-12.6,0.5-26.2,2.7-33.5-3.9c-2.2-6.3-4.4-13.1-6.6-19.4
		c-3.9-0.7-8.3-1-12.6-1c-0.7-1-3.4-0.2-4.9-0.5c-2.2,0-4.4,0-6.6,0c-9.5,7.8-17.5,17.2-28.2,23.8c-3.6,0-7.3,0-10.9,0
		c-1.9,0.2-5.3-0.5-6.6,0.5c-1.7,0-3.6,0-5.3,0c-1.5-4.6-3.2-9.5-5.3-13.6c-8.5-1.5-17-2.9-25.5-4.4c1.7-6.8,10-16.8,10.9-23.8
		c1.5-10.4,0-24.5,0-37.9c0-13.4,1.9-27.9,0-38.4C957.1,623.4,951,617.8,949.8,612.7z"/>
	<path id="Yeongdeungpo-gu" fill="#C8C8C8" stroke="#000000" stroke-miterlimit="10" d="M1113.8,673c3.4-2.9,7.3-6.3,11.9-10.2
		c3.2-2.7,10.4-6.8,11.4-10.7c1.5-5.1-1.7-10.2-1-17.2c-6.3-7.8-9.2-16.5-13.6-27c-4.4-10.2-9.7-18-9.2-31.8
		c11.2,7.8,19.2,19.2,30.8,27c5.6,3.6,12.6,6.1,18.9,9.2c18.5,9.2,37.6,19.9,58.5,26c3.6,17.7,4.4,35.7,10.9,49.3
		c4.6,9.7,14.1,13.8,22.3,19.9c0,0.2,0,0.2,0,0.5c-8.7,13.6-17.2,27.7-23.8,43.7c0.2,18.5-3.6,33.5-9.7,45.9
		c-8.3,2.2-19.9,2.2-27,5.8c-2.7,1.2-11.9,9.5-12.6,11.9c-2.7,6.3-0.5,15.1-3.6,22.8c-2.2,0.2-3.4,1.2-5.3,1.7
		c-6.1-3.6-11.9-7.8-17.5-11.9c0-1,0-1.9,0-3.2c-0.2-1.5,0.5-4.1-0.5-4.9c0-2.2,0-4.6,0-7c-0.2-1.5,0.5-4.1-0.5-4.9
		c0-2.4,0-5.1,0-7.5c-0.2-1.5,0.5-4.1-0.5-4.9c2.2-9.7-5.1-10.9-7-16.8c-2.2-6.1-1.7-13.6-3.6-20.6c-1.7-6.8-3.4-13.4-4.9-19.9
		c-8.3-5.1-17.2-10-25.5-15.1c0-7.5,0-15.1,0-22.3c0-6.3,0-13.1,0-19.4C1114.2,679.8,1113.5,675.9,1113.8,673z M1300.8,697.3
		c-18.5-20.9-37.2-41-65.3-52.5c1.9,13.6,3.9,27,8.5,37.9c5.1,4.6,11.4,13.1,18.5,15.1c9,2.7,18.7,0.5,29.9,1
		C1294,697,1301.2,699.5,1300.8,697.3z"/>
	<path id="Yongsan-gu" fill="#C8C8C8" stroke="#000000" stroke-miterlimit="10" d="M1423.7,580.2c7.5,5.1,10.2,15.1,25.3,12.9
		c1,1,3.6,0.2,5.3,0.5c2.7,0,5.3,0,8,0c1,1,3.6,0.2,5.3,0.5c7,2.9,13.1,7,18.9,10.9c2.7,13.8,7.5,27.7,9.7,40.6
		c-15.5,9.5-29.4,24.8-42.7,39.6c-10.2,11.2-20.4,20.2-31.3,30.4c-6.6,6.1-9.5,10.7-19.4,11.4c-11.4,1.2-32.1,1.5-40.6-1.7
		c-5.1-1.9-9.5-8.5-13.4-12.6c-4.4-5.1-8.3-9.5-11.9-14.1c-1.9-2.9-4.6-5.1-7-7.5c-1.9-0.5-2.7-2.2-3.9-3.6
		c-1.7-2.2-3.6-3.9-5.8-5.8c-1.5-1.9-3.4-3.6-5.3-5.3c-4.9-4.6-9.2-10-13.6-15.1c22.8-22.1,47.4-42.5,55.1-79.4
		c12.1-0.5,23.3-2.2,35.7-2.7c2.4,0,5.1,0,7.5,0c1.9-0.2,5.3,0.5,6.6-0.5c2.9,0,5.8,0,8.7,0C1418.1,579,1422.4,578,1423.7,580.2z"/>
</g>
<g display="none">
	
		<text transform="matrix(1 0 0 1 1615.424 269.7417)" display="inline" fill="#939598" font-family="'HelveticaNeue-Bold'" font-size="3.0335">Kleifarvatn</text>
	
		<text transform="matrix(1 0 0 1 1564.3594 282.7852)" display="inline" fill="#939598" font-family="'HelveticaNeue-Bold'" font-size="3.0335">Seltún Geothermal Area</text>
	<circle display="inline" fill="#A8AAAD" cx="1612.6" cy="270.7" r="1.8"/>
	<circle display="inline" fill="#A8AAAD" cx="1602.5" cy="280.7" r="1.8"/>
</g>
<g id="trail-path" display="none">
	<path display="inline" fill="none" stroke="#010101" stroke-width="5" stroke-miterlimit="10" d="M1522.4,122
		c-1.4,93.3-55.9,176.4-108.4,253.5c-9.9,14.2-19.5,28.7-30.4,42.2c-7.7,9.6-16.1,18.8-23.6,28.4c-37.1,48.2-52.5,109.2-67.2,168.4
		c-14.2,57.6-28.4,114.9-42.4,172.5c-1.4,6.5-3.1,13.5-0.5,19.8c2.7,6.3,8.7,10.1,14.5,13.7c14.2,8.7,28.4,17.4,42.4,26
		c7.5,4.6,15.2,9.2,23.9,9.2c8.2,0,15.7-4.1,23.1-7.7c54-25.5,117.6-19.5,175-35.7c48.4-13.5,91.1-41.7,133-69.6
		c101.7-68,203.4-136.2,305.3-204.1"/>
</g>
<g id="camera-path" display="none">
	<path display="inline" fill="none" stroke="#EC2227" stroke-width="3" stroke-miterlimit="10" d="M1478.5,121.1
		c-19.8,57.1-39.8,114.2-59.3,171.3c-17.8,51.3-35.7,102.7-48.9,155.4c-15.9,63.1-25.1,128.2-27.5,193.3c-0.2,3.9-0.7,8.4-4.1,10.1
		c-3.4,1.7-7.5-4.6-3.9-5.8c-8.7,75.2,6.3,153,41.7,219.8c3.1,6,6.7,11.8,12.3,15.7c7.5,5.1,17.1,4.8,26,4.1
		c25.5-1.9,50.8-7.2,75.9-12.5c10.4-2.2,20.5-4.3,30.8-6.5c32.8-7,66.5-14.2,95.2-31.6c19-11.6,35.2-27.2,51.1-42.7
		c19-18.6,38.3-37.1,57.4-55.7c32.3-31.3,64.8-62.9,88-101.7c22.9-38.6,35.7-85.5,24.3-128.9"/>
</g>
<g id="points" display="none">
	<circle id="도봉구" display="inline" fill="#405B54" cx="1519.2" cy="155.3" r="5.5"/>
	<circle id="성북구" display="inline" fill="#405B54" cx="1417.6" cy="377.5" r="5.5"/>
	<circle id="동작구" display="inline" fill="#405B54" cx="1277.3" cy="685.9" r="5.5"/>
	<circle id="서초구" display="inline" fill="#405B54" cx="1463.8" cy="825" r="5.5"/>
	<circle id="송파구" display="inline" fill="#405B54" cx="1659.3" cy="750.3" r="5.5"/>
	<circle id="강동구" display="inline" fill="#405B54" cx="1908" cy="579.9" r="5.5"/>
</g>
</svg>
