<?xml version="1.0" encoding="utf-8"?>
<!-- Generator: Adobe Illustrator 18.1.1, SVG Export Plug-In . SVG Version: 6.00 Build 0)  -->
<svg version="1.1" id="Layer_1" xmlns="http://www.w3.org/2000/svg" xmlns:xlink="http://www.w3.org/1999/xlink" x="0px" y="0px"
	 viewBox="870 -439.5 2040.5 1178.5" enable-background="new 870 -439.5 2040.5 1178.5" xml:space="preserve">
<g>
	<path fill="#FDFCEC" d="M1293-493.5"/>
	<polygon fill="#FDFCEC" points="1284.5,-482.7 1282.8,-485.6 1285,-486 	"/>
	<polygon fill="#FDFCEC" points="1267.8,-481.7 1266.2,-482.7 1266.5,-484.8 1268.7,-485.3 1268.9,-482.4 	"/>
	<polygon fill="#FDFCEC" points="1409.6,-480.3 1409.1,-480.4 1410.5,-483 1411,-480.9 	"/>
	<polygon fill="#FDFCEC" points="1274.3,-478.4 1273.8,-480.6 1276.3,-481.9 1276.2,-480.1 	"/>
	<polygon fill="#FDFCEC" points="1281,-477.3 1278.8,-477.2 1279.6,-479.7 1281,-479.2 	"/>
	<polygon fill="#FDFCEC" points="1288.3,-476 1287.2,-478.5 1289.1,-479.4 1289.2,-476.5 	"/>
	<polygon fill="#FDFCEC" points="1220,-477.9 1220.7,-475.9 1219.5,-475.3 	"/>
	<polygon fill="#FDFCEC" points="1202,-473.6 1199.8,-474.5 1200.7,-476 1202.1,-475.4 	"/>
	<polygon fill="#FDFCEC" points="1296.1,-467.3 1295,-469.3 1296.6,-471.2 1297,-468.9 	"/>
	<polygon fill="#FDFCEC" points="1226.1,-465.4 1221.6,-465.3 1221.5,-465.9 1225.3,-468.5 1227.3,-468 	"/>
	<polygon fill="#FDFCEC" points="1299.5,-464.8 1299,-464.7 1299.3,-467.4 1300.9,-467.3 1300.9,-465.2 	"/>
	<polygon fill="#FDFCEC" points="1233.6,-454.4 1230.6,-454.8 1230.4,-455.9 1236.7,-457 1237.6,-455.4 	"/>
	<polygon fill="#FDFCEC" points="1393.8,-451.2 1391.5,-453.2 1393.6,-454 1394.8,-452.7 	"/>
	<polygon fill="#FDFCEC" points="1253.2,-450.6 1255.1,-455.9 1257.5,-456 1257.5,-454.3 	"/>
	<polygon fill="#FDFCEC" points="1398.8,-450.2 1397.7,-451.8 1399.8,-452.6 1399.8,-450.7 	"/>
	<polygon fill="#FDFCEC" points="1386.7,-446.9 1386.6,-448.4 1388.4,-450.1 1388.8,-448.1 	"/>
	<polygon fill="#FDFCEC" points="1390.9,-443.8 1388.2,-444.4 1388.9,-445.6 1391.4,-446 	"/>
	<polygon fill="#FDFCEC" points="1301.4,-443 1300.6,-444.3 1302.8,-448 1305.7,-448.8 1306.2,-445.2 	"/>
	<polygon fill="#FDFCEC" points="1428.6,-442.1 1427.1,-444.5 1427.2,-446.5 1428.8,-447.1 1430.2,-445.8 	"/>
	<polygon fill="#FDFCEC" points="1388.5,-422.2 1386.6,-423.3 1387.6,-424.5 1389.4,-423 	"/>
	<polygon fill="#FDFCEC" points="1335.9,-416.7 1333.7,-418 1333.5,-418.9 1337.5,-420.2 1337.4,-418.4 	"/>
	<polygon fill="#FDFCEC" points="1249.8,-397 1246.4,-397.8 1248.2,-399.7 1251.4,-401.1 1253.3,-399.6 	"/>
	<polygon fill="#FDFCEC" points="1314.9,-395 1312.8,-395 1314.3,-397.7 	"/>
	<polygon fill="#FDFCEC" points="1337,-393.9 1335.3,-395.7 1337.2,-396.5 1338.2,-395.2 	"/>
	<polygon fill="#FDFCEC" points="1346.1,-388.4 1344.1,-389.8 1346.5,-392.8 1347.5,-391.2 1347.2,-389.1 	"/>
	<polygon fill="#FDFCEC" points="1265.2,-350.2 1262.8,-350.7 1262.7,-351.3 1264.9,-352.4 	"/>
	<polygon fill="#FDFCEC" points="1308.2,-349.1 1307.8,-350.4 1309.4,-352.8 1317,-355.5 1316.9,-353.2 1311.5,-350 	"/>
	<polygon fill="#FDFCEC" points="1326.8,-347.7 1330.4,-349.1 1331.4,-346.5 1329.8,-345.1 1325.9,-345.6 	"/>
	<polygon fill="#FDFCEC" points="1314.5,-337.9 1312.5,-338.4 1312.2,-340.2 1314.2,-340.6 	"/>
	<polygon fill="#FDFCEC" points="1294.3,-335.5 1292.5,-337 1293,-341.5 1298.6,-346 1303.2,-348.1 1304.8,-347.6 1305,-345.3 
		1304.2,-344.5 1300.7,-344.6 1295.6,-340 1296.1,-336 	"/>
	<polygon fill="#FDFCEC" points="1334.9,-327.7 1328.9,-329.6 1327.8,-332 1334.1,-332.5 	"/>
	<polygon fill="#FDFCEC" points="1287.5,-327.3 1287.2,-329.4 1289.6,-330.3 1291.5,-333.1 1293.5,-331.9 1293.5,-328.7 	"/>
	<polygon fill="#FDFCEC" points="1261.3,-326.3 1258.7,-326.6 1261.1,-328.3 	"/>
	<polygon fill="#FDFCEC" points="1326.5,-322.2 1319.9,-324.6 1320.1,-326.4 1323.8,-326.2 1326.6,-323.6 	"/>
	<polygon fill="#FDFCEC" points="1350.5,-321.1 1346.4,-323 1346.3,-324.4 1348.5,-324.8 	"/>
	<polygon fill="#FDFCEC" points="1313.7,-315.2 1313.2,-317.2 1316.2,-320.3 1318.5,-318.5 1316.4,-318.3 	"/>
	<polygon fill="#FDFCEC" points="1281.8,-315 1279.9,-316.2 1280.3,-317.8 1282.8,-318.1 1283.1,-315.5 	"/>
	<polygon fill="#FDFCEC" points="1306.6,-310.4 1304.7,-310.6 1304.5,-313.5 1306.4,-316.4 1308.4,-315.4 1307.8,-311.9 	"/>
	<polygon fill="#FDFCEC" points="1384.4,-307.1 1385.7,-309.7 1386.5,-309.9 1386.4,-307.7 	"/>
	<polygon fill="#FDFCEC" points="1259.3,-306.1 1260.2,-309.1 1261.7,-308.5 1261.9,-306.7 	"/>
	<polygon fill="#FDFCEC" points="1331.3,-296.9 1327.2,-296.5 1326.6,-298.9 1329.5,-300.1 1332,-298.3 	"/>
	<polygon fill="#FDFCEC" points="1221.9,-295 1221.1,-296.7 1224.3,-297.7 1224,-296.4 	"/>
	<polygon fill="#FDFCEC" points="1150.5,-292.8 1149.7,-295.4 1151.9,-296.2 1151.7,-293.8 	"/>
	<polygon fill="#FDFCEC" points="1271.9,-289.7 1268.9,-290.9 1272.2,-294.9 1272.9,-292.9 	"/>
	<polygon fill="#FDFCEC" points="1345.2,-291.1 1336.3,-290.9 1333.5,-289.6 1331.5,-292.4 1333.8,-293.9 1339.4,-295.1 
		1343.3,-298.3 	"/>
	<polygon fill="#FDFCEC" points="1147.6,-288.7 1145.3,-291.4 1147.9,-291.6 	"/>
	<polygon fill="#FDFCEC" points="1363,-288.4 1361.8,-292 1362.8,-292.1 1365.6,-289.9 	"/>
	<polygon fill="#FDFCEC" points="1343.7,-285.7 1339.4,-285.1 1337.3,-286.1 1337,-287.8 1339.3,-288.3 1343.9,-286.6 	"/>
	<polygon fill="#FDFCEC" points="1250.9,-284 1249.1,-284.6 1249.2,-287.2 1251.7,-284.5 	"/>
	<polygon fill="#FDFCEC" points="1331.3,-282.2 1325.8,-281.3 1327.8,-284.7 1331.9,-285.8 1332.5,-285.6 	"/>
	<polygon fill="#FDFCEC" points="1207.1,-257.7 1210,-261.4 1209.7,-258.3 	"/>
	<polygon fill="#FDFCEC" points="1246.2,-254.7 1246.1,-257.6 1248.6,-257.5 1248.7,-255.2 	"/>
	<polygon fill="#FDFCEC" points="1322.5,-128 1319.9,-128.2 1320.3,-130.9 1322.9,-129.1 	"/>
	<polygon fill="#FDFCEC" points="1335,-122.7 1336.8,-126.5 1337.3,-125.3 1336.6,-123.3 	"/>
	<polygon fill="#FDFCEC" points="1358.8,-99.2 1354.3,-98.5 1352.1,-99.7 1339.4,-115.5 1336.9,-116.7 1336.8,-117.4 1338.9,-118.6 
		1340.9,-121.4 1341.9,-121 1343.2,-115.7 1353.5,-102.4 1357.4,-101.2 	"/>
	<polygon fill="#FDFCEC" points="1361.7,-94.3 1360.1,-94.1 1359.5,-95.6 1360.9,-98.3 1362.1,-96.4 	"/>
	<polygon fill="#FDFCEC" points="1355.7,-93.4 1353.4,-94.4 1355.8,-96.2 	"/>
	<polygon fill="#FDFCEC" points="1354.2,-80.9 1356.9,-84.4 1359.7,-84.7 1359,-83.1 	"/>
	<polygon fill="#FDFCEC" points="1350,-77.8 1347.6,-77.4 1347.7,-79.3 1349.2,-81 1351.7,-81.2 1351.4,-79.4 	"/>
	<polygon fill="#FDFCEC" points="1327.7,-34.7 1326.1,-35.2 1325.7,-38.1 1328.2,-36.4 	"/>
	<polygon fill="#FDFCEC" points="1361.9,-31.9 1359.9,-33.3 1360.8,-35.3 1363.4,-36.3 	"/>
	<polygon fill="#FDFCEC" points="1358,-23.7 1358,-29.3 1360,-27.1 	"/>
	<polygon fill="#FDFCEC" points="1382.6,-8.2 1384.6,-11.6 1384.8,-9 	"/>
	<polygon fill="#FDFCEC" points="1372.4,-1.6 1366.5,-2 1361.4,-7.7 1364.1,-8.2 1368.3,-5.4 1373.1,-5.1 	"/>
	<polygon fill="#FDFCEC" points="1387.7,0.9 1386,-0.1 1385.7,-2.2 1387.7,-3.1 1389.2,0.3 	"/>
	<polygon fill="#FDFCEC" points="1381.8,3.4 1381,1.8 1382.9,-0.2 1383.3,3.1 	"/>
	<polygon fill="#FDFCEC" points="1393.8,12.2 1393.7,10 1392.3,8.3 1392.2,6.4 1395.7,9 1395.1,11.6 	"/>
	<polygon fill="#FDFCEC" points="1364.2,16.5 1363.4,16.6 1363.2,9.1 1367.5,4.5 1369.7,4.2 1371.5,7.2 1371,9.2 1366.8,11.6 	"/>
	<polygon fill="#FDFCEC" points="1387,17.8 1385.5,18 1384.6,13.3 1385.8,12 1387.4,14.3 	"/>
	<polygon fill="#FDFCEC" points="1383.4,21.3 1380.8,21.7 1383.1,18.5 1384,19.5 	"/>
	<polygon fill="#FDFCEC" points="1394.9,38.6 1393.4,38.1 1394.3,33.8 1395.6,33.6 	"/>
	<polygon fill="#FDFCEC" points="1405.1,44.4 1403.8,44.4 1399,39.2 1399.9,38.3 1403.7,40.7 	"/>
	<polygon fill="#FDFCEC" points="1396.8,56.7 1394.3,55.9 1396.8,52.8 1398.5,54.1 	"/>
	<polygon fill="#FDFCEC" points="1388.8,57.3 1386.7,54.8 1390.3,54.4 1390.7,56.5 	"/>
	<polygon fill="#FDFCEC" points="1379.1,63 1375.5,61.9 1375.1,60.4 1376.8,59.6 1379.3,62 	"/>
	<polygon fill="#FDFCEC" points="1434.2,112.3 1431.6,112.2 1432,110.8 1434.4,111.3 	"/>
	<polygon fill="#FDFCEC" points="1501.9,197.5 1501.5,193.5 1503.4,194.3 1503.7,196.2 	"/>
	<polygon fill="#FDFCEC" points="1474.2,205.6 1469.6,202.2 1469.9,199.9 1474.4,204 	"/>
	<polygon fill="#FDFCEC" points="1491.2,210.8 1488.9,211.1 1485.2,207.7 1484.8,204.1 1483,201.3 1486.5,200.2 1487.7,203.3 
		1490.9,207.8 	"/>
	<polygon fill="#FDFCEC" points="1631.9,332.8 1636,329.2 1639.4,328 1640.9,330.1 	"/>
	<polygon fill="#FDFCEC" points="2667.4,374 2668.5,375.8 2667.7,381.8 2666.3,379.7 2666.3,378 2666.3,375.1 	"/>
	<polygon fill="#FDFCEC" points="2673.2,385.5 2668,371.3 2672.1,377.3 	"/>
	<polygon fill="#FDFCEC" points="2677.1,390.3 2675.6,390 2675,382.8 	"/>
	<polygon fill="#FDFCEC" points="2673.3,392.6 2671.6,391 2670,382.9 2670.9,382.9 	"/>
	<polygon fill="#FDFCEC" points="2668.1,396.7 2669.3,397.4 2669.7,403.9 2668.5,403.5 2667.7,399.4 	"/>
	<polygon fill="#FDFCEC" points="2708.8,408.4 2709.4,407.6 2712,407.2 2713,406.5 2716,404.4 2723.8,396 2733.5,387.7 
		2734.3,387.8 2729.7,399.2 2727.8,399.8 2726.6,406.9 	"/>
	<polygon fill="#FDFCEC" points="2694.5,411.4 2693.1,411.4 2692.8,410.4 2705.7,408.6 2699.5,410.9 	"/>
	<polygon fill="#FDFCEC" points="2670,410.1 2675.3,409.7 2677.6,410.7 2678.1,412.2 2671,411.5 	"/>
	<polygon fill="#FDFCEC" points="2333,566.4 2334.9,568.1 2335.8,572.6 2335.4,573.9 2334.4,573.5 	"/>
	<polygon fill="#FDFCEC" points="1872.9,599.5 1874.7,604.1 1874.8,605.7 1870.6,609.3 1867.8,614.8 1864.6,615.1 1863.3,622.5 
		1859.7,625.4 1858.1,625 1857.1,624.8 1860.3,622.3 1858.5,618.8 1855.2,607.4 1855,604.1 1853.8,603 1853.6,600.4 1859.3,598 
		1863.7,596.6 1868.9,595.4 1872.1,597.7 1870.3,597.3 1869.2,598.3 1866.3,598.2 1864.5,598.7 1863.9,599.9 1864.1,600.6 
		1870.6,599.3 	"/>
	<polygon fill="#FDFCEC" points="1785.9,677 1786.6,672 1790.3,668.6 1794,677 1793.3,682.1 1789.6,687.2 1785.9,683.8 	"/>
	<polygon fill="#FDFCEC" points="1670.1,-335.9 1671.3,-334.5 1674.1,-337.8 1672.7,-346.5 1672.4,-358.7 1668.1,-373.1 
		1667.8,-373.8 1666,-384.4 1663.4,-386.7 1661.4,-391.9 1663.2,-399.1 1667.6,-404.2 1666.3,-405.3 1665.7,-408.9 1671.4,-423.8 
		1672.9,-434.4 1672.6,-436.5 1667.7,-471 1668.6,-478 1666.6,-493.5 1679.5,-492.2 1683.5,-477 1697.6,-441.8 1704.9,-439.3 
		1710.1,-440.8 1710.8,-436.6 1713.2,-436.9 1714.1,-439.3 1709.4,-446.3 1706.7,-454.2 1702.9,-463.2 1700.2,-472.2 1695.2,-488.4 
		1695.6,-492.8 2944.5,-521 2917,210.3 2908.9,213.1 2905.8,213 2905.4,213 2885.8,225.9 2884.9,228.6 2883.7,231.1 2865.9,246 
		2862.3,250.5 2857.1,254.9 2847.7,267 2841.1,273.7 2839.1,272.2 2837.5,274.1 2836.8,276.9 2825.3,286.5 2815.7,291.1 
		2815.1,292.6 2812.9,297.1 2802.9,301.7 2801.3,300.7 2805.6,297.1 2795.7,297.1 2793,297.1 2794.9,303.6 2794.5,304.2 
		2796.1,304.1 2793.2,307.5 2791.6,310.9 2791.8,312.3 2799.5,304.1 2800.4,305.2 2798.7,309.3 2795.1,314 2789.9,318.5 2788,318.6 
		2787,320.7 2787.8,323.4 2783.1,327.8 2777.7,334.8 2775.3,336.6 2767.9,347.6 2763.4,354.2 2759.3,355.5 2745.6,371.5 
		2738.7,382.5 2735.8,385.3 2733.2,385.2 2732.2,383.5 2734.4,378.1 2737.2,377.3 2739,375.7 2740.1,374 2742.2,371 2754.8,357.1 
		2760.7,352.6 2771.2,341.8 2773.3,336.9 2770.6,336.6 2765,340.6 2764.4,343.3 2761.6,348.3 2761.3,348.8 2755.8,353 2754.3,355.3 
		2750.3,359.1 2745,362.1 2736.2,369 2729.6,372.2 2724.6,373.4 2723.3,373.8 2719.9,372.5 2713.8,371.6 2713.7,372.9 2717.8,374.5 
		2720.5,374.6 2719.3,376.2 2710.1,375.6 2705.2,379.4 2703.8,379.3 2703.2,381.7 2700.4,382.4 2698.7,395.3 2697.4,399.2 
		2695.9,400.6 2694.7,397.4 2694.9,387.1 2692.5,383.7 2690.4,390.1 2691.1,398 2690.7,402.4 2688.5,409.3 2685.9,399.5 
		2685.9,390.9 2683.9,393.7 2682.3,393.9 2680.3,391.2 2678.1,386.1 2677.4,381.6 2674.9,379 2672.4,366.5 2668.1,361.6 
		2666.3,364.1 2666.2,369.1 2664.6,370.9 2665.9,379.8 2667.1,394.5 2666.1,400.2 2666.6,405.5 2664.4,409.8 2660.8,413.7 
		2656,414.9 2650.5,414.3 2644.2,415.8 2637,416.3 2631.5,416.1 2627.3,416.6 2611.8,415.6 2598.6,416.6 2597.6,416.4 2587,415.1 
		2584.2,415.2 2576.4,415.4 2569.5,416.6 2566.7,418.4 2566.8,415.2 2567.3,411.2 2566.7,410.4 2566.7,411.3 2565.2,411.9 
		2561.3,418.3 2558.7,419.6 2548.6,421.9 2547.2,421.3 2542.4,423.2 2539.6,423.2 2530.9,426.1 2530.2,427.4 2524.7,429.2 
		2523.5,426.5 2522.2,427.2 2523,430.2 2510.7,433.4 2501,439.1 2498.5,439.7 2498,438.4 2500.4,430.9 2497.9,433.3 2495.1,435.7 
		2494.9,437.7 2494.7,442.1 2489.6,443.8 2478.7,449.8 2465.5,459.5 2464.2,458.1 2460.3,460.9 2461,463.4 2460.3,466 2457.8,471.1 
		2453.4,472.7 2453.8,473.8 2452.7,474.6 2446.3,485.1 2442.5,493.8 2432.2,504.5 2428.8,505.5 2423.5,505.4 2416.3,503.9 
		2410.7,501 2410.8,502.5 2416.1,506.5 2427.8,510.7 2434.8,506.2 2440.7,498.2 2442.1,499.5 2436.5,506.2 2432.7,513.6 
		2430.1,520.8 2424.5,536.7 2416.2,548.1 2408.8,556 2402.7,561.1 2390.4,570.2 2387.9,571.5 2371,580 2366.2,584.2 2364,583.4 
		2354.9,591.4 2346.6,587.8 2343.9,584.1 2342.2,580.2 2341.8,576.6 2342.5,572.9 2344,570.8 2344.6,569.9 2347.7,560.5 
		2345.5,549.7 2342.6,540.6 2330.7,523.7 2323.3,519.5 2318.2,514.1 2313.7,513.7 2316.3,516.2 2319,522.5 2325.3,524.7 
		2336.5,540.9 2339,546.2 2340.3,552.4 2344.2,558.6 2340.1,573.7 2339.5,573.4 2339.3,569 2339.5,567.5 2340.3,562.9 2337.5,548.7 
		2334.7,544.1 2332.9,542.4 2332.4,543.9 2331.9,545 2334.2,547.1 2337.1,553.5 2336.4,559.6 2332.8,556.8 2331,553.5 2330.2,545.4 
		2328.3,540.8 2327,533.8 2325.5,532.4 2324.4,535.9 2325.1,540.6 2327.1,545.3 2326.4,547.5 2321.9,545.6 2318.6,545.4 2313.4,548 
		2307.4,540.7 2301.9,540.9 2297.1,542.8 2298.9,543.9 2304.4,542.9 2306,543.9 2311.9,551.2 2323.9,551.5 2327.1,554.4 
		2326.7,559.5 2329.2,561.6 2330.7,564.3 2331.1,570.5 2328,568.1 2322.8,569.1 2319.4,564.8 2315.4,561.7 2312.4,561.4 
		2305.7,563.2 2303,565.8 2305.6,566.5 2314,565.8 2315.3,567.1 2318.1,567.9 2320.7,569.8 2325.4,575.7 2327.8,577.1 2329.9,581.9 
		2334.3,588.2 2336.1,586.5 2332.9,578.1 2337.3,579.9 2338.3,582.6 2340.8,589.9 2343.5,591.8 2350.9,591.8 2350.7,593.2 
		2343.7,595 2331.9,595.4 2312.5,602.4 2305.2,604.4 2291.4,608.3 2284.2,611.7 2275.4,612.7 2269.9,615.8 2260,618.3 2242,624.8 
		2239,627.7 2234.2,628.9 2225,629 2215.1,627.9 2196.5,624 2185.8,619.5 2184.4,619.3 2179,618.5 2175.5,616.7 2158.5,618 
		2156,623.5 2141.4,621.7 2141.5,620.3 2147.6,619.6 2149.1,618.3 2144.1,614.4 2140.7,612.7 2135.7,610.4 2132,610.1 2131.9,612.6 
		2134.5,615.9 2135.6,618.7 2137.5,619.4 2137.9,620.9 2134.9,622.5 2131.5,622.2 2123.6,618 2116.3,616.7 2113.1,615 2111.9,611.9 
		2109.5,612.3 2099.6,606.5 2096.3,606.2 2087,598.2 2084.8,596.5 2073.2,591.9 2068.6,593.6 2062.1,589.3 2052.8,585.5 
		2048.1,582.3 2037.2,577.3 2027.5,571.8 2023.9,571.3 2021.1,568.8 2020.1,569 2016.9,569.7 2014.6,566.2 2010.7,566.9 
		2007.9,564.8 1996,560.1 1992.9,558.1 1984.9,557.4 1966.4,551.9 1958.1,551.4 1946.4,551.6 1939,550.1 1934.4,550.7 1928.6,549.7 
		1928,549.8 1918,551.5 1914.1,553.2 1912.7,551.8 1911.5,548.7 1912.7,542 1911.1,541.9 1909.1,549.1 1910,553 1896.9,554.1 
		1887.9,552.7 1884.8,550.8 1878.3,547 1843.3,517.3 1842.2,514.2 1845.7,514.4 1847.2,513.9 1847.6,512.3 1845,509.2 1839.4,507.6 
		1841.4,512.6 1840.1,513.3 1836.9,509 1833.6,506.6 1829.4,501.8 1827,498.2 1827.9,496.2 1829.8,496.6 1830.9,495 1828.7,492.9 
		1827.1,492.2 1825.1,497.6 1823.3,497.5 1813.9,487.9 1810.5,483.2 1800,473.2 1794.7,469.1 1791.1,467.6 1786.9,462.2 
		1776.2,452.9 1760.2,439 1753,433.3 1739,424.2 1742,422.7 1745.3,423.8 1754.1,422.1 1756.7,418.1 1758,415.6 1759.1,409.8 
		1761.9,403.8 1761.4,402 1762.8,397.1 1767.9,385.6 1764.7,386.6 1759.8,391.6 1759.4,395.2 1756.5,394.9 1753.5,404.5 
		1748.5,409.4 1733.1,416.8 1734.7,419.8 1733.1,420.5 1715.7,408.2 1713.9,405.6 1711.9,405.4 1707.3,402.5 1700.6,396.2 
		1697.6,395.8 1695,396.7 1692.5,395.7 1690.5,393 1689.9,392.3 1674.1,387.9 1660.5,379.9 1652.4,371.2 1644.8,366.4 1641.5,365.2 
		1640.1,362.6 1641.7,355.3 1638.6,342.7 1635.6,340.3 1635.9,338.4 1637.2,337.2 1637.3,335.8 1639.2,333.9 1646.9,331.6 
		1651.1,331.9 1657.2,336.8 1659.8,331.7 1656.2,329.7 1653.7,329.3 1652.4,327.9 1649.5,328 1645.4,329.1 1640.6,327.2 
		1635.9,327.8 1629.8,331.8 1626.4,335.6 1624.6,338.7 1622.3,340.5 1621.8,340.2 1621.1,340.2 1620.3,340.2 1618.5,340.1 
		1617.7,340.8 1617.4,341 1617.1,342.5 1616.4,342.4 1616.1,342.3 1615,342.5 1615,344.8 1617.4,349.3 1622.2,355.1 1627.6,358.2 
		1636.2,361.8 1639.4,364.9 1639.2,365.9 1638.6,365.7 1619.8,359.7 1617.8,360.1 1601.9,367.3 1600,371.2 1603.7,379.1 
		1602.9,380.8 1599.5,381.9 1593.6,382.3 1589.4,382.1 1580.1,381.8 1558.1,388.2 1551,388.5 1547.5,391.5 1533,396.1 1526.2,392.8 
		1525.6,392 1519.2,384.3 1511,371.9 1502.1,371.7 1496.6,369.9 1494.9,371.8 1492.8,377.4 1490.5,379.2 1474.3,384.4 1470.9,386.9 
		1465.5,387.3 1460.8,386.7 1456.1,388.2 1451.6,386.7 1449.3,388.2 1438.6,390.1 1437.8,390.3 1429.6,390.3 1422.7,387.7 
		1418.5,388 1414.4,389.2 1411.9,391.7 1410.4,391.4 1406.7,390.6 1392.3,387.3 1388.6,384.2 1381.9,384.8 1378.8,382.7 
		1377.8,380.9 1371.1,377 1368.8,377.5 1358.9,386.1 1356.3,386.4 1355.8,390 1356.3,392.6 1355,394.5 1350.9,392.6 1350.2,390.6 
		1351.5,388.5 1350.2,387.7 1342.6,391.3 1340,394 1333.1,391.8 1325,401.2 1318.2,400.9 1309.8,399.2 1306.3,396.8 1303.1,396.1 
		1301.9,395.9 1297.2,397.5 1288.5,405 1285.3,406.2 1282.3,407.4 1281.2,402.9 1279.1,402.9 1275.1,397 1274.4,394.6 1275,393 
		1277.5,391.2 1279.7,387.2 1282,385.2 1282.3,380.8 1283.8,376.5 1281.8,374.9 1280,371.9 1278.6,369.4 1276,367.1 1275.5,368 
		1274.3,366 1273.6,361.2 1275.6,354.8 1278.6,354.5 1283.2,344.2 1283.6,339.2 1285.4,336.2 1285.4,332.5 1297.8,329.8 
		1298.7,328.3 1297.4,324.8 1295.2,325.4 1291.4,326.6 1285.8,324.7 1283.5,324.8 1281.6,322.8 1279,322.3 1275.3,317.8 
		1274.3,314.6 1271.2,314.9 1269.5,311.6 1271.6,309.8 1270.5,308.4 1270.8,307.3 1282.7,297.1 1284.2,287.9 1283,279.2 
		1284.1,277.4 1282.8,272.5 1284.2,268.5 1283.5,264.9 1284.8,258 1285.7,256.6 1288.5,251.8 1298.4,255.4 1300.2,258.9 1299.7,259 
		1303,262.6 1306.4,264.1 1310.3,271 1313.4,273.1 1314.6,275.5 1317.1,276.4 1320.9,281.4 1324.7,297.1 1320.9,299.6 1322.3,305.6 
		1321.8,308.4 1322.4,310.6 1327,306.5 1328.9,305.7 1341.4,310.6 1351,311.5 1356.8,310.1 1357.1,309.1 1357.6,307.6 1357.3,302.2 
		1357.9,299.5 1361.8,297.1 1366,292 1370.5,290.5 1372.2,292 1375.6,291.7 1384.2,285 1389.4,280.9 1395.6,280.4 1402.8,287 
		1408.9,288.9 1409.9,287 1414.2,286.3 1421,279.6 1422.3,275.2 1428.4,273.2 1431.5,270.5 1433.4,271.5 1439.1,270.6 1439.9,270.5 
		1441.7,273.9 1443.9,271.2 1447.9,270.3 1453.4,261.2 1456.6,264.1 1459.7,262.6 1465.4,262.2 1462.1,258 1461.4,258.2 
		1457.9,254.9 1452.3,252.9 1447.6,247.6 1449.7,246.5 1448.3,244.3 1445.2,244.9 1442.8,246.2 1441.4,246.1 1442,244.4 
		1443.7,243.7 1443.8,240.7 1445.3,239.1 1445.1,236.8 1453.5,231.9 1454.2,233.2 1451.3,236.6 1454.1,237.2 1456.2,234.9 
		1459.5,233.4 1461.4,237.5 1461.1,240.3 1457.5,237.4 1456.9,239.2 1453.7,240.3 1450.6,241.4 1451.2,243.1 1455.2,244.7 
		1462.1,243.2 1463.4,245.3 1468.6,244.3 1468.2,241.1 1471.7,241.4 1473.6,240.5 1473.3,238.8 1467.7,237.2 1466.7,235.7 
		1467.5,233.9 1473,234.3 1474.7,232.8 1474.6,232.1 1465.7,229.2 1463,226.7 1462,225 1458.4,219.2 1453.2,215.4 1448.5,213.6 
		1444.5,214.7 1444.6,211.9 1447.3,210.5 1448.5,208.2 1452.8,209.7 1456.6,213.8 1460,214.6 1462.8,213.1 1465.7,208.9 
		1466.9,209.8 1465.7,213.5 1467.9,216.2 1471.7,214.1 1472.4,216.4 1472.6,216.9 1477.5,216.1 1478.3,212 1481.2,211.2 
		1485.1,215.3 1487.5,215.2 1489.7,220.6 1489.4,226 1490.6,227.5 1492.3,225.1 1497.5,226.1 1500.6,225.7 1500.5,225 1493.6,221.4 
		1494.2,218.3 1496.7,217.7 1496.9,215.4 1494.7,214.1 1494.6,213.1 1497.6,212.4 1499.5,212 1499.7,211.5 1500.2,210.3 
		1493.1,205.6 1494.2,201.5 1498.5,200 1503.4,204.3 1503.9,207.2 1502.5,210 1503.4,210.7 1508.8,209.7 1512,207.3 1510.6,205.2 
		1511.1,203.7 1515.5,202.9 1518.5,201.3 1521.2,201.6 1521.1,201 1526,200 1526.1,198.7 1521.6,196.9 1518.3,195.6 1510.4,199.6 
		1507.9,199.1 1506.3,200.7 1505,199.4 1508.6,194.7 1506.2,190.8 1507,189.4 1509.7,188.3 1512.3,189.6 1515.3,186.2 1515.4,186.9 
		1518.8,187.3 1521.8,184.4 1518.2,181.8 1507,185.4 1504.8,184.3 1498.9,181.3 1493.2,183.3 1491.8,182 1494.7,179.9 1495.7,174.4 
		1494.2,167.6 1489.1,165.9 1483,166.9 1482.7,169.6 1478.6,170.5 1476.6,170.1 1475.5,171.7 1472.8,169.7 1474.2,167.8 
		1477.9,166.7 1475.2,164.3 1476.2,163 1476.6,163 1478.9,162.7 1480.6,158.9 1480.4,152.6 1481.5,151.7 1492.1,136.9 1496.2,134.5 
		1514.5,109.1 1516.3,108.9 1520.7,112.3 1525.6,111.2 1527.3,112.2 1527.9,112.6 1531.6,111.6 1535,112.7 1538.1,112.1 
		1539.2,109.9 1537.4,108.3 1529.5,108.5 1527.9,103.6 1533.4,98.7 1539.2,96.1 1542.2,92 1543.4,91.8 1545.7,91.3 1547.8,92.6 
		1549.7,91.7 1549.7,88.1 1553.8,88.7 1555.4,91.6 1554.1,95.4 1556.7,98.6 1561.5,98.7 1563.6,96.3 1566.3,95.6 1566.3,96.1 
		1571.4,93.9 1572.3,99.2 1577.8,102.6 1586.5,101.7 1589,97.2 1591.5,92.3 1595.7,88.9 1601.6,87.6 1603.7,86.6 1604.9,86 
		1604.8,85.4 1598.2,84 1594,84.6 1588.9,87.8 1587.2,91.5 1583.1,94.3 1577.8,93.6 1576.6,91.4 1584.9,88.4 1587,86.3 1586.1,83.5 
		1581.1,79.8 1572.3,79.6 1571,79.5 1563.7,81.7 1559.5,80.8 1556.6,81.4 1547.2,78.3 1543.7,74.6 1531.2,76.9 1525,82.6 
		1520.9,83.5 1520.2,84.9 1511.9,92 1509,97.1 1508.7,97.2 1501.8,99.7 1497.3,108.9 1493.6,111.6 1490.5,115.8 1482.6,120 
		1474.2,128.2 1469.8,128.9 1466.9,131.5 1464.7,130.3 1455,131.3 1451.1,131.8 1442.8,131.6 1438.8,127.4 1435.2,125.3 
		1431.7,124.9 1427.9,127.3 1426.5,124.5 1430.1,122.7 1432.4,117.7 1435,117.1 1436.5,113.6 1439.7,113 1444.9,102.3 1446.5,102.8 
		1447.5,105 1449.4,101.9 1453.4,97.7 1453.6,93.9 1457.3,94.7 1462.8,92.9 1465,95 1466.9,94.7 1468.2,91 1470,90.6 1472.8,93.6 
		1476.5,92.7 1479.6,91.3 1479,87.9 1479.8,85.9 1484.1,84.7 1483.4,83.7 1481.9,81.6 1475.2,85.1 1470.7,79.5 1468,80 1468.1,80.5 
		1464.6,79.5 1461.2,82.6 1458.9,82 1455.7,82.5 1453.8,84.5 1455,90.3 1453.4,90.5 1446.4,84.6 1444.9,82.4 1441.5,77.1 
		1445.2,67.2 1447.6,65.5 1446.3,58.3 1447.1,49.2 1449.7,48 1449.4,57.1 1453.3,53.6 1453.5,42.8 1456.2,39.5 1455.2,36.4 
		1456.6,30.8 1462.2,17.9 1463.3,17.7 1465.1,19.8 1466.5,19.8 1468.6,16.8 1473.5,15.1 1479.2,8.3 1483.2,10 1492,6.8 1497,4.1 
		1501.1,5.5 1504.5,4.7 1505.8,5.4 1507.5,4.4 1507,1.9 1505.5,1.6 1502.1,-1.8 1501.3,-1.2 1494.1,-0.9 1493.5,-2.4 1499,-4.2 
		1502.3,-7.5 1505.5,-16 1508.9,-19.6 1507.1,-21.7 1501,-20.5 1495.9,-20.7 1493.4,-18 1487.4,-14.6 1484.1,-13.7 1483.6,-12.5 
		1486.3,-8.7 1482.9,-7.6 1479.7,-9.6 1477.8,-7.4 1476.2,-3.5 1474.5,-2.5 1470.7,4.9 1468.3,6.2 1467.9,4 1470.9,-0.7 1472.4,-3 
		1470.2,-5.6 1466.9,-2.8 1463.6,-2.4 1457.2,8.6 1450.3,8.5 1444.7,12.3 1442.4,3.7 1446.1,-2.5 1449.1,-10.5 1449,-14.5 
		1447.5,-14.3 1443.8,-10 1444.1,-6.9 1444.2,-6.1 1439.6,-1.2 1437.9,4 1437.1,8.9 1438.6,14 1435,16.1 1431.1,20.8 1432.3,24.7 
		1431.3,39.2 1429.4,40.6 1426.3,40.4 1425.1,40.1 1425.5,36.8 1423,37.6 1420.2,40.3 1413.3,46.7 1411.5,46.3 1413.8,42.3 
		1417.1,39.8 1417.4,37.6 1411.6,41.3 1409.2,41.2 1406.8,39.5 1405.7,37.4 1405,37.5 1402.6,34.6 1402.7,27.2 1400,26.9 1400.4,23 
		1399.5,22.8 1393.7,31.4 1392.7,31.8 1392.7,30.9 1392.5,27.8 1401,10 1402.3,5.7 1396.6,5.5 1395.8,1 1396.5,-0.2 1398.8,-0.5 
		1399.1,-2.3 1397.4,-4.3 1392.7,-1.9 1392.5,-4 1396.1,-8 1392.7,-10.2 1392.3,-12.3 1394.7,-15.5 1395,-15.9 1395.8,-19.1 
		1394.2,-19 1388.8,-12.5 1386.2,-14.3 1382.1,-12 1378.8,-7.2 1377.2,-7 1374.4,-8.6 1372.1,-7.2 1366.9,-16.7 1368.4,-20.8 
		1365.3,-22.1 1366.9,-25.6 1366.8,-33.5 1370.8,-37 1369.9,-38.7 1369.8,-38.9 1364.1,-37.6 1362.3,-42.3 1359.1,-47.6 
		1359.6,-50.4 1344.5,-60.6 1344.2,-65.7 1346.7,-65.1 1349,-60.5 1352.2,-57.8 1361.8,-52.5 1361.7,-53.1 1363.7,-53.5 
		1373.4,-55.6 1373.7,-57 1371.2,-59.3 1365.6,-56.3 1365,-57.6 1370.1,-69.7 1371.5,-71 1378.8,-71.4 1376,-74.5 1369.8,-76.6 
		1371.9,-80.8 1374.5,-85.6 1353.3,-67.7 1351.8,-68.2 1352.2,-69.5 1352.9,-72.7 1351.1,-76.1 1357.3,-79.1 1361.4,-82.3 
		1365.5,-91.7 1368.8,-92.3 1370.2,-99.3 1370.5,-105.8 1372.5,-107.4 1377.5,-109.4 1378,-112.5 1376.9,-115.8 1371.1,-117.7 
		1366.6,-121 1364.9,-121.2 1363.1,-119.5 1360.6,-119.1 1359.1,-120.6 1355,-120 1350.9,-116.5 1346.1,-118.7 1346,-119.3 
		1350.4,-121 1349.1,-125.4 1352.6,-127.1 1352.9,-130.5 1348.6,-129.3 1344.7,-128.2 1346,-130.6 1351.6,-134.9 1354.5,-143.6 
		1353.9,-145.8 1358.5,-149 1357.5,-150 1354.2,-149.8 1350.5,-146 1349.9,-140.8 1347.5,-137.7 1342.5,-138.3 1342.3,-140 
		1342.7,-141.5 1344.4,-142.2 1345.8,-142.9 1345.9,-144.5 1345.1,-146 1344.5,-145.9 1343.6,-144.5 1342.7,-142.5 1341.8,-142.2 
		1339.4,-142.2 1337.8,-142.5 1336.9,-140.6 1336.8,-137.6 1335,-136.2 1328.8,-138.9 1326.7,-141.5 1323.5,-139.7 1311.3,-128.6 
		1311.4,-127.8 1317.9,-125.7 1318,-125 1314.6,-123.8 1304.7,-125.7 1298,-121.1 1296.3,-121.1 1295.4,-121.1 1287.2,-126.6 
		1288.9,-128 1297.9,-125 1300,-125.6 1301.3,-129.4 1297.5,-131.6 1295.4,-130 1292.3,-132 1293.9,-134.5 1293.3,-139.1 
		1290.1,-139.7 1287.6,-141.7 1284.9,-141.9 1283.3,-142.1 1273.3,-138.9 1269.8,-139.8 1266.4,-138.7 1266.6,-137.2 1278.4,-129.4 
		1283.3,-125.2 1283,-124.2 1275.8,-128 1268.4,-133.2 1261.6,-135 1258.8,-135.4 1254.3,-135.9 1250.2,-139.6 1231.8,-135.5 
		1226.6,-135.5 1221.5,-139.2 1211.3,-139.8 1211,-139.1 1205.1,-137 1198.6,-139.2 1191.4,-138.7 1181,-140.8 1172.8,-144.4 
		1167.4,-145.2 1150.6,-152.3 1145.2,-152.7 1132.7,-153.6 1124.8,-151.8 1120.6,-148.5 1120.8,-142.3 1119.5,-139 1114.9,-136.2 
		1108.3,-134.1 1105.3,-134.4 1099.7,-138.5 1093.1,-140.3 1088.4,-140 1076,-139.2 1075.8,-140.2 1079.6,-142 1091,-143 
		1088,-145.1 1082.9,-146.1 1079.1,-144.8 1069.9,-139.4 1061.6,-129.3 1061,-126.6 1061.5,-125.7 1064.3,-120.5 1062.7,-116.5 
		1058.6,-111 1059.3,-111.1 1060.6,-107.3 1052.9,-105.1 1045.5,-108.1 1040.4,-106 1034.2,-103.4 1027.9,-103.6 1021.1,-98.6 
		1016.3,-103.1 1013.5,-103.6 1011.2,-106 1007.4,-106.9 1006,-108.7 1002.7,-108.7 999.6,-111.5 993.6,-112.6 993.4,-117.1 
		989.6,-126.7 989.4,-127.1 986.3,-131.4 979.1,-147.9 979.9,-152.7 977.2,-153 976.4,-149.8 974.2,-149.4 972.6,-150.9 
		969.8,-160.4 964.7,-170.1 962.3,-184.6 964.6,-185.9 969,-183.3 973.1,-185.6 976.1,-185.5 979.4,-190 981.8,-190.4 984.1,-195.2 
		988.8,-197.6 991.7,-202.8 994,-203.4 997,-202.3 1004.2,-207.6 1007.2,-207.8 1010.5,-206.6 1014.1,-209.9 1016.6,-207.4 
		1017.7,-206.4 1015.1,-205.7 1015.1,-203.9 1020.9,-198.3 1023.2,-197.9 1018.7,-204.3 1020.5,-204.8 1027.7,-197 1040.1,-194 
		1044.6,-190.6 1051.2,-189 1053.1,-189.2 1057.3,-189.6 1060.2,-188.5 1065.2,-192.5 1070.4,-202 1073.2,-202.1 1076.9,-200.4 
		1082.6,-201.8 1087.1,-205.6 1091.9,-217.1 1095,-220.7 1098.3,-221.2 1104,-219.7 1104.7,-219.5 1109.9,-219.6 1116.1,-221.9 
		1118.3,-221.7 1118.9,-220.6 1117,-217.9 1124.5,-217.1 1120.4,-228.1 1124.1,-227.7 1127.7,-230.2 1128.1,-231.7 1133.4,-228.9 
		1134.8,-222.7 1131.4,-216.9 1131.4,-214.8 1131.4,-213.9 1133.2,-212.3 1136,-212.8 1137.7,-214.4 1135.6,-217.2 1137.5,-219.6 
		1140.2,-220 1142.4,-218.7 1143.9,-214 1140.4,-211 1140.5,-207.7 1144.3,-205.3 1149.7,-208.5 1151.5,-208.4 1154.4,-206 
		1157.5,-206.3 1158.5,-206.4 1160.9,-209.3 1163.3,-222.4 1160.5,-227.5 1160.6,-233.2 1157.4,-242.1 1158.4,-247 1160.4,-249.8 
		1163.4,-254 1167.8,-258.1 1174.4,-256.2 1177.6,-254.6 1179.5,-253.5 1192.1,-251.5 1192.4,-250.4 1191.8,-249.8 1185,-242.5 
		1182.1,-235.4 1183.6,-230.2 1179.5,-229.9 1178.1,-224.6 1174.2,-219.6 1177.7,-214.5 1179.6,-215.8 1182.4,-211.7 1183.4,-210.2 
		1183.9,-205.6 1186.7,-205.5 1189,-201.4 1190.4,-202.1 1190.9,-208.6 1188.1,-226.5 1188.6,-227.9 1191,-226.9 1191.8,-229.3 
		1197.1,-228.3 1201.5,-225.2 1205.9,-225.3 1208.7,-221.5 1208.3,-219.2 1206.8,-210.4 1207.8,-208.8 1209.3,-209.6 1211.4,-218.6 
		1210.5,-225.7 1208.3,-228.2 1199.9,-229.5 1198.6,-231.1 1201.3,-243.5 1205.6,-248.7 1206.9,-249.8 1210.8,-253 1212.6,-254.5 
		1220.1,-254.3 1225.2,-251 1226,-249.8 1227.3,-247.8 1228.1,-241.3 1232.2,-241.7 1234.2,-245.4 1237.3,-246.1 1241.7,-249.8 
		1243.9,-251.6 1247.1,-251.9 1249.7,-249.8 1249.8,-249.8 1254.5,-254.7 1263.1,-259.3 1263.4,-259.5 1265.6,-262.6 1245.6,-264.2 
		1244.9,-265.9 1246.2,-268 1254.8,-271.2 1256,-268.7 1258.6,-269.4 1261.1,-277.7 1270.2,-281.9 1272.9,-287.2 1274.5,-288.3 
		1277.6,-290.6 1280.1,-289.6 1280.6,-287.1 1277.7,-283.9 1278.1,-281.7 1282.9,-285 1285.2,-281.7 1288.6,-279.5 1285.1,-278.7 
		1283.7,-274.1 1288.1,-274.4 1288.2,-273.8 1285.1,-270.3 1284.1,-266.5 1280,-265.1 1276.6,-262.2 1274.1,-261.4 1273.4,-260 
		1275.5,-259.2 1278.7,-259.6 1278.8,-259.6 1280.8,-261.8 1284,-261.5 1286.9,-265.2 1289.1,-264 1287.8,-259.2 1286.5,-257.9 
		1290.3,-255.7 1290.3,-251.6 1290.9,-249.8 1291.4,-248 1296.5,-244.1 1300.4,-244.8 1307,-239.9 1312.2,-231.6 1313.5,-231.4 
		1311.9,-236.7 1311.1,-238 1304.1,-248.2 1303.5,-249.8 1302.8,-251.6 1305.3,-256.6 1304.6,-260.2 1308.2,-263.8 1309.5,-266.5 
		1314.3,-263.9 1315.9,-264.1 1314.7,-270.1 1322.7,-276.2 1328.9,-274.4 1332.3,-274.6 1342.1,-272.3 1349.8,-274.6 1355.4,-278.1 
		1363.6,-278.2 1364.9,-280.2 1366.4,-279.9 1372.2,-282.2 1373.8,-279.8 1378.3,-278.3 1380.7,-274 1386.3,-274.8 1398.6,-270.9 
		1399.1,-266.3 1400,-266.2 1406.8,-265.7 1408.5,-263.9 1409.6,-265.1 1413.7,-265.8 1417,-262 1418.9,-262.1 1421.8,-269.1 
		1426.4,-266.5 1427.7,-266.4 1429.7,-268.6 1441.9,-267.4 1450.7,-263.1 1459.3,-264.1 1463.8,-260.8 1467.6,-261.5 1475,-262.9 
		1494.2,-263.8 1496.2,-260.7 1498,-262.5 1500.8,-264.7 1501,-268 1502.7,-271.1 1500.6,-281 1495.2,-283.1 1492.7,-284.1 
		1491.5,-288.3 1493.9,-292.8 1502,-298.7 1504.3,-302.4 1503.3,-310.1 1507.1,-312.7 1511.5,-321.2 1514.1,-330.2 1516.1,-332.4 
		1519.3,-342.9 1518.6,-342.8 1517.5,-346.6 1516,-356.4 1512.7,-361.1 1512,-360.4 1506.6,-361.9 1502.3,-361.5 1495.8,-360.8 
		1494,-359.2 1493.3,-353.4 1490.6,-350.4 1491.7,-344.7 1490.9,-340.9 1488.7,-342 1484.2,-335.4 1477.7,-330.6 1468.4,-320.9 
		1452.3,-310 1447.4,-308.6 1433.6,-307.7 1430.8,-306.4 1427.9,-307.4 1424.2,-307.2 1422,-308.8 1420.6,-309.8 1419.8,-313.4 
		1412.5,-314.2 1408.3,-313.6 1405.7,-315.5 1399.8,-314.6 1397.3,-316 1392.9,-314.4 1389.6,-316 1386.1,-319.5 1379.1,-322.9 
		1377,-323 1373.1,-326.3 1363.7,-330.7 1361.6,-334.6 1357.9,-341.6 1354.3,-340.9 1353.5,-336 1348.8,-336 1344.8,-334.9 
		1343.3,-331.4 1341.2,-333.1 1339.2,-333.2 1336.5,-335.8 1328.4,-336.6 1321.4,-335.8 1317.4,-339.1 1318.8,-341.5 1317.6,-344.7 
		1320.5,-345.1 1322.9,-343.6 1326.4,-341.2 1330.1,-341.4 1332.8,-343.4 1336.8,-349.8 1341.6,-347.9 1344.2,-350.2 1341.9,-352.1 
		1329,-355.4 1326.6,-354.6 1322,-350.7 1320.3,-351.5 1322.7,-355.8 1328.3,-361.2 1331.2,-372.9 1335.3,-376.1 1337,-380.1 
		1339.3,-380.9 1341.5,-379.8 1345.1,-381.3 1348,-382.5 1351.8,-385.7 1351.8,-390.4 1350.7,-392.4 1354.8,-394.9 1358.1,-400.2 
		1360.3,-399.6 1360.6,-396.9 1363,-396.4 1365.9,-400.3 1367.4,-405.6 1366.2,-409.2 1367.2,-411.1 1371.2,-412.5 1376.2,-413.1 
		1386.3,-417.9 1388.7,-420.1 1393.7,-420.2 1395.2,-420.3 1408.2,-426.1 1415.4,-430 1423.4,-438.7 1428.6,-442.1 1439.9,-450.7 
		1441.4,-454.1 1444.2,-454.3 1447.9,-458.4 1448,-457.9 1454.3,-458.4 1457.3,-460.6 1459.8,-467.6 1459.1,-467.5 1458.3,-469.7 
		1460.4,-469.4 1465.7,-459.7 1468.6,-461.3 1463.7,-470 1469.2,-472.8 1472.4,-478.5 1479.9,-477.6 1480,-476.9 1502,-482.1 
		1504.5,-481 1505.6,-481.7 1513.3,-486.4 1520.3,-494.1 1503.3,-490.5 1499.4,-489.3 1495.8,-490.2 1491.6,-493.5 1468.4,-494 
		1462.9,-493.5 1459.9,-490.1 1458.7,-491.4 1408.8,-491.4 1408.4,-492 1402.5,-484.7 1400,-484.3 1398.6,-485.6 1396,-484.4 
		1393.1,-488.1 1392.2,-489.2 1388.3,-488.8 1387,-491.2 1383.9,-489.5 1576.8,-493.6 1577.7,-492.7 1584.5,-494.2 1631.6,-494.1 
		1636.6,-489.1 1638.5,-486.4 1642.7,-487.2 1643.3,-483.5 1640.7,-475.9 1645,-469.5 1646.1,-462.5 1644.4,-456.1 1646.9,-441.3 
		1644.5,-428.3 1643.2,-421.5 1644.3,-412.6 1648.2,-409.3 1648.5,-403.8 1651.4,-400 1650.7,-397.2 1653,-393.1 1657.6,-385 
		1657.9,-378.8 1666.6,-360.9 1667,-348.7 1667.7,-338.5 	"/>
	<path fill="#E5EDF0" d="M2502.2-66.7c-2.4,6-9.6,20.4-25.3,16.8c-15.6-3.6-26.5-3.6-33.7,8.4c-7.2,12-9.6,15.6-18,22.9
		c-8.4,7.2-9.6,18-7.2,25.3c2.4,7.2,14.4,18,14.4,18l9.6,1.2c0,0-19.2,12-22.9,18c-3.6,6-9.6,21.7-14.4,32.5
		c-4.8,10.8-14.4,24.1-19.2,28.9c-4.8,4.8-14.4,52.9-1.2,58.9c13.2,6,14.4,7.2,15.6,15.6c1.2,8.4,14.4,12,13.2,18
		c-1.2,6-7.2,50.5,12,50.5c19.2,0,22.9,8.4,34.9,7.2c12-1.2,24.1-6,26.5-14.4c2.4-8.4,2.4-12,3.6-16.8c1.2-4.8,3.6-16.8,3.6-16.8
		s12,2.4,20.4-6c8.4-8.4,14.4-18,20.4-12c6,6,10.8,0,13.2-4.8c2.4-4.8,3.6-12,9.6-9.6c6,2.4,9.6,4.8,14.4,8.4
		c4.8,3.6,14.4,12,7.2,25.3c-7.2,13.2-8.4,42.1-8.4,49.3c0,7.2-7.2,33.7,6,42.1c13.2,8.4,43.3,6,50.5-1.2c7.2-7.2,13.2-18,3.6-27.7
		c-9.6-9.6-21.7-14.4-14.4-19.2c7.2-4.8,12-9.6,13.2-15.6c1.2-6,2.4-13.2,21.7-8.4c19.2,4.8,37.3,3.6,42.1,10.8
		c4.8,7.2-3.6,16.8-9.6,24.1c-6,7.2-9.6,13.2,1.2,24.1c10.8,10.8,24.1,20.4,28.9,25.3c4.8,4.8,14.4,10.8,24.1,10.8
		c9.6,0,30.1-3.6,36.1-13.2c6-9.6,9.6-19.2,12-25.3c2.4-6,4.8-12,10.8-16.8c6-4.8,25.3-13.2,34.9-14.4c9.6-1.2,22.9-18,16.8-30.1
		c-6-12-10.8-13.2-12-24.1c-1.2-10.8,2.4-26.5,2.4-26.5s7.2,7.2,13.2,14.4c6,7.2,15.6,9.6,21.7,3.6c6-6,10.8-9.6,1.2-18
		c-9.6-8.4-10.8-13.2-10.8-19.2c0-6,7.2-10.8,15.6-8.4c8.4,2.4,22.9,6,30.1,8.4c7.2,2.4,31.9-294.7,19.8-298.3
		c-12-3.6-51.1-1.2-63.1-3.6c-12-2.4-19.2-1.2-27.7,8.4c-8.4,9.6-9.6,19.2-22.9,20.5c-13.2,1.2-27.7,9.6-32.5,21.6
		c-4.8,12-10.8,30.1-19.2,37.3c-8.4,7.2-30.1,14.4-19.2,4.8c10.8-9.6,9.6-15.6,6-27.7c-3.6-12-7.2-26.5-12-22.9
		c-4.8,3.6-8.4,9.6-8.4,18c0,8.4-7.2,21.7-12,12c-4.8-9.6-4.8-16.8,4.8-33.7c9.6-16.8,6-28.9,2.4-38.5c-3.6-9.6-7.2-15.6-16.8-14.4
		c-9.6,1.2-25.3,10.8-36.1,8.4c-10.8-2.4-32.5-3.6-40.9,7.2s-16.8,13.2-36.1,13.2s-36.1,0-39.7,7.2c-3.6,7.2-7.2,16.8-25.3,26.5
		c-18,9.6-19.2,20.4-19.2,20.4S2504.6-72.7,2502.2-66.7z"/>
	<path fill="#E5EDF0" d="M2140.1-182.1c-15.6,9.6-19.2,20.5-19.2,28.9c0,8.4-1.2,25.3,2.4,30.1c3.6,4.8,8.4,26.5,16.8,31.3
		c8.4,4.8,16.8,13.2,20.5,20.5c3.6,7.2,24.1,21.7,34.9,13.2c10.8-8.4,18-21.7,20.5-10.8c2.4,10.8,10.8,14.4,20.4,14.4
		c9.6,0,14.4-3.6,10.8-15.6c-3.6-12-7.2-20.4,4.8-18c12,2.4,22.9-1.2,28.9-12c6-10.8,14.4-31.3,14.4-38.5s7.2-13.2-1.2-43.3
		c-8.4-30.1-20.4-22.9-24.1-34.9c-3.6-12-20.5-7.2-27.7-4.8c-7.2,2.4-16.8-1.2-31.3-9.6c-14.4-8.4-26.5-7.2-33.7-1.2
		c-7.2,6-15.6,10.8-18,21.7c-2.4,10.8-9.6,19.2-9.6,19.2S2155.8-191.8,2140.1-182.1z"/>
	<path fill="#E5EDF0" d="M1974.1-203.8c-9.6,0-22.9,12-28.9,18c-6,6-27.7,32.5-27.7,40.9s-1.2,22.9-1.2,22.9s-7.2-7.2-14.4,0
		c-7.2,7.2-13.2,19.2-18,25.3c-4.8,6-19.2,9.6-28.9,13.2c-9.6,3.6-34.9,15.6-39.7,21.7c-4.8,6-18,15.6-24.1,20.4s-9.6,40.9,2.4,32.5
		c12-8.4,21.7,4.8,24.1,13.2c2.4,8.4-3.6,18,13.2,21.7c16.8,3.6,25.3-4.8,26.5-12c1.2-7.2,9.6-25.3,12-4.8
		c2.4,20.4,10.8,28.9,24.1,14.4c13.2-14.4,26.5-25.3,39.7-31.3c13.2-6,21.7-4.8,26.5-19.2c4.8-14.4-6-15.6,8.4-28.9
		c14.4-13.2,15.6-20.4,10.8-27.7c-4.8-7.2-6-13.2,6-21.7c12-8.4,20.5-10.8,13.2-24.1c-7.2-13.2-9.6-14.4-2.4-21.6
		c7.2-7.2,13.2-18,8.4-37.3C1999.4-207.4,1983.8-203.8,1974.1-203.8z"/>
	<path fill="#E5EDF0" d="M2099.2,430.1c0,0-18-18-18,1.2c0,19.2,0,34.9-6,39.7c-6,4.8-7.5,17.9-11.1,22.7c-3.6,4.8-11.7,1.4-19-4.6
		c-7.2-6-21.7-9.6-28.9-9.6c-7.2,0-34.9-7.2-38.5,0c-3.6,7.2,0,20.5,8.4,22.9c8.4,2.4,15.6,8.4,25.3,14.4c9.6,6,29.4,9.8,39.7,1.5
		c19.4-15.7,33.6,5.7,42.1,14.1c8.4,8.4,25.3,13.2,57.7,12c32.5-1.2,36.1-10.8,36.1-19.2s1.2-21.7,9.6-30.1c8.4-8.4,6-21.7,0-26.5
		c-6-4.8-13.2-13.2-4.8-18c8.4-4.8,7.2-12-1.2-25.3c-8.4-13.2-25.3-14.4-28.9-20.4c-3.6-6-10.8-4.8-20.4-1.2
		c-9.6,3.6-20.5,3.6-27.7,7.2c-7.2,3.6-8.4,7.2-9.6,12C2102.8,427.7,2099.2,430.1,2099.2,430.1z"/>
	<path fill="none" stroke="#CBC9BC" stroke-linejoin="round" d="M1293-493.5"/>
	<polygon fill="none" stroke="#CBC9BC" stroke-linejoin="round" points="1284.5,-482.7 1282.8,-485.6 1285,-486 	"/>
	<polygon fill="none" stroke="#CBC9BC" stroke-linejoin="round" points="1267.8,-481.7 1266.2,-482.7 1266.5,-484.8 1268.7,-485.3 
		1268.9,-482.4 	"/>
	<polygon fill="none" stroke="#CBC9BC" stroke-linejoin="round" points="1409.6,-480.3 1409.1,-480.4 1410.5,-483 1411,-480.9 	"/>
	<polygon fill="none" stroke="#CBC9BC" stroke-linejoin="round" points="1274.3,-478.4 1273.8,-480.6 1276.3,-481.9 1276.2,-480.1 	
		"/>
	<polygon fill="none" stroke="#CBC9BC" stroke-linejoin="round" points="1281,-477.3 1278.8,-477.2 1279.6,-479.7 1281,-479.2 	"/>
	<polygon fill="none" stroke="#CBC9BC" stroke-linejoin="round" points="1288.3,-476 1287.2,-478.5 1289.1,-479.4 1289.2,-476.5 	
		"/>
	<polygon fill="none" stroke="#CBC9BC" stroke-linejoin="round" points="1220,-477.9 1220.7,-475.9 1219.5,-475.3 	"/>
	<polygon fill="none" stroke="#CBC9BC" stroke-linejoin="round" points="1202,-473.6 1199.8,-474.5 1200.7,-476 1202.1,-475.4 	"/>
	<polygon fill="none" stroke="#CBC9BC" stroke-linejoin="round" points="1296.1,-467.3 1295,-469.3 1296.6,-471.2 1297,-468.9 	"/>
	<polygon fill="none" stroke="#CBC9BC" stroke-linejoin="round" points="1226.1,-465.4 1221.6,-465.3 1221.5,-465.9 1225.3,-468.5 
		1227.3,-468 	"/>
	<polygon fill="none" stroke="#CBC9BC" stroke-linejoin="round" points="1299.5,-464.8 1299,-464.7 1299.3,-467.4 1300.9,-467.3 
		1300.9,-465.2 	"/>
	<polygon fill="none" stroke="#CBC9BC" stroke-linejoin="round" points="1233.6,-454.4 1230.6,-454.8 1230.4,-455.9 1236.7,-457 
		1237.6,-455.4 	"/>
	<polygon fill="none" stroke="#CBC9BC" stroke-linejoin="round" points="1393.8,-451.2 1391.5,-453.2 1393.6,-454 1394.8,-452.7 	
		"/>
	<polygon fill="none" stroke="#CBC9BC" stroke-linejoin="round" points="1253.2,-450.6 1255.1,-455.9 1257.5,-456 1257.5,-454.3 	
		"/>
	<polygon fill="none" stroke="#CBC9BC" stroke-linejoin="round" points="1398.8,-450.2 1397.7,-451.8 1399.8,-452.6 1399.8,-450.7 	
		"/>
	<polygon fill="none" stroke="#CBC9BC" stroke-linejoin="round" points="1386.7,-446.9 1386.6,-448.4 1388.4,-450.1 1388.8,-448.1 	
		"/>
	<polygon fill="none" stroke="#CBC9BC" stroke-linejoin="round" points="1390.9,-443.8 1388.2,-444.4 1388.9,-445.6 1391.4,-446 	
		"/>
	<polygon fill="none" stroke="#CBC9BC" stroke-linejoin="round" points="1301.4,-443 1300.6,-444.3 1302.8,-448 1305.7,-448.8 
		1306.2,-445.2 	"/>
	<polygon fill="none" stroke="#CBC9BC" stroke-linejoin="round" points="1428.6,-442.1 1427.1,-444.5 1427.2,-446.5 1428.8,-447.1 
		1430.2,-445.8 	"/>
	<polygon fill="none" stroke="#CBC9BC" stroke-linejoin="round" points="1388.5,-422.2 1386.6,-423.3 1387.6,-424.5 1389.4,-423 	
		"/>
	<polygon fill="none" stroke="#CBC9BC" stroke-linejoin="round" points="1335.9,-416.7 1333.7,-418 1333.5,-418.9 1337.5,-420.2 
		1337.4,-418.4 	"/>
	<polygon fill="none" stroke="#CBC9BC" stroke-linejoin="round" points="1249.8,-397 1246.4,-397.8 1248.2,-399.7 1251.4,-401.1 
		1253.3,-399.6 	"/>
	<polygon fill="none" stroke="#CBC9BC" stroke-linejoin="round" points="1314.9,-395 1312.8,-395 1314.3,-397.7 	"/>
	<polygon fill="none" stroke="#CBC9BC" stroke-linejoin="round" points="1337,-393.9 1335.3,-395.7 1337.2,-396.5 1338.2,-395.2 	
		"/>
	<polygon fill="none" stroke="#CBC9BC" stroke-linejoin="round" points="1346.1,-388.4 1344.1,-389.8 1346.5,-392.8 1347.5,-391.2 
		1347.2,-389.1 	"/>
	<polygon fill="none" stroke="#CBC9BC" stroke-linejoin="round" points="1265.2,-350.2 1262.8,-350.7 1262.7,-351.3 1264.9,-352.4 	
		"/>
	<polygon fill="none" stroke="#CBC9BC" stroke-linejoin="round" points="1308.2,-349.1 1307.8,-350.4 1309.4,-352.8 1317,-355.5 
		1316.9,-353.2 1311.5,-350 	"/>
	<polygon fill="none" stroke="#CBC9BC" stroke-linejoin="round" points="1326.8,-347.7 1330.4,-349.1 1331.4,-346.5 1329.8,-345.1 
		1325.9,-345.6 	"/>
	<polygon fill="none" stroke="#CBC9BC" stroke-linejoin="round" points="1314.5,-337.9 1312.5,-338.4 1312.2,-340.2 1314.2,-340.6 	
		"/>
	<polygon fill="none" stroke="#CBC9BC" stroke-linejoin="round" points="1294.3,-335.5 1292.5,-337 1293,-341.5 1298.6,-346 
		1303.2,-348.1 1304.8,-347.6 1305,-345.3 1304.2,-344.5 1300.7,-344.6 1295.6,-340 1296.1,-336 	"/>
	<polygon fill="none" stroke="#CBC9BC" stroke-linejoin="round" points="1334.9,-327.7 1328.9,-329.6 1327.8,-332 1334.1,-332.5 	
		"/>
	<polygon fill="none" stroke="#CBC9BC" stroke-linejoin="round" points="1287.5,-327.3 1287.2,-329.4 1289.6,-330.3 1291.5,-333.1 
		1293.5,-331.9 1293.5,-328.7 	"/>
	<polygon fill="none" stroke="#CBC9BC" stroke-linejoin="round" points="1261.3,-326.3 1258.7,-326.6 1261.1,-328.3 	"/>
	<polygon fill="none" stroke="#CBC9BC" stroke-linejoin="round" points="1326.5,-322.2 1319.9,-324.6 1320.1,-326.4 1323.8,-326.2 
		1326.6,-323.6 	"/>
	<polygon fill="none" stroke="#CBC9BC" stroke-linejoin="round" points="1350.5,-321.1 1346.4,-323 1346.3,-324.4 1348.5,-324.8 	
		"/>
	<polygon fill="none" stroke="#CBC9BC" stroke-linejoin="round" points="1313.7,-315.2 1313.2,-317.2 1316.2,-320.3 1318.5,-318.5 
		1316.4,-318.3 	"/>
	<polygon fill="none" stroke="#CBC9BC" stroke-linejoin="round" points="1281.8,-315 1279.9,-316.2 1280.3,-317.8 1282.8,-318.1 
		1283.1,-315.5 	"/>
	<polygon fill="none" stroke="#CBC9BC" stroke-linejoin="round" points="1306.6,-310.4 1304.7,-310.6 1304.5,-313.5 1306.4,-316.4 
		1308.4,-315.4 1307.8,-311.9 	"/>
	<polygon fill="none" stroke="#CBC9BC" stroke-linejoin="round" points="1384.4,-307.1 1385.7,-309.7 1386.5,-309.9 1386.4,-307.7 	
		"/>
	<polygon fill="none" stroke="#CBC9BC" stroke-linejoin="round" points="1259.3,-306.1 1260.2,-309.1 1261.7,-308.5 1261.9,-306.7 	
		"/>
	<polygon fill="none" stroke="#CBC9BC" stroke-linejoin="round" points="1331.3,-296.9 1327.2,-296.5 1326.6,-298.9 1329.5,-300.1 
		1332,-298.3 	"/>
	<polygon fill="none" stroke="#CBC9BC" stroke-linejoin="round" points="1221.9,-295 1221.1,-296.7 1224.3,-297.7 1224,-296.4 	"/>
	<polygon fill="none" stroke="#CBC9BC" stroke-linejoin="round" points="1150.5,-292.8 1149.7,-295.4 1151.9,-296.2 1151.7,-293.8 	
		"/>
	<polygon fill="none" stroke="#CBC9BC" stroke-linejoin="round" points="1271.9,-289.7 1268.9,-290.9 1272.2,-294.9 1272.9,-292.9 	
		"/>
	<polygon fill="none" stroke="#CBC9BC" stroke-linejoin="round" points="1345.2,-291.1 1336.3,-290.9 1333.5,-289.6 1331.5,-292.4 
		1333.8,-293.9 1339.4,-295.1 1343.3,-298.3 	"/>
	<polygon fill="none" stroke="#CBC9BC" stroke-linejoin="round" points="1147.6,-288.7 1145.3,-291.4 1147.9,-291.6 	"/>
	<polygon fill="none" stroke="#CBC9BC" stroke-linejoin="round" points="1363,-288.4 1361.8,-292 1362.8,-292.1 1365.6,-289.9 	"/>
	<polygon fill="none" stroke="#CBC9BC" stroke-linejoin="round" points="1343.7,-285.7 1339.4,-285.1 1337.3,-286.1 1337,-287.8 
		1339.3,-288.3 1343.9,-286.6 	"/>
	<polygon fill="none" stroke="#CBC9BC" stroke-linejoin="round" points="1250.9,-284 1249.1,-284.6 1249.2,-287.2 1251.7,-284.5 	
		"/>
	<polygon fill="none" stroke="#CBC9BC" stroke-linejoin="round" points="1331.3,-282.2 1325.8,-281.3 1327.8,-284.7 1331.9,-285.8 
		1332.5,-285.6 	"/>
	<polygon fill="none" stroke="#CBC9BC" stroke-linejoin="round" points="1207.1,-257.7 1210,-261.4 1209.7,-258.3 	"/>
	<polygon fill="none" stroke="#CBC9BC" stroke-linejoin="round" points="1246.2,-254.7 1246.1,-257.6 1248.6,-257.5 1248.7,-255.2 	
		"/>
	<polygon fill="none" stroke="#CBC9BC" stroke-linejoin="round" points="1322.5,-128 1319.9,-128.2 1320.3,-130.9 1322.9,-129.1 	
		"/>
	<polygon fill="none" stroke="#CBC9BC" stroke-linejoin="round" points="1335,-122.7 1336.8,-126.5 1337.3,-125.3 1336.6,-123.3 	
		"/>
	<polygon fill="none" stroke="#CBC9BC" stroke-linejoin="round" points="1358.8,-99.2 1354.3,-98.5 1352.1,-99.7 1339.4,-115.5 
		1336.9,-116.7 1336.8,-117.4 1338.9,-118.6 1340.9,-121.4 1341.9,-121 1343.2,-115.7 1353.5,-102.4 1357.4,-101.2 	"/>
	<polygon fill="none" stroke="#CBC9BC" stroke-linejoin="round" points="1361.7,-94.3 1360.1,-94.1 1359.5,-95.6 1360.9,-98.3 
		1362.1,-96.4 	"/>
	<polygon fill="none" stroke="#CBC9BC" stroke-linejoin="round" points="1355.7,-93.4 1353.4,-94.4 1355.8,-96.2 	"/>
	<polygon fill="none" stroke="#CBC9BC" stroke-linejoin="round" points="1354.2,-80.9 1356.9,-84.4 1359.7,-84.7 1359,-83.1 	"/>
	<polygon fill="none" stroke="#CBC9BC" stroke-linejoin="round" points="1350,-77.8 1347.6,-77.4 1347.7,-79.3 1349.2,-81 
		1351.7,-81.2 1351.4,-79.4 	"/>
	<polygon fill="none" stroke="#CBC9BC" stroke-linejoin="round" points="1327.7,-34.7 1326.1,-35.2 1325.7,-38.1 1328.2,-36.4 	"/>
	<polygon fill="none" stroke="#CBC9BC" stroke-linejoin="round" points="1361.9,-31.9 1359.9,-33.3 1360.8,-35.3 1363.4,-36.3 	"/>
	<polygon fill="none" stroke="#CBC9BC" stroke-linejoin="round" points="1358,-23.7 1358,-29.3 1360,-27.1 	"/>
	<polygon fill="none" stroke="#CBC9BC" stroke-linejoin="round" points="1382.6,-8.2 1384.6,-11.6 1384.8,-9 	"/>
	<polygon fill="none" stroke="#CBC9BC" stroke-linejoin="round" points="1372.4,-1.6 1366.5,-2 1361.4,-7.7 1364.1,-8.2 
		1368.3,-5.4 1373.1,-5.1 	"/>
	<polygon fill="none" stroke="#CBC9BC" stroke-linejoin="round" points="1387.7,0.9 1386,-0.1 1385.7,-2.2 1387.7,-3.1 1389.2,0.3 	
		"/>
	<polygon fill="none" stroke="#CBC9BC" stroke-linejoin="round" points="1381.8,3.4 1381,1.8 1382.9,-0.2 1383.3,3.1 	"/>
	<polygon fill="none" stroke="#CBC9BC" stroke-linejoin="round" points="1393.8,12.2 1393.7,10 1392.3,8.3 1392.2,6.4 1395.7,9 
		1395.1,11.6 	"/>
	<polygon fill="none" stroke="#CBC9BC" stroke-linejoin="round" points="1364.2,16.5 1363.4,16.6 1363.2,9.1 1367.5,4.5 1369.7,4.2 
		1371.5,7.2 1371,9.2 1366.8,11.6 	"/>
	<polygon fill="none" stroke="#CBC9BC" stroke-linejoin="round" points="1387,17.8 1385.5,18 1384.6,13.3 1385.8,12 1387.4,14.3 	
		"/>
	<polygon fill="none" stroke="#CBC9BC" stroke-linejoin="round" points="1383.4,21.3 1380.8,21.7 1383.1,18.5 1384,19.5 	"/>
	<polygon fill="none" stroke="#CBC9BC" stroke-linejoin="round" points="1394.9,38.6 1393.4,38.1 1394.3,33.8 1395.6,33.6 	"/>
	<polygon fill="none" stroke="#CBC9BC" stroke-linejoin="round" points="1405.1,44.4 1403.8,44.4 1399,39.2 1399.9,38.3 
		1403.7,40.7 	"/>
	<polygon fill="none" stroke="#CBC9BC" stroke-linejoin="round" points="1396.8,56.7 1394.3,55.9 1396.8,52.8 1398.5,54.1 	"/>
	<polygon fill="none" stroke="#CBC9BC" stroke-linejoin="round" points="1388.8,57.3 1386.7,54.8 1390.3,54.4 1390.7,56.5 	"/>
	<polygon fill="none" stroke="#CBC9BC" stroke-linejoin="round" points="1379.1,63 1375.5,61.9 1375.1,60.4 1376.8,59.6 1379.3,62 	
		"/>
	<polygon fill="none" stroke="#CBC9BC" stroke-linejoin="round" points="1434.2,112.3 1431.6,112.2 1432,110.8 1434.4,111.3 	"/>
	<polygon fill="none" stroke="#CBC9BC" stroke-linejoin="round" points="1501.9,197.5 1501.5,193.5 1503.4,194.3 1503.7,196.2 	"/>
	<polygon fill="none" stroke="#CBC9BC" stroke-linejoin="round" points="1474.2,205.6 1469.6,202.2 1469.9,199.9 1474.4,204 	"/>
	<polygon fill="none" stroke="#CBC9BC" stroke-linejoin="round" points="1491.2,210.8 1488.9,211.1 1485.2,207.7 1484.8,204.1 
		1483,201.3 1486.5,200.2 1487.7,203.3 1490.9,207.8 	"/>
	<polygon fill="none" stroke="#CBC9BC" stroke-linejoin="round" points="1631.9,332.8 1636,329.2 1639.4,328 1640.9,330.1 	"/>
	<polygon fill="none" stroke="#CBC9BC" stroke-linejoin="round" points="2667.4,374 2668.5,375.8 2667.7,381.8 2666.3,379.7 
		2666.3,378 2666.3,375.1 	"/>
	<polygon fill="none" stroke="#CBC9BC" stroke-linejoin="round" points="2673.2,385.5 2668,371.3 2672.1,377.3 	"/>
	<polygon fill="none" stroke="#CBC9BC" stroke-linejoin="round" points="2677.1,390.3 2675.6,390 2675,382.8 	"/>
	<polygon fill="none" stroke="#CBC9BC" stroke-linejoin="round" points="2673.3,392.6 2671.6,391 2670,382.9 2670.9,382.9 	"/>
	<polygon fill="none" stroke="#CBC9BC" stroke-linejoin="round" points="2668.1,396.7 2669.3,397.4 2669.7,403.9 2668.5,403.5 
		2667.7,399.4 	"/>
	<polygon fill="none" stroke="#CBC9BC" stroke-linejoin="round" points="2708.8,408.4 2709.4,407.6 2712,407.2 2713,406.5 
		2716,404.4 2723.8,396 2733.5,387.7 2734.3,387.8 2729.7,399.2 2727.8,399.8 2726.6,406.9 	"/>
	<polygon fill="none" stroke="#CBC9BC" stroke-linejoin="round" points="2694.5,411.4 2693.1,411.4 2692.8,410.4 2705.7,408.6 
		2699.5,410.9 	"/>
	<polygon fill="none" stroke="#CBC9BC" stroke-linejoin="round" points="2670,410.1 2675.3,409.7 2677.6,410.7 2678.1,412.2 
		2671,411.5 	"/>
	<polygon fill="none" stroke="#CBC9BC" stroke-linejoin="round" points="2333,566.4 2334.9,568.1 2335.8,572.6 2335.4,573.9 
		2334.4,573.5 	"/>
	<polygon fill="none" stroke="#CBC9BC" stroke-linejoin="round" points="1872.9,599.5 1874.7,604.1 1874.8,605.7 1870.6,609.3 
		1867.8,614.8 1864.6,615.1 1863.3,622.5 1859.7,625.4 1858.1,625 1857.1,624.8 1860.3,622.3 1858.5,618.8 1855.2,607.4 1855,604.1 
		1853.8,603 1853.6,600.4 1859.3,598 1863.7,596.6 1868.9,595.4 1872.1,597.7 1870.3,597.3 1869.2,598.3 1866.3,598.2 1864.5,598.7 
		1863.9,599.9 1864.1,600.6 1870.6,599.3 	"/>
	<polygon fill="none" stroke="#CBC9BC" stroke-linejoin="round" points="1785.9,677 1786.6,672 1790.3,668.6 1794,677 1793.3,682.1 
		1789.6,687.2 1785.9,683.8 	"/>
	<polygon fill="none" stroke="#CBC9BC" stroke-linejoin="round" points="1670.1,-335.9 1671.3,-334.5 1674.1,-337.8 1672.7,-346.5 
		1672.4,-358.7 1668.1,-373.1 1667.8,-373.8 1666,-384.4 1663.4,-386.7 1661.4,-391.9 1663.2,-399.1 1667.6,-404.2 1666.3,-405.3 
		1665.7,-408.9 1671.4,-423.8 1672.9,-434.4 1672.6,-436.5 1667.7,-471 1668.6,-478 1666.6,-493.5 1679.5,-492.2 1683.5,-477 
		1697.6,-441.8 1704.9,-439.3 1710.1,-440.8 1710.8,-436.6 1713.2,-436.9 1714.1,-439.3 1709.4,-446.3 1706.7,-454.2 1702.9,-463.2 
		1700.2,-472.2 1695.2,-488.4 1695.6,-492.8 2932.8,-494.7 2917,210.3 2908.9,213.1 2905.8,213 2905.4,213 2885.8,225.9 
		2884.9,228.6 2883.7,231.1 2865.9,246 2862.3,250.5 2857.1,254.9 2847.7,267 2841.1,273.7 2839.1,272.2 2837.5,274.1 2836.8,276.9 
		2825.3,286.5 2815.7,291.1 2815.1,292.6 2812.9,297.1 2802.9,301.7 2801.3,300.7 2805.6,297.1 2795.7,297.1 2793,297.1 
		2794.9,303.6 2794.5,304.2 2796.1,304.1 2793.2,307.5 2791.6,310.9 2791.8,312.3 2799.5,304.1 2800.4,305.2 2798.7,309.3 
		2795.1,314 2789.9,318.5 2788,318.6 2787,320.7 2787.8,323.4 2783.1,327.8 2777.7,334.8 2775.3,336.6 2767.9,347.6 2763.4,354.2 
		2759.3,355.5 2745.6,371.5 2738.7,382.5 2735.8,385.3 2733.2,385.2 2732.2,383.5 2734.4,378.1 2737.2,377.3 2739,375.7 2740.1,374 
		2742.2,371 2754.8,357.1 2760.7,352.6 2771.2,341.8 2773.3,336.9 2770.6,336.6 2765,340.6 2764.4,343.3 2761.6,348.3 2761.3,348.8 
		2755.8,353 2754.3,355.3 2750.3,359.1 2745,362.1 2736.2,369 2729.6,372.2 2724.6,373.4 2723.3,373.8 2719.9,372.5 2713.8,371.6 
		2713.7,372.9 2717.8,374.5 2720.5,374.6 2719.3,376.2 2710.1,375.6 2705.2,379.4 2703.8,379.3 2703.2,381.7 2700.4,382.4 
		2698.7,395.3 2697.4,399.2 2695.9,400.6 2694.7,397.4 2694.9,387.1 2692.5,383.7 2690.4,390.1 2691.1,398 2690.7,402.4 
		2688.5,409.3 2685.9,399.5 2685.9,390.9 2683.9,393.7 2682.3,393.9 2680.3,391.2 2678.1,386.1 2677.4,381.6 2674.9,379 
		2672.4,366.5 2668.1,361.6 2666.3,364.1 2666.2,369.1 2664.6,370.9 2665.9,379.8 2667.1,394.5 2666.1,400.2 2666.6,405.5 
		2664.4,409.8 2660.8,413.7 2656,414.9 2650.5,414.3 2644.2,415.8 2637,416.3 2631.5,416.1 2627.3,416.6 2611.8,415.6 2598.6,416.6 
		2597.6,416.4 2587,415.1 2584.2,415.2 2576.4,415.4 2569.5,416.6 2566.7,418.4 2566.8,415.2 2567.3,411.2 2566.7,410.4 
		2566.7,411.3 2565.2,411.9 2561.3,418.3 2558.7,419.6 2548.6,421.9 2547.2,421.3 2542.4,423.2 2539.6,423.2 2530.9,426.1 
		2530.2,427.4 2524.7,429.2 2523.5,426.5 2522.2,427.2 2523,430.2 2510.7,433.4 2501,439.1 2498.5,439.7 2498,438.4 2500.4,430.9 
		2497.9,433.3 2495.1,435.7 2494.9,437.7 2494.7,442.1 2489.6,443.8 2478.7,449.8 2465.5,459.5 2464.2,458.1 2460.3,460.9 
		2461,463.4 2460.3,466 2457.8,471.1 2453.4,472.7 2453.8,473.8 2452.7,474.6 2446.3,485.1 2442.5,493.8 2432.2,504.5 2428.8,505.5 
		2423.5,505.4 2416.3,503.9 2410.7,501 2410.8,502.5 2416.1,506.5 2427.8,510.7 2434.8,506.2 2440.7,498.2 2442.1,499.5 
		2436.5,506.2 2432.7,513.6 2430.1,520.8 2424.5,536.7 2416.2,548.1 2408.8,556 2402.7,561.1 2390.4,570.2 2387.9,571.5 2371,580 
		2366.2,584.2 2364,583.4 2354.9,591.4 2346.6,587.8 2343.9,584.1 2342.2,580.2 2341.8,576.6 2342.5,572.9 2344,570.8 2344.6,569.9 
		2347.7,560.5 2345.5,549.7 2342.6,540.6 2330.7,523.7 2323.3,519.5 2318.2,514.1 2313.7,513.7 2316.3,516.2 2319,522.5 
		2325.3,524.7 2336.5,540.9 2339,546.2 2340.3,552.4 2344.2,558.6 2340.1,573.7 2339.5,573.4 2339.3,569 2339.5,567.5 2340.3,562.9 
		2337.5,548.7 2334.7,544.1 2332.9,542.4 2332.4,543.9 2331.9,545 2334.2,547.1 2337.1,553.5 2336.4,559.6 2332.8,556.8 2331,553.5 
		2330.2,545.4 2328.3,540.8 2327,533.8 2325.5,532.4 2324.4,535.9 2325.1,540.6 2327.1,545.3 2326.4,547.5 2321.9,545.6 
		2318.6,545.4 2313.4,548 2307.4,540.7 2301.9,540.9 2297.1,542.8 2298.9,543.9 2304.4,542.9 2306,543.9 2311.9,551.2 2323.9,551.5 
		2327.1,554.4 2326.7,559.5 2329.2,561.6 2330.7,564.3 2331.1,570.5 2328,568.1 2322.8,569.1 2319.4,564.8 2315.4,561.7 
		2312.4,561.4 2305.7,563.2 2303,565.8 2305.6,566.5 2314,565.8 2315.3,567.1 2318.1,567.9 2320.7,569.8 2325.4,575.7 2327.8,577.1 
		2329.9,581.9 2334.3,588.2 2336.1,586.5 2332.9,578.1 2337.3,579.9 2338.3,582.6 2340.8,589.9 2343.5,591.8 2350.9,591.8 
		2350.7,593.2 2343.7,595 2331.9,595.4 2312.5,602.4 2305.2,604.4 2291.4,608.3 2284.2,611.7 2275.4,612.7 2269.9,615.8 2260,618.3 
		2242,624.8 2239,627.7 2234.2,628.9 2225,629 2215.1,627.9 2196.5,624 2185.8,619.5 2184.4,619.3 2179,618.5 2175.5,616.7 
		2158.5,618 2156,623.5 2141.4,621.7 2141.5,620.3 2147.6,619.6 2149.1,618.3 2144.1,614.4 2140.7,612.7 2135.7,610.4 2132,610.1 
		2131.9,612.6 2134.5,615.9 2135.6,618.7 2137.5,619.4 2137.9,620.9 2134.9,622.5 2131.5,622.2 2123.6,618 2116.3,616.7 2113.1,615 
		2111.9,611.9 2109.5,612.3 2099.6,606.5 2096.3,606.2 2087,598.2 2084.8,596.5 2073.2,591.9 2068.6,593.6 2062.1,589.3 
		2052.8,585.5 2048.1,582.3 2037.2,577.3 2027.5,571.8 2023.9,571.3 2021.1,568.8 2020.1,569 2016.9,569.7 2014.6,566.2 
		2010.7,566.9 2007.9,564.8 1996,560.1 1992.9,558.1 1984.9,557.4 1966.4,551.9 1958.1,551.4 1946.4,551.6 1939,550.1 1934.4,550.7 
		1928.6,549.7 1928,549.8 1918,551.5 1914.1,553.2 1912.7,551.8 1911.5,548.7 1912.7,542 1911.1,541.9 1909.1,549.1 1910,553 
		1896.9,554.1 1887.9,552.7 1884.8,550.8 1878.3,547 1843.3,517.3 1842.2,514.2 1845.7,514.4 1847.2,513.9 1847.6,512.3 1845,509.2 
		1839.4,507.6 1841.4,512.6 1840.1,513.3 1836.9,509 1833.6,506.6 1829.4,501.8 1827,498.2 1827.9,496.2 1829.8,496.6 1830.9,495 
		1828.7,492.9 1827.1,492.2 1825.1,497.6 1823.3,497.5 1813.9,487.9 1810.5,483.2 1800,473.2 1794.7,469.1 1791.1,467.6 
		1786.9,462.2 1776.2,452.9 1760.2,439 1753,433.3 1739,424.2 1742,422.7 1745.3,423.8 1754.1,422.1 1756.7,418.1 1758,415.6 
		1759.1,409.8 1761.9,403.8 1761.4,402 1762.8,397.1 1767.9,385.6 1764.7,386.6 1759.8,391.6 1759.4,395.2 1756.5,394.9 
		1753.5,404.5 1748.5,409.4 1733.1,416.8 1734.7,419.8 1733.1,420.5 1715.7,408.2 1713.9,405.6 1711.9,405.4 1707.3,402.5 
		1700.6,396.2 1697.6,395.8 1695,396.7 1692.5,395.7 1690.5,393 1689.9,392.3 1674.1,387.9 1660.5,379.9 1652.4,371.2 1644.8,366.4 
		1641.5,365.2 1640.1,362.6 1641.7,355.3 1638.6,342.7 1635.6,340.3 1635.9,338.4 1637.2,337.2 1637.3,335.8 1639.2,333.9 
		1646.9,331.6 1651.1,331.9 1657.2,336.8 1659.8,331.7 1656.2,329.7 1653.7,329.3 1652.4,327.9 1649.5,328 1645.4,329.1 
		1640.6,327.2 1635.9,327.8 1629.8,331.8 1626.4,335.6 1624.6,338.7 1622.3,340.5 1621.8,340.2 1621.1,340.2 1620.3,340.2 
		1618.5,340.1 1617.7,340.8 1617.4,341 1617.1,342.5 1616.4,342.4 1616.1,342.3 1615,342.5 1615,344.8 1617.4,349.3 1622.2,355.1 
		1627.6,358.2 1636.2,361.8 1639.4,364.9 1639.2,365.9 1638.6,365.7 1619.8,359.7 1617.8,360.1 1601.9,367.3 1600,371.2 
		1603.7,379.1 1602.9,380.8 1599.5,381.9 1593.6,382.3 1589.4,382.1 1580.1,381.8 1558.1,388.2 1551,388.5 1547.5,391.5 1533,396.1 
		1526.2,392.8 1525.6,392 1519.2,384.3 1511,371.9 1502.1,371.7 1496.6,369.9 1494.9,371.8 1492.8,377.4 1490.5,379.2 1474.3,384.4 
		1470.9,386.9 1465.5,387.3 1460.8,386.7 1456.1,388.2 1451.6,386.7 1449.3,388.2 1438.6,390.1 1437.8,390.3 1429.6,390.3 
		1422.7,387.7 1418.5,388 1414.4,389.2 1411.9,391.7 1410.4,391.4 1406.7,390.6 1392.3,387.3 1388.6,384.2 1381.9,384.8 
		1378.8,382.7 1377.8,380.9 1371.1,377 1368.8,377.5 1358.9,386.1 1356.3,386.4 1355.8,390 1356.3,392.6 1355,394.5 1350.9,392.6 
		1350.2,390.6 1351.5,388.5 1350.2,387.7 1342.6,391.3 1340,394 1333.1,391.8 1325,401.2 1318.2,400.9 1309.8,399.2 1306.3,396.8 
		1303.1,396.1 1301.9,395.9 1297.2,397.5 1288.5,405 1285.3,406.2 1282.3,407.4 1281.2,402.9 1279.1,402.9 1275.1,397 1274.4,394.6 
		1275,393 1277.5,391.2 1279.7,387.2 1282,385.2 1282.3,380.8 1283.8,376.5 1281.8,374.9 1280,371.9 1278.6,369.4 1276,367.1 
		1275.5,368 1274.3,366 1273.6,361.2 1275.6,354.8 1278.6,354.5 1283.2,344.2 1283.6,339.2 1285.4,336.2 1285.4,332.5 1297.8,329.8 
		1298.7,328.3 1297.4,324.8 1295.2,325.4 1291.4,326.6 1285.8,324.7 1283.5,324.8 1281.6,322.8 1279,322.3 1275.3,317.8 
		1274.3,314.6 1271.2,314.9 1269.5,311.6 1271.6,309.8 1270.5,308.4 1270.8,307.3 1282.7,297.1 1284.2,287.9 1283,279.2 
		1284.1,277.4 1282.8,272.5 1284.2,268.5 1283.5,264.9 1284.8,258 1285.7,256.6 1288.5,251.8 1298.4,255.4 1300.2,258.9 1299.7,259 
		1303,262.6 1306.4,264.1 1310.3,271 1313.4,273.1 1314.6,275.5 1317.1,276.4 1320.9,281.4 1324.7,297.1 1320.9,299.6 1322.3,305.6 
		1321.8,308.4 1322.4,310.6 1327,306.5 1328.9,305.7 1341.4,310.6 1351,311.5 1356.8,310.1 1357.1,309.1 1357.6,307.6 1357.3,302.2 
		1357.9,299.5 1361.8,297.1 1366,292 1370.5,290.5 1372.2,292 1375.6,291.7 1384.2,285 1389.4,280.9 1395.6,280.4 1402.8,287 
		1408.9,288.9 1409.9,287 1414.2,286.3 1421,279.6 1422.3,275.2 1428.4,273.2 1431.5,270.5 1433.4,271.5 1439.1,270.6 1439.9,270.5 
		1441.7,273.9 1443.9,271.2 1447.9,270.3 1453.4,261.2 1456.6,264.1 1459.7,262.6 1465.4,262.2 1462.1,258 1461.4,258.2 
		1457.9,254.9 1452.3,252.9 1447.6,247.6 1449.7,246.5 1448.3,244.3 1445.2,244.9 1442.8,246.2 1441.4,246.1 1442,244.4 
		1443.7,243.7 1443.8,240.7 1445.3,239.1 1445.1,236.8 1453.5,231.9 1454.2,233.2 1451.3,236.6 1454.1,237.2 1456.2,234.9 
		1459.5,233.4 1461.4,237.5 1461.1,240.3 1457.5,237.4 1456.9,239.2 1453.7,240.3 1450.6,241.4 1451.2,243.1 1455.2,244.7 
		1462.1,243.2 1463.4,245.3 1468.6,244.3 1468.2,241.1 1471.7,241.4 1473.6,240.5 1473.3,238.8 1467.7,237.2 1466.7,235.7 
		1467.5,233.9 1473,234.3 1474.7,232.8 1474.6,232.1 1465.7,229.2 1463,226.7 1462,225 1458.4,219.2 1453.2,215.4 1448.5,213.6 
		1444.5,214.7 1444.6,211.9 1447.3,210.5 1448.5,208.2 1452.8,209.7 1456.6,213.8 1460,214.6 1462.8,213.1 1465.7,208.9 
		1466.9,209.8 1465.7,213.5 1467.9,216.2 1471.7,214.1 1472.4,216.4 1472.6,216.9 1477.5,216.1 1478.3,212 1481.2,211.2 
		1485.1,215.3 1487.5,215.2 1489.7,220.6 1489.4,226 1490.6,227.5 1492.3,225.1 1497.5,226.1 1500.6,225.7 1500.5,225 1493.6,221.4 
		1494.2,218.3 1496.7,217.7 1496.9,215.4 1494.7,214.1 1494.6,213.1 1497.6,212.4 1499.5,212 1499.7,211.5 1500.2,210.3 
		1493.1,205.6 1494.2,201.5 1498.5,200 1503.4,204.3 1503.9,207.2 1502.5,210 1503.4,210.7 1508.8,209.7 1512,207.3 1510.6,205.2 
		1511.1,203.7 1515.5,202.9 1518.5,201.3 1521.2,201.6 1521.1,201 1526,200 1526.1,198.7 1521.6,196.9 1518.3,195.6 1510.4,199.6 
		1507.9,199.1 1506.3,200.7 1505,199.4 1508.6,194.7 1506.2,190.8 1507,189.4 1509.7,188.3 1512.3,189.6 1515.3,186.2 1515.4,186.9 
		1518.8,187.3 1521.8,184.4 1518.2,181.8 1507,185.4 1504.8,184.3 1498.9,181.3 1493.2,183.3 1491.8,182 1494.7,179.9 1495.7,174.4 
		1494.2,167.6 1489.1,165.9 1483,166.9 1482.7,169.6 1478.6,170.5 1476.6,170.1 1475.5,171.7 1472.8,169.7 1474.2,167.8 
		1477.9,166.7 1475.2,164.3 1476.2,163 1476.6,163 1478.9,162.7 1480.6,158.9 1480.4,152.6 1481.5,151.7 1492.1,136.9 1496.2,134.5 
		1514.5,109.1 1516.3,108.9 1520.7,112.3 1525.6,111.2 1527.3,112.2 1527.9,112.6 1531.6,111.6 1535,112.7 1538.1,112.1 
		1539.2,109.9 1537.4,108.3 1529.5,108.5 1527.9,103.6 1533.4,98.7 1539.2,96.1 1542.2,92 1543.4,91.8 1545.7,91.3 1547.8,92.6 
		1549.7,91.7 1549.7,88.1 1553.8,88.7 1555.4,91.6 1554.1,95.4 1556.7,98.6 1561.5,98.7 1563.6,96.3 1566.3,95.6 1566.3,96.1 
		1571.4,93.9 1572.3,99.2 1577.8,102.6 1586.5,101.7 1589,97.2 1591.5,92.3 1595.7,88.9 1601.6,87.6 1603.7,86.6 1604.9,86 
		1604.8,85.4 1598.2,84 1594,84.6 1588.9,87.8 1587.2,91.5 1583.1,94.3 1577.8,93.6 1576.6,91.4 1584.9,88.4 1587,86.3 1586.1,83.5 
		1581.1,79.8 1572.3,79.6 1571,79.5 1563.7,81.7 1559.5,80.8 1556.6,81.4 1547.2,78.3 1543.7,74.6 1531.2,76.9 1525,82.6 
		1520.9,83.5 1520.2,84.9 1511.9,92 1509,97.1 1508.7,97.2 1501.8,99.7 1497.3,108.9 1493.6,111.6 1490.5,115.8 1482.6,120 
		1474.2,128.2 1469.8,128.9 1466.9,131.5 1464.7,130.3 1455,131.3 1451.1,131.8 1442.8,131.6 1438.8,127.4 1435.2,125.3 
		1431.7,124.9 1427.9,127.3 1426.5,124.5 1430.1,122.7 1432.4,117.7 1435,117.1 1436.5,113.6 1439.7,113 1444.9,102.3 1446.5,102.8 
		1447.5,105 1449.4,101.9 1453.4,97.7 1453.6,93.9 1457.3,94.7 1462.8,92.9 1465,95 1466.9,94.7 1468.2,91 1470,90.6 1472.8,93.6 
		1476.5,92.7 1479.6,91.3 1479,87.9 1479.8,85.9 1484.1,84.7 1483.4,83.7 1481.9,81.6 1475.2,85.1 1470.7,79.5 1468,80 1468.1,80.5 
		1464.6,79.5 1461.2,82.6 1458.9,82 1455.7,82.5 1453.8,84.5 1455,90.3 1453.4,90.5 1446.4,84.6 1444.9,82.4 1441.5,77.1 
		1445.2,67.2 1447.6,65.5 1446.3,58.3 1447.1,49.2 1449.7,48 1449.4,57.1 1453.3,53.6 1453.5,42.8 1456.2,39.5 1455.2,36.4 
		1456.6,30.8 1462.2,17.9 1463.3,17.7 1465.1,19.8 1466.5,19.8 1468.6,16.8 1473.5,15.1 1479.2,8.3 1483.2,10 1492,6.8 1497,4.1 
		1501.1,5.5 1504.5,4.7 1505.8,5.4 1507.5,4.4 1507,1.9 1505.5,1.6 1502.1,-1.8 1501.3,-1.2 1494.1,-0.9 1493.5,-2.4 1499,-4.2 
		1502.3,-7.5 1505.5,-16 1508.9,-19.6 1507.1,-21.7 1501,-20.5 1495.9,-20.7 1493.4,-18 1487.4,-14.6 1484.1,-13.7 1483.6,-12.5 
		1486.3,-8.7 1482.9,-7.6 1479.7,-9.6 1477.8,-7.4 1476.2,-3.5 1474.5,-2.5 1470.7,4.9 1468.3,6.2 1467.9,4 1470.9,-0.7 1472.4,-3 
		1470.2,-5.6 1466.9,-2.8 1463.6,-2.4 1457.2,8.6 1450.3,8.5 1444.7,12.3 1442.4,3.7 1446.1,-2.5 1449.1,-10.5 1449,-14.5 
		1447.5,-14.3 1443.8,-10 1444.1,-6.9 1444.2,-6.1 1439.6,-1.2 1437.9,4 1437.1,8.9 1438.6,14 1435,16.1 1431.1,20.8 1432.3,24.7 
		1431.3,39.2 1429.4,40.6 1426.3,40.4 1425.1,40.1 1425.5,36.8 1423,37.6 1420.2,40.3 1413.3,46.7 1411.5,46.3 1413.8,42.3 
		1417.1,39.8 1417.4,37.6 1411.6,41.3 1409.2,41.2 1406.8,39.5 1405.7,37.4 1405,37.5 1402.6,34.6 1402.7,27.2 1400,26.9 1400.4,23 
		1399.5,22.8 1393.7,31.4 1392.7,31.8 1392.7,30.9 1392.5,27.8 1401,10 1402.3,5.7 1396.6,5.5 1395.8,1 1396.5,-0.2 1398.8,-0.5 
		1399.1,-2.3 1397.4,-4.3 1392.7,-1.9 1392.5,-4 1396.1,-8 1392.7,-10.2 1392.3,-12.3 1394.7,-15.5 1395,-15.9 1395.8,-19.1 
		1394.2,-19 1388.8,-12.5 1386.2,-14.3 1382.1,-12 1378.8,-7.2 1377.2,-7 1374.4,-8.6 1372.1,-7.2 1366.9,-16.7 1368.4,-20.8 
		1365.3,-22.1 1366.9,-25.6 1366.8,-33.5 1370.8,-37 1369.9,-38.7 1369.8,-38.9 1364.1,-37.6 1362.3,-42.3 1359.1,-47.6 
		1359.6,-50.4 1344.5,-60.6 1344.2,-65.7 1346.7,-65.1 1349,-60.5 1352.2,-57.8 1361.8,-52.5 1361.7,-53.1 1363.7,-53.5 
		1373.4,-55.6 1373.7,-57 1371.2,-59.3 1365.6,-56.3 1365,-57.6 1370.1,-69.7 1371.5,-71 1378.8,-71.4 1376,-74.5 1369.8,-76.6 
		1371.9,-80.8 1374.5,-85.6 1353.3,-67.7 1351.8,-68.2 1352.2,-69.5 1352.9,-72.7 1351.1,-76.1 1357.3,-79.1 1361.4,-82.3 
		1365.5,-91.7 1368.8,-92.3 1370.2,-99.3 1370.5,-105.8 1372.5,-107.4 1377.5,-109.4 1378,-112.5 1376.9,-115.8 1371.1,-117.7 
		1366.6,-121 1364.9,-121.2 1363.1,-119.5 1360.6,-119.1 1359.1,-120.6 1355,-120 1350.9,-116.5 1346.1,-118.7 1346,-119.3 
		1350.4,-121 1349.1,-125.4 1352.6,-127.1 1352.9,-130.5 1348.6,-129.3 1344.7,-128.2 1346,-130.6 1351.6,-134.9 1354.5,-143.6 
		1353.9,-145.8 1358.5,-149 1357.5,-150 1354.2,-149.8 1350.5,-146 1349.9,-140.8 1347.5,-137.7 1342.5,-138.3 1342.3,-140 
		1342.7,-141.5 1344.4,-142.2 1345.8,-142.9 1345.9,-144.5 1345.1,-146 1344.5,-145.9 1343.6,-144.5 1342.7,-142.5 1341.8,-142.2 
		1339.4,-142.2 1337.8,-142.5 1336.9,-140.6 1336.8,-137.6 1335,-136.2 1328.8,-138.9 1326.7,-141.5 1323.5,-139.7 1311.3,-128.6 
		1311.4,-127.8 1317.9,-125.7 1318,-125 1314.6,-123.8 1304.7,-125.7 1298,-121.1 1296.3,-121.1 1295.4,-121.1 1287.2,-126.6 
		1288.9,-128 1297.9,-125 1300,-125.6 1301.3,-129.4 1297.5,-131.6 1295.4,-130 1292.3,-132 1293.9,-134.5 1293.3,-139.1 
		1290.1,-139.7 1287.6,-141.7 1284.9,-141.9 1283.3,-142.1 1273.3,-138.9 1269.8,-139.8 1266.4,-138.7 1266.6,-137.2 1278.4,-129.4 
		1283.3,-125.2 1283,-124.2 1275.8,-128 1268.4,-133.2 1261.6,-135 1258.8,-135.4 1254.3,-135.9 1250.2,-139.6 1231.8,-135.5 
		1226.6,-135.5 1221.5,-139.2 1211.3,-139.8 1211,-139.1 1205.1,-137 1198.6,-139.2 1191.4,-138.7 1181,-140.8 1172.8,-144.4 
		1167.4,-145.2 1150.6,-152.3 1145.2,-152.7 1132.7,-153.6 1124.8,-151.8 1120.6,-148.5 1120.8,-142.3 1119.5,-139 1114.9,-136.2 
		1108.3,-134.1 1105.3,-134.4 1099.7,-138.5 1093.1,-140.3 1088.4,-140 1076,-139.2 1075.8,-140.2 1079.6,-142 1091,-143 
		1088,-145.1 1082.9,-146.1 1079.1,-144.8 1069.9,-139.4 1061.6,-129.3 1061,-126.6 1061.5,-125.7 1064.3,-120.5 1062.7,-116.5 
		1058.6,-111 1059.3,-111.1 1060.6,-107.3 1052.9,-105.1 1045.5,-108.1 1040.4,-106 1034.2,-103.4 1027.9,-103.6 1021.1,-98.6 
		1016.3,-103.1 1013.5,-103.6 1011.2,-106 1007.4,-106.9 1006,-108.7 1002.7,-108.7 999.6,-111.5 993.6,-112.6 993.4,-117.1 
		989.6,-126.7 989.4,-127.1 986.3,-131.4 979.1,-147.9 979.9,-152.7 977.2,-153 976.4,-149.8 974.2,-149.4 972.6,-150.9 
		969.8,-160.4 964.7,-170.1 962.3,-184.6 964.6,-185.9 969,-183.3 973.1,-185.6 976.1,-185.5 979.4,-190 981.8,-190.4 984.1,-195.2 
		988.8,-197.6 991.7,-202.8 994,-203.4 997,-202.3 1004.2,-207.6 1007.2,-207.8 1010.5,-206.6 1014.1,-209.9 1016.6,-207.4 
		1017.7,-206.4 1015.1,-205.7 1015.1,-203.9 1020.9,-198.3 1023.2,-197.9 1018.7,-204.3 1020.5,-204.8 1027.7,-197 1040.1,-194 
		1044.6,-190.6 1051.2,-189 1053.1,-189.2 1057.3,-189.6 1060.2,-188.5 1065.2,-192.5 1070.4,-202 1073.2,-202.1 1076.9,-200.4 
		1082.6,-201.8 1087.1,-205.6 1091.9,-217.1 1095,-220.7 1098.3,-221.2 1104,-219.7 1104.7,-219.5 1109.9,-219.6 1116.1,-221.9 
		1118.3,-221.7 1118.9,-220.6 1117,-217.9 1124.5,-217.1 1120.4,-228.1 1124.1,-227.7 1127.7,-230.2 1128.1,-231.7 1133.4,-228.9 
		1134.8,-222.7 1131.4,-216.9 1131.4,-214.8 1131.4,-213.9 1133.2,-212.3 1136,-212.8 1137.7,-214.4 1135.6,-217.2 1137.5,-219.6 
		1140.2,-220 1142.4,-218.7 1143.9,-214 1140.4,-211 1140.5,-207.7 1144.3,-205.3 1149.7,-208.5 1151.5,-208.4 1154.4,-206 
		1157.5,-206.3 1158.5,-206.4 1160.9,-209.3 1163.3,-222.4 1160.5,-227.5 1160.6,-233.2 1157.4,-242.1 1158.4,-247 1160.4,-249.8 
		1163.4,-254 1167.8,-258.1 1174.4,-256.2 1177.6,-254.6 1179.5,-253.5 1192.1,-251.5 1192.4,-250.4 1191.8,-249.8 1185,-242.5 
		1182.1,-235.4 1183.6,-230.2 1179.5,-229.9 1178.1,-224.6 1174.2,-219.6 1177.7,-214.5 1179.6,-215.8 1182.4,-211.7 1183.4,-210.2 
		1183.9,-205.6 1186.7,-205.5 1189,-201.4 1190.4,-202.1 1190.9,-208.6 1188.1,-226.5 1188.6,-227.9 1191,-226.9 1191.8,-229.3 
		1197.1,-228.3 1201.5,-225.2 1205.9,-225.3 1208.7,-221.5 1208.3,-219.2 1206.8,-210.4 1207.8,-208.8 1209.3,-209.6 1211.4,-218.6 
		1210.5,-225.7 1208.3,-228.2 1199.9,-229.5 1198.6,-231.1 1201.3,-243.5 1205.6,-248.7 1206.9,-249.8 1210.8,-253 1212.6,-254.5 
		1220.1,-254.3 1225.2,-251 1226,-249.8 1227.3,-247.8 1228.1,-241.3 1232.2,-241.7 1234.2,-245.4 1237.3,-246.1 1241.7,-249.8 
		1243.9,-251.6 1247.1,-251.9 1249.7,-249.8 1249.8,-249.8 1254.5,-254.7 1263.1,-259.3 1263.4,-259.5 1265.6,-262.6 1245.6,-264.2 
		1244.9,-265.9 1246.2,-268 1254.8,-271.2 1256,-268.7 1258.6,-269.4 1261.1,-277.7 1270.2,-281.9 1272.9,-287.2 1274.5,-288.3 
		1277.6,-290.6 1280.1,-289.6 1280.6,-287.1 1277.7,-283.9 1278.1,-281.7 1282.9,-285 1285.2,-281.7 1288.6,-279.5 1285.1,-278.7 
		1283.7,-274.1 1288.1,-274.4 1288.2,-273.8 1285.1,-270.3 1284.1,-266.5 1280,-265.1 1276.6,-262.2 1274.1,-261.4 1273.4,-260 
		1275.5,-259.2 1278.7,-259.6 1278.8,-259.6 1280.8,-261.8 1284,-261.5 1286.9,-265.2 1289.1,-264 1287.8,-259.2 1286.5,-257.9 
		1290.3,-255.7 1290.3,-251.6 1290.9,-249.8 1291.4,-248 1296.5,-244.1 1300.4,-244.8 1307,-239.9 1312.2,-231.6 1313.5,-231.4 
		1311.9,-236.7 1311.1,-238 1304.1,-248.2 1303.5,-249.8 1302.8,-251.6 1305.3,-256.6 1304.6,-260.2 1308.2,-263.8 1309.5,-266.5 
		1314.3,-263.9 1315.9,-264.1 1314.7,-270.1 1322.7,-276.2 1328.9,-274.4 1332.3,-274.6 1342.1,-272.3 1349.8,-274.6 1355.4,-278.1 
		1363.6,-278.2 1364.9,-280.2 1366.4,-279.9 1372.2,-282.2 1373.8,-279.8 1378.3,-278.3 1380.7,-274 1386.3,-274.8 1398.6,-270.9 
		1399.1,-266.3 1400,-266.2 1406.8,-265.7 1408.5,-263.9 1409.6,-265.1 1413.7,-265.8 1417,-262 1418.9,-262.1 1421.8,-269.1 
		1426.4,-266.5 1427.7,-266.4 1429.7,-268.6 1441.9,-267.4 1450.7,-263.1 1459.3,-264.1 1463.8,-260.8 1467.6,-261.5 1475,-262.9 
		1494.2,-263.8 1496.2,-260.7 1498,-262.5 1500.8,-264.7 1501,-268 1502.7,-271.1 1500.6,-281 1495.2,-283.1 1492.7,-284.1 
		1491.5,-288.3 1493.9,-292.8 1502,-298.7 1504.3,-302.4 1503.3,-310.1 1507.1,-312.7 1511.5,-321.2 1514.1,-330.2 1516.1,-332.4 
		1519.3,-342.9 1518.6,-342.8 1517.5,-346.6 1516,-356.4 1512.7,-361.1 1512,-360.4 1506.6,-361.9 1502.3,-361.5 1495.8,-360.8 
		1494,-359.2 1493.3,-353.4 1490.6,-350.4 1491.7,-344.7 1490.9,-340.9 1488.7,-342 1484.2,-335.4 1477.7,-330.6 1468.4,-320.9 
		1452.3,-310 1447.4,-308.6 1433.6,-307.7 1430.8,-306.4 1427.9,-307.4 1424.2,-307.2 1422,-308.8 1420.6,-309.8 1419.8,-313.4 
		1412.5,-314.2 1408.3,-313.6 1405.7,-315.5 1399.8,-314.6 1397.3,-316 1392.9,-314.4 1389.6,-316 1386.1,-319.5 1379.1,-322.9 
		1377,-323 1373.1,-326.3 1363.7,-330.7 1361.6,-334.6 1357.9,-341.6 1354.3,-340.9 1353.5,-336 1348.8,-336 1344.8,-334.9 
		1343.3,-331.4 1341.2,-333.1 1339.2,-333.2 1336.5,-335.8 1328.4,-336.6 1321.4,-335.8 1317.4,-339.1 1318.8,-341.5 1317.6,-344.7 
		1320.5,-345.1 1322.9,-343.6 1326.4,-341.2 1330.1,-341.4 1332.8,-343.4 1336.8,-349.8 1341.6,-347.9 1344.2,-350.2 1341.9,-352.1 
		1329,-355.4 1326.6,-354.6 1322,-350.7 1320.3,-351.5 1322.7,-355.8 1328.3,-361.2 1331.2,-372.9 1335.3,-376.1 1337,-380.1 
		1339.3,-380.9 1341.5,-379.8 1345.1,-381.3 1348,-382.5 1351.8,-385.7 1351.8,-390.4 1350.7,-392.4 1354.8,-394.9 1358.1,-400.2 
		1360.3,-399.6 1360.6,-396.9 1363,-396.4 1365.9,-400.3 1367.4,-405.6 1366.2,-409.2 1367.2,-411.1 1371.2,-412.5 1376.2,-413.1 
		1386.3,-417.9 1388.7,-420.1 1393.7,-420.2 1395.2,-420.3 1408.2,-426.1 1415.4,-430 1423.4,-438.7 1428.6,-442.1 1439.9,-450.7 
		1441.4,-454.1 1444.2,-454.3 1447.9,-458.4 1448,-457.9 1454.3,-458.4 1457.3,-460.6 1459.8,-467.6 1459.1,-467.5 1458.3,-469.7 
		1460.4,-469.4 1465.7,-459.7 1468.6,-461.3 1463.7,-470 1469.2,-472.8 1472.4,-478.5 1479.9,-477.6 1480,-476.9 1502,-482.1 
		1504.5,-481 1505.6,-481.7 1513.3,-486.4 1520.3,-494.1 1503.3,-490.5 1499.4,-489.3 1495.8,-490.2 1491.6,-493.5 1468.4,-494 
		1462.9,-493.5 1459.9,-490.1 1458.7,-491.4 1408.8,-491.4 1408.4,-492 1402.5,-484.7 1400,-484.3 1398.6,-485.6 1396,-484.4 
		1393.1,-488.1 1392.2,-489.2 1388.3,-488.8 1387,-491.2 1383.9,-489.5 1576.8,-493.6 1577.7,-492.7 1584.5,-494.2 1631.6,-494.1 
		1636.6,-489.1 1638.5,-486.4 1642.7,-487.2 1643.3,-483.5 1640.7,-475.9 1645,-469.5 1646.1,-462.5 1644.4,-456.1 1646.9,-441.3 
		1644.5,-428.3 1643.2,-421.5 1644.3,-412.6 1648.2,-409.3 1648.5,-403.8 1651.4,-400 1650.7,-397.2 1653,-393.1 1657.6,-385 
		1657.9,-378.8 1666.6,-360.9 1667,-348.7 1667.7,-338.5 	"/>
</g>
<g>
	<text transform="matrix(1 0 0 1 1463.0767 332.0918)" fill="#939598" font-family="'HelveticaNeue-Bold'" font-size="5.1197">Kleifarvatn</text>
	<text transform="matrix(1 0 0 1 1376.8916 354.1055)" fill="#939598" font-family="'HelveticaNeue-Bold'" font-size="5.1197">Seltn Geothermal Area</text>
	<circle fill="#A8AAAD" cx="1458.4" cy="333.7" r="3"/>
	<circle fill="#A8AAAD" cx="1441.3" cy="350.5" r="3"/>
</g>
<g id="trail-path" display="none">
	<path display="inline" fill="none" stroke="#010101" stroke-width="5" stroke-miterlimit="10" d="M1499.4,225.8
		c-12.6,1-12.6,15.6-21,24.9c-3.3,0.8-6.5,1.6-9.8,2.4c0,2,0,3.9,0,5.9c-7.1,5.7-14.1,9.7-22.3,13.5c-24,11.2-51,19.8-73.4,33.7
		c-18.8,11.6-23.3,10.6-45.4,7.3c-8.5-1.3-20.1,13.3-29.1,18.8c-10.5,6.4-12,20.4-10.5,32.1c1.9,14.2-1.7,21.2-2.5,34.1
		c14.6-15.8,29.5,1.4,44.9-9.1c4.4-3,17.2-11.6,20.4-9.7c10.1,5.9,16.6-11,24.9-11.5c3.4-0.2,14.6,8.3,22.2,8.3
		c8.2,0,16.4,0.2,24.6,0c14.9-0.3,33.6,3.5,47.9-1.1c15.8-5.1,30.9-14,46.5-3.3c21.3,14.5,26.3,13.2,50.9,7.2
		c22-5.3,32.3-7,37.8-30.4c2.3-9.7-3.2-13.1,8.6-13.7c6.6-0.3,16.3-14.8,21.1-19.8c14.6-15.3,17.8-21,29.5,0.4
		c2.8,5.2,14.6,2.2,20.5,5.1c7.6,3.8,13-18.4,14.1-24.4c3.1-15.5,27.5-22.6,36.8-31.9c10.6-10.6,28.3-25.7,42.2-30.3
		c18-6,21.3-25.7,37.1-33.6c13.4-6.7,37.1-16.5,40.5-35.2c2.2-12.1-9.5-29.3,1.4-39.2c16.1-14.5,33.4,10.1,47.2-11.7
		c0.2-0.4,61,64.8,91.7,150.7c36.4,101.6,43.6,226.7,43.9,226.2"/>
</g>
<g id="camera-path" display="none">
	<path display="inline" fill="none" stroke="#EC2227" stroke-width="3" stroke-miterlimit="10" d="M1528.9,191.2
		c0,0-280.5,125.2-251.4,200.1c15.5,39.7,127.7-9,169.5-17.2c53.1-10.5,156.5-46.3,204.4-71.7c69.9-37.1,178-209.9,254.3-188.7
		c95.8,26.7,132.3,375.2,132.3,375.2"/>
</g>
<g id="points" display="none">
	<circle id="Reykjavk" display="inline" fill="#405B54" cx="1500" cy="224.1" r="5.8"/>
	<circle id="Reykjanesta" display="inline" fill="#405B54" cx="1285.7" cy="399.9" r="5.8"/>
	<circle id="Krsuvkurbjarg" display="inline" fill="#405B54" cx="1448" cy="376.5" r="5.8"/>
	<circle id="Hverageri" display="inline" fill="#405B54" cx="1651.4" cy="302.4" r="5.8"/>
	<circle id="Gullfoss" display="inline" fill="#405B54" cx="1905.6" cy="113.7" r="5.8"/>
	<circle id="Eyjafjallajkull" display="inline" fill="#405B54" cx="2039.5" cy="491" r="5.8"/>
</g>
</svg>
